<mxfile host="app.diagrams.net" agent="Mozilla/5.0 (Windows NT 10.0; Win64; x64) AppleWebKit/537.36 (KHTML, like Gecko) Chrome/129.0.0.0 Safari/537.36" version="24.7.16">
  <diagram name="Page-1" id="kzDQsGOQ7KQZ7-sFs4r_">
    <mxGraphModel dx="1050" dy="562" grid="1" gridSize="10" guides="1" tooltips="1" connect="1" arrows="1" fold="1" page="1" pageScale="1" pageWidth="850" pageHeight="1100" math="0" shadow="0">
      <root>
        <mxCell id="0" />
        <mxCell id="1" parent="0" />
        <mxCell id="jy-rrXg_5H6nWXyfPQef-45" value="" style="rounded=1;whiteSpace=wrap;html=1;" vertex="1" parent="1">
          <mxGeometry x="39" y="15" width="911" height="525" as="geometry" />
        </mxCell>
        <mxCell id="jy-rrXg_5H6nWXyfPQef-2" value="MINIKUBE ENV" style="text;html=1;align=center;verticalAlign=middle;whiteSpace=wrap;rounded=0;" vertex="1" parent="1">
          <mxGeometry x="78" y="30" width="60" height="30" as="geometry" />
        </mxCell>
        <mxCell id="jy-rrXg_5H6nWXyfPQef-6" value="DEBEZIUM -KAFKA CONNECT&lt;div&gt;Pod&lt;/div&gt;&lt;div&gt;&lt;br&gt;&lt;/div&gt;" style="text;html=1;align=center;verticalAlign=middle;whiteSpace=wrap;rounded=0;" vertex="1" parent="1">
          <mxGeometry x="253.5" y="337.4" width="60" height="30" as="geometry" />
        </mxCell>
        <mxCell id="jy-rrXg_5H6nWXyfPQef-9" value="" style="endArrow=classic;html=1;rounded=0;" edge="1" parent="1">
          <mxGeometry width="50" height="50" relative="1" as="geometry">
            <mxPoint x="340" y="267" as="sourcePoint" />
            <mxPoint x="410" y="267" as="targetPoint" />
          </mxGeometry>
        </mxCell>
        <mxCell id="jy-rrXg_5H6nWXyfPQef-10" value="" style="endArrow=classic;html=1;rounded=0;" edge="1" parent="1">
          <mxGeometry width="50" height="50" relative="1" as="geometry">
            <mxPoint x="150" y="264.5" as="sourcePoint" />
            <mxPoint x="230" y="265" as="targetPoint" />
          </mxGeometry>
        </mxCell>
        <mxCell id="jy-rrXg_5H6nWXyfPQef-12" value="KAFKA&lt;div&gt;Pod&lt;/div&gt;" style="text;html=1;align=center;verticalAlign=middle;whiteSpace=wrap;rounded=0;" vertex="1" parent="1">
          <mxGeometry x="420" y="320" width="60" height="30" as="geometry" />
        </mxCell>
        <mxCell id="jy-rrXg_5H6nWXyfPQef-21" value="Spark Pod" style="text;html=1;align=center;verticalAlign=middle;whiteSpace=wrap;rounded=0;" vertex="1" parent="1">
          <mxGeometry x="817" y="307.40000000000003" width="60" height="30" as="geometry" />
        </mxCell>
        <mxCell id="jy-rrXg_5H6nWXyfPQef-14" value="" style="dashed=0;outlineConnect=0;html=1;align=center;labelPosition=center;verticalLabelPosition=bottom;verticalAlign=top;shape=mxgraph.weblogos.json_2" vertex="1" parent="1">
          <mxGeometry x="610" y="252.5" width="80.4" height="25.200000000000003" as="geometry" />
        </mxCell>
        <mxCell id="jy-rrXg_5H6nWXyfPQef-25" value="" style="image;aspect=fixed;html=1;points=[];align=center;fontSize=12;image=img/lib/azure2/storage/Storage_Accounts.svg;" vertex="1" parent="1">
          <mxGeometry x="820" y="400" width="65" height="52" as="geometry" />
        </mxCell>
        <mxCell id="jy-rrXg_5H6nWXyfPQef-29" value="" style="sketch=0;outlineConnect=0;fontColor=#232F3E;gradientColor=none;fillColor=#C925D1;strokeColor=none;dashed=0;verticalLabelPosition=bottom;verticalAlign=top;align=center;html=1;fontSize=12;fontStyle=0;aspect=fixed;pointerEvents=1;shape=mxgraph.aws4.rds_mysql_instance;" vertex="1" parent="1">
          <mxGeometry x="60" y="222" width="78" height="78" as="geometry" />
        </mxCell>
        <mxCell id="jy-rrXg_5H6nWXyfPQef-30" value="MySQL Pod" style="text;html=1;align=center;verticalAlign=middle;whiteSpace=wrap;rounded=0;" vertex="1" parent="1">
          <mxGeometry x="69" y="320" width="60" height="30" as="geometry" />
        </mxCell>
        <mxCell id="jy-rrXg_5H6nWXyfPQef-33" value="" style="shape=image;verticalLabelPosition=bottom;labelBackgroundColor=default;verticalAlign=top;aspect=fixed;imageAspect=0;image=data:image/png,iVBORw0KGgoAAAANSUhEUgAAAOMAAADXCAYAAADoZeb3AAAAAXNSR0IArs4c6QAAAARnQU1BAACxjwv8YQUAAAAJcEhZcwAAEnQAABJ0Ad5mH3gAAMJ/SURBVHhe7P3nl6VZdt6JnczwkZmR3lSWd+3RFo0mgIYHSAyHJCjRDNdIs7T0YZbm8/wF/KYvo6UlaWSWFjVDzhCkuITBEBiCJBoebYFudKO9KdPl0/vIjAyTmXp+z7PPe29khcusKnR1Nfa95z37bL/3e87r7o0bu+4I2l/DX8Nfww8cdlf/1/DX8NfwA4a/Xox/DX8NbxPY8DIV0q5du9rtO7fbnXa7qD9Y2FV9sF1+jYPCVdz06+lvNfRa0VMrtj94SA36dnwE9Hgh3V3HtxLW1yqvNx0weS8p9RCsk2q8fm5l3ON/q+Adcc/onao3derZUDLQ1O6tK+APHXghCFSSXXe0MDIyvJUT7YcV+twC+oFkvH8zYcPFeOv2apvYPdW+euHftr+88JttcvesqK8Te8vBoe3a3SZ3TbWp3XNtZvd82z99oh2efaodn3t32zd1VPRZzStdbasu61JRoSiVTbyFc6zvlBtrV9sXzvx6e/n6VzWecLXsX9vEkCDAoQFEaL5HfVyayJeedbRwLLErEuhFvkPkdsv31K7pNjUx2+YmFtrBmePtofmn2rG5R1y/qYkZSSYO7X37APoE6/hbAb1Wq7dW2++++lvtucVnFO8UHLX4dK4eJbdRnsHgdOnUbj2dOqV0XS/2gIzv0hFzQvNnbmJO8+pgOzx9sD2275F2Yl5zq01qfk1IDFlsd0uQ0M34zarXhotx7dZKm5yYbp859f9unz7z//JCGKX0Vw9JdrcLyGTT8mzTmlhHZp9oD+35cDu558fawemH296pI1UktLi8lgY7RuM3q2B3w+3bt9vu3bvb4urF9h9f/m/a965+VjFOipNdnslBEKmgF5XfTApax01eR2ucuei8wU7ZtGS0RuNOyWOAXTqI7fY0m3Q885ML7eH5d7UnFj7Qjs493A5pkc5N7LHsMAVkxjZcsOBvJvRaLa8tt19//p+1b1z5qg60084Cb+TpUHoc1diaP2Ad19Y1EkUM6zvkRD6uT106ZlrJev/QZGO3Ft6E6jWpeh2YWWiP7X2ovWfhyXZy/lg7NL1fBzIdOPDDBi81p96sRbnlmfHzZ/779rmz/90PfDEG4j/hUo7cyzKendynifZRL8wH93xIR7jHvGhv377lAjEx36yC3Q3Yxeb1tUvtU6/839pz175g3+ax8+UWfsLOBGBSsB0mhsclb0wUy4pfkwWR8Ls8khkDoYcajhV030/TxmKSF3po5kR7auHH2qN73uuz5sLMwcjqZevUSGNH9ybWq9dqRQf7f/P9f9G+dfWbnviug/ylPo5Ag13ewxxaRjnSWFQdlyS1EWaZqlM2RiwHhh5SHpUfD9WixjOSkABixf+U1sHJ2WPtPQeebO9eeMILc35yxvx41etNqtHEPxUUPsCdOzqCaUK9cv0vddn15TZRR/q/avACcqFGQOJp2ikc/RUnB48Ly99vL13/i/bq0lfb2u1lXcIe8yJF+067JTnkmYyZEG8mYG/19s323NU/b5dWXhJBU+i2dq7ceDJpr3rOqI0mFvX0rsxYQ8uHPIIqO5OHhbnbNkZC6IHS28fIkaXQI3cacVGzG7cW2yuLz7VnF7/ZXrnxnM9O+2cOaeJN+6GdY+L9FtQLW7fu3GrfuPy1du7mGdVHB00CLR6Ob2d1GKiX8zCNeFInH6zEQyy00oGOnHUhRS51koAQ7wPXyQIGsoZPDKmVrirUo3dpdVEH2Zfb96692M7evNBmVafDM/vNH+rVARuF3iswV962QGG2S6xPlgkVCOkLN19onz/737fffeX/2L596fe045dVNHb4rUGWnvZmA7s5O16NfSsXHdfIY2LMBXRoNELxGYHe46IhLzpi0EFFikz1piGPORMhaKwOJh10pozlhU+oHhO6DVnVQevF699p//G1X2//7uX/UQv0edWxzupVo16vNxsSHrZrPOSRnDowRto0yVqcXrJZkMLFtErPOyP3vZamGacnL+UnlHp0+a6Va67iieh67Z5sl1cW21+c/5bO6r/b/pdXPt0uL19zvfypQ9VKl5qKyUbvGd7Wi3En4MkKUHGh3B9xJnz5xlfaH7z237Q/PPV/9QLlCDw+wQa9NxGYEplMPSbGAo+Fq2dH6dirbS6buIS8w5GYmVH62hhHD9QTDxL4gEXOk8s0bLA7sYcWE0Od+n6msHcfzcFyRKde19cW21cvfq795kv/rP3FuT9pa3dWZS2X9r1ebzaQuxeKbOc2Qs1ueqz0qRF5WLbou5BlJMZ4vZInRiIZ2mhILq6R88EOVy/RYZ9YHkEaivDKF7q7HcOudm7lSvvd1z7f/rvnfrt9/9prOYBZVnLqc5BwUPcERPDOAGpIsasIPIG9dWetfe3iv21/cur/rsuLZ70P+gTr7c2F7AjH4R0Cqe8cIiNI+trl0M1PHKZGqfIpGoF7mN5M/IieCS2OfUIOz5LwhWGyKMnZPkP3/eSdCV2izrTzN0+133nlX7U/PvU7benWDT9seavq5bi6OWxXrOF0XKFWjSxLauQmnAMEBxWkwO/WtR6plWxfzFY2rhYX1gTMZwSDrgsUjTMmJC5Pp3Uv+Z0rL7Zf11nySxe+40tvwHXy/sBnLO4U3jmLEVDRO6gkGlK0ed1Lfqn90Wv/l/bq9a+7kOarUNlJ91awzQGPssXRmh0BiXjYe35Dg5oJhNt+FIXmyRElvxH1wvKAYWzajnRs2jLZ8Zaxnjalh040i995dtR9Ei+Pbm57Qd7S67Nn/0P7o1O/1ZbWrg8Lklq9mfUiJtsUnjyhjcDVlKv4REa4NkRNBKlBcog1dMqOeMgztAb2yaHoXS9VGOH0vszsi8kvdIVbGNxvL8z5ybl2aul8+80X/6h94dw34wM73Qby9wDvrMV4FzDJKJ3uKNurN77W/uDU/0kLks8BU6Q+yd6cCcZuxRY7UU12+87P/drYjjedHQuFDlx8hAv3pas1GEbP+jGks4I703iiAd+6EAXRAUIYLUTG3b8wYhCO/C3Vy5f5on/p/Kfb7776G+3KyiUvSO6LLI/sm1QvDOZSFDwUpqTHFe/o4Q4HBXzn0hIR5JEd7vHQRQZ19MoGOHLe7+hH3PJsLQrfuiMZ7O8ibWyYDgFqUL5vNal7ySurN9q/f/Xz7fO6n7QIduR0aKZuD+/oxdgnDvWb1GXFed07/tGp/1b993PE52U+Bd5ZwTYH7zrvSDrfXzAMswAZREYML1TPDpREFv12nb0B+B1Gk8UjNRSUB6QxOhNr5LcmNOJFNL9m5C7VgQJFVb0C4PO2NV12ffXSn7fPnPlUW7nFQzDsjB5UvFHIFy3Hpx8LoBaBazjKhzx3+YAj0m4WVejjtfHBhp6u9IY8ReQDEfPGahsb6XUio5Md+GWr1xYKTtUcg/kwMp5Uva5pQf7Oq5/zJeuuPPIeauV8dgDjkb0joS9IgEf3525+z5+f3ly9yi4wL21nBdscWNrZ4Vk03h/24R1nX8iFYd+mgaEEmR5ZD8NX86tsMmk6zXHz8g5HKfJdHxkRTHePTtHgowe5x2V5vVkoWZC659aC/PrlL7XbWtFcevV6vVHouQH2K7DVXruKidbz9MTuMqVjsA5yki695FnyxM3QeghAHeFD7cwPNz5CtxUNPPYIiWQAcN/NQ5xLK4vtt17+bPv+4ikf7GMT35HbDt7xi5EyqCYuCgO+qsY95Lev/J6GOraaB11FA7lvYNfYWyZG0bKtncmOZYKwo42LF+cwPRnQoLGrjbMzhYnlM1ynZ+IIKzv0fXp0fafc+eaJgyF6nSGIwzaRKX6XoRZcsl7TQevTpz/VXrvxsh/xG9B5Q7Uigu6x/MqnLxsVLDENXNMVJ/nhktiExwahiOscyQlK9EpYsrLpfKLHC3D0tu0ufOEeFz7U1nZM8KvHhT1koRPz1K6pdubG5fbbL39el/e63zZ/5/PqHb0Yh+KypTCu7O62fOtm+86VP2gXdLnKvYiLrYL5UuQNQHYVO8seTaF5h3jHJgbvRF0fsR/7mdt8jYkQbffaOCb4EDpgBwl0oGOjdPBovCaLnZgXO3A7an7eptumRpAto5efsi6fa39x4dP+5ozj1avHff8QX2yTS+LwojINPDGldhoTk/1HlpxcUxFsA3n0LSu69aIPuWu6FjQ6ABvqPLQteGXb/sIPOKI6OKBRNtVxzz0/NdO+d+WV9vmz39IC5WDfYxxZ2AzekYuRtClYSpURQPEoDk9UTy99r33l/L9ty2uL2XES8aLYQdE2h+w0eVHf70mFy75ng6BPlkB45jtaWIXbkHhj+ny+Rj+aLAwzjl8gOjBHEzs0xzXYhA6HKaCxGr1two+AAZkvX/xi++blr2Ry2YY0qr9/GPklIJ+l1ftzRGKAbx+SoO+yBujw0UG9xoRjEexwRs1wlGd4Uew6ydtj5FLYiJX2oA/dzeyiGREqf9V/7ty32/evna64d1YrPLyjgHR7+ZI6o1pkvSBajFznP3v1cyrYl1yoLhP8fiHTO961ZecKuXtRwCcW0/p4TNcAH31w9baowUhcG/Ip+fIYe6Kv9xms0y0iSnTMsVx4IxsIUhO+wbRye7l97uwftcvLF8UK/Y3Vq+vRy16h+GctxH1isj/L0BxpxSgdy0YOJV6OGxn4FjJimnGcgSKHIxq4bYQeMQYA9rTVxvXpfsAHPWRRgrNbVxNX2xfOf7ct3151fL1W2NkM3nGLkZKww3gFmDRVLAqiF4WZ0PX94tq59p3Lf9hWddnqy1WLbFWu7cC7SB7xoV4+xxcFIWXSmBDaMMyOYutecrEBXvIIIl02rG9I79BB6YV4ogkfJjQ2RYp0jvTjTxPh9QmZuKPD5da0LldPLb2qy/tvRsP2qK2d3QdIH7/CsGC32gxxwIOBgGUD1pAAMj03L5DBCEKRj7oJNUYXJfqyAYgE7tsYK4106L21DELB7cMC8oBIhGMTAfXfvfpyO33jroNXlDaEd9RiJM2aygM2WoiuUj6jqr0wuXu+vXD9yzo7ftEF40YuOpsXbCsY18qOi5/4NOrQMM/HF5koPL1Mz7g/Wu+XO/0rWFxu2abpmOuTJZAvV5uRsXDuS+1D+OjL12y4hI6oJxa2kK94gZQgdPQtr82XL3yhXVm5bDOu2X2CfWt7C59qXvzOveoFqKc2DoUhTiVHLSAy7nl2sBnkBK6ncjUbHyb2S2D4av0jE6T7AdnjMdCAOriG0Wq3ZXSoFzqONVzTpXN++Vr75pWX2q366yHbVb8ZvGMWI4kmzewCei8qV8cMdRp4gobE2ZE/fXrh+ldUaArGE0ZJbVGwrSCe492zgo6NfWrMDnFjIYbXJ44nA5NEQ4cNgiw0BIUPC6d0YqPzPTBifvmMP+FqZlsQmeDJlaM20qE7DnCLdj7o7nZh5Xx77ur3LOMJZuf3DniwTyWFHfuULU9WfFmCBl4aGhBTr4MPYuXeeTB00F3LXtKHbQOdi6xt4L/8unbjzcL4TkTQ4sPkiAw26dVM50sUd7QYX9bB64bt+2HSFvV6RyzGFII+u4+xc3aBUzEXWTTLUVz1XH7N7J7z1+QuLb9i+f5Z2v1Anzz4TDxqxrGbWIYdWVtkPLHVw2KieZJbXrHAED4sztIMhI6s+WWPjaUwxtvE8CGkQqVbLUKyzhiedZERGT3e8rO8drM9f+2Ztqp7IerkSXwf4FpV3FmEuPPGNh1DyZpZ8gNuOhsB8oQLDxlrlox610YtuWI5ssaUoHNEH0bphgAtts3SNnNDOj0W7Ajv0cJl4wO7Xq9dv6CD/VnrJX5LbAg/9IuR1ChrUgzmQlOgyttFd6XVuBSBD10Ck7tm2kUtxDM3nhc3ci6cJe4NegzZT7HlGGonmJa3Y6J5MprNZVDRS69PGO94ZNgMgJxo4m2cZ+xkWDR0qrd9bYZaIc8lm9iMoSPqcdfT4Jaws8tn2tXVSzEpyAS9N0DFccdhnaE0ZqiNWR4SU8bZhG89enIT3TIMoaFjyaqNNtTZl7+0yhM89c8Yu/ZnlaLbUNmMkvXW+4yM4zKfOYYYfzu62r55+WVR0ZdEhDeEH9rFSI1cNG1TBCCTy/WowpnnilKdoBQRLgTfi2kqnL75TFu7nc/R3Kx/b+BLXOk5Bu4p1HmSi45Py6gl3sTUfdE7RHD1vv+AhxT6wtDo+n0ROSHzRnhHPVlMQQs9IPaJLTZEgVHyXdlxhxyawFFognHPeGn5kmMFHPs9Ana6/74/HJew+ATMTFpu4DSkoptc0IGCFaIE0K0OnZK1DcTCUMcA/aKx1YCF631hmviiIeO6iO571e4AfsfpxmTXdPX16tLFtlRfKUR3M/ihXIxJm/KDZws40Sqix0hVQb3DhIeFfP8ckNHudvrGt9vS2lUXEIqfrN0r4EPq9mOv5dc2RzE5+h6X3PghhXoeiTsmi4zJgBsrfQQUX/IMbyRb/gcddjFWQ49M5NEFsOPPRbEJrXThDzFRJ9GRXVy75i8C9Et62j0DsXQ/Y3HFJxC63uoJKXy7gshbvRfNmE63FwHkiwYYF5Sfnic08gTrecYGICo0xqb3rnuNDeQZpUYeesOv6lxcXmwvLJ6XnmS3mFc/dIuRVJyni9ApNSF6IYpPFV1gV49CRDcFjAwFYqdeXT3frq9dsZ0UH4l7A+94NfuII9vKAJ/xayI7puTNpscvsUIouvNQY0s/mhShJE+RiPuuPCMRmeRq0dgoCS/EUsiiNDVyxkCwKcxyWgDydXHlwugbOfdRKymVD5u0L+diCg/S8Gmx+IBXeHyGPwJkYsdmGCHTx+AIxFlBdEqhfCJHXSCUjvioZZGhU3UpffLvMY0vRMZ8weTa2rKuvC5Zbqta/dAtRueZEnicYlApNQpBgQq3tK/f6aOblFPEXlJkVnWJuriWo5ebK3pvYJfE4B0DKl/YKh7Nz1HHYvKw8DyyZxO6c8nIPfeU1jGx7oGEZ8K9Pk/66NckEd9zoU8I63a/atiTbLiJOz6jb7DxXe2SLlV5iNPrdc+geG1ar/E8vX806DHB95UD1+0d8Kd39GMnTSMjMLHJQDLGIXWlu30KNPClp3pmCCb4+MKOqkPf97YeVlwSZMFlDpolOhYEKhq/mHBzbaVdXs4T1XfMYiSNFJisk9T4QvQYnvYkL3b4MIG9Ge0484VkIlPY2+3GWo5enlzWuTdgpzsU7Mp3NzG+A/uCcBzIj42tbFHRBp1st86ThWmx2iTP+FXDvnXV7ENNCgyhJ9/4HG8jvW5XdOnxedvi6nXdY+eJ6v0BHrqvgHPRwLmUz8TR81Re6vAf7b4/UdBYA+KlVv3yFWN+MMaYXPTu8r2RQl+I6DgmHDHqOvYZDbaurWjwx/cnnxP7wGX58Fe0qq/rnhFwPTeBH5rF2AuRnZCRJ4KJbJI8LLDsFOEhmR9O4RTLMthjh91uy7eWRN/6UmIzQMP3UFiTXbyZZgwQjThxDcPk+IdsPRBoYXoL3uVzdiq+cPPxJQFPRNimIlO47aePAq1oxUe/64Qa2qBnqlAJmCdnK6oVX4z2ZL0PcBhlNx7k33EJL589T4NjYd9YAIJb2MRLN24D8eDQzYdmvdEWunOQIC9s2QcjyCRtO2N8bdFGObXzyHLweff6utfbJ4VwN4UfisVIHiSRqc5WeC+QCwBPvXDLiZ6dBoeNLzxKM3KwBxnv5NueYH6I4ULeG6CB90SYOKAEp8ctfkTFvr/0rTGzoeJmE/3YM+4YxacvXjYC62JDdMe8Pk90UMNG7KFSdsgTDD760Yh2gsS0ZSw/6CGzq93U/WL/3Zf7gUTU44p9u/AmtI6TJzE5RzXOiEjwsg11XTeUER759DEXfXT7AWd9nmhBEMXGojfwCzPRPormbw+hJ5txFE6XIchtAAtvW6iyOKmkQtKVLEWupFOMktaljItkFptxmeyYLIrQvUOQV/NlV3m6V4h37PPCCtuy7z4+iMdyIlqGPBxK6CNAnliRDd38suFJgk16jXkNMn0kJ+iCDzGADzZHOrEhXPRcsjGOTCaocOtFcu32LdkZv5G7N4jP1Ml+9Lab4mWgNuzPxGLZLmM5sx1vRRl5esdrxPLdl0koOc/wLdNxfGnQazvw0RTdfz3TbdvGetwmNLRPMXqW28HbdjE6N7ekEkiBGI4uDzQwCpFiaGiR8K3jPnrGEKBXy06EF9s7KdpGgI94Srz2yQab+KjY4koyYzyIg45HiSv8bhV9trHFzu+ThRcQfeFlqE9QQ6dJB+ecnbvP2DB5iCkWxbeeRiXAvbDlkTPx/oCseLyBDcegTfD4NI5b+ww93lIPSwiJDLyKpefsPGHW2BZKGwJ0+KaCi2w6Ql2PAVA28AMdNvLqE6s3sddVTE0bYtsG3paLMTVJ0XsJgV48T25LqAm3RBXXIoZMmt6so+Yv+6pRTHpPbDXb1et+IRaItHyyfyomHkjkjKKY/OCkGnGIB6fbiK7kODjAZ2yaMNMRygRFI5qjWjlP8fpDjrDB0S079JZny4LAF2LFNw889J6H+ZHGqqXuF/DCCwv4SPaCwvFFLn5ibMmKqRo5pXiSMQ2B6k2nT5dWC7/nQS9GchN/wKv2KBtE09YxjulxTTDEgQw+adZDh55tp20Pb8vF2NMIUAVtU63hW/Z5mlWydSkzylkF1Taa7FQ/VCsZChfc33JBxILYHU2z+4PsBGwOj7sB9QNuEM5bbZhIBhEYIKpJQefJKBp4XxTOwRSAXM19XZ4m4xsx4ZQwv5WUCWwdRLq8eo/tJ0r49AEMfrjusTGK4X4AOyz22B4WiGzyTRXHPfhk2/dp8oTsuEDorEungfmxlRhTy9GCiopzq48vwFGFkYVrqk2Z2OdYB/aPmlEUIyjofgUsbHAG47qbwA4X4+DpLQfHPWDZ9s+6GJBTdkiS7sUFZTO6uc8oOvTI6g1DuM9W6Io4sokIAvcPMhWbZabHasv4IRYz4hu641QbzxMwv9+Wie6FRit5oGdK1/M0V2MOXIayOeQLKYzX+YSWz/REQx6eGvLRq7ixN+jcB5B/DKrXRrHiwzF2ujahUoby7g6Z0L2VLmRiHfjmRMbB8i7b2HQdkGUkOqK5msiigJ/Si0FNLRt6DpSqvIjdJj6RLTHJx6avLmwf/taw5WJkR/Oy1b8CiKfuMWmNjtoeqgsOnyIymcbzdJHVRgsA+ZFAjr7oxA64bWqLWN/J9wqulO3Fv3H5sGV8lu11cQUb5Ed5QgVHH9l8XmoZ6G6IRsbylScjiwmnhz7YRs4SsYvAqD7FLx8mY2PMJlj0o9dzuHeQNalm4eHInmWPqwl+X2a9v1EtIEYnfJELh54FUPKl6bNip9uGrQhnq5GGuRwXHzFrRdMEgJXIG1kkLBt7tomRrgNmPnaLZ7libgEbL8ZSxKgN78TSGwQ8kJKTrXEuTYlDAydLYiXnYggPyfzIMEKpcKrSgVyK14+geRXP4rF2r2A7mkzuK277xq53JnwLOga7RwTcbPREMM9CAdNFKd1som/coplMcEzHJzJSSo26TtcK3YuJGIsOzVzIXQ/cXOSCRx+f4QDd9k6AWJl6vj/DD0T5Sp7xE6ozC97Jzq24lWd0ISIdQcfIljjFj59oxj966kwSzcPoQipCevzQaRN7asX3n5oJYRsM2e4DHdHc4G4NGy9GO2iN/+zE75/E4VsHWCf0FD6+/BfvLjIcklVPMcaSVRe600AGiA6524YRkaEhSy7C/fjeumkiSfTWjoq2EfC1p927p2RT+gRGTLIVn8Raftzi1TiOFdN4noSQPPnZwtiDProEj4XkKb0ED8u4bThPVGssVuoUm0MNTQ9um0U335Tia5sYwPNv3eIwkPh3BvjgvzqhLtQbfPZ9kjyD0ye/yHAA8HQEh+faMcw4EXW8bJqIrZx5jeMYG4NP+MHDV4dfveO3zrDIoKs20hn2SMn2KPTqPtDZBsj6ddAV+T8V/DV82X7ToZtNOsGgOhmSdfJQ1A/ClbBJTtfkrm8L2TsxRy4l3212XQA9cFyu3VlZl+v4kX8rQG63dtb07tmyhZ+yKzf2iRzjqAiLT2p9d57mdT3yNWVMhoYhT8TIjC+inufoABA9Rl2G+BibDw2+bWShdu46fcth405b1WLkPxEzBlzzHQC6mJ+pA719S1WdYOQ31oSD1P60DMrG1RdO3+V5dRXEvS+MxY+ptodA1wNGNmzTziLW6xUWmy7NNi37UHjFtP6glrYdbLgYXXRFMTe5v03u5r+0ciubUN8sqNzU8+qBshCFO3noUBKLpZ1goYjXNpEJF+LiuQiiwCg8/Ey0vGIoL27eb7fl2zdLKZDJvDVkcuX/Q85P8M9ZMRHryYNAJGcv2dq73cNPHD1PR8O780MxJDKNorJJnrKBzYo91Y2NkU9GadC6OP49mYprfjkbJqN0+6Jd4e8/bTS6OwF0uYrYO7HHT0256uoTNj5ly1ucpRtyY9NxmBX4yLMZjtU2JWiKcfmxvdiInglu4I7BuqJUbxslBn9QsU5g2Mc46DGB1gvJkfTmsPFixLY2C1Mn2szE3na7rTmoNxN6+s6iMPvAue7g88hfTccBl7QnOIQRxE+8REcmOzWXOObaDkNGnW9xAY+dWYS9XHfazVuL677itZMJ1icm/8tjYeqQdkz+E68ntXq6fIxgaZG4VEosJMNr9PGFeMiXftcjvtfleZv4yy73XuDYsQ38pDa55JMIBPspm8jgx+TQ8z8+il8t8vGZJ6/Q8HenXVu7YTqQBb49UCs+9tk/s6CrrknZTA3wnP2ATNkafAkxXnwPpEEOHgOl4xgrVqPCMwmMO2frIR/ftlFxwPM/u3FAoQE9zwz5kavoIQMtMVf9bBBm1+/+tga0XweeFIr64MzDbW7igBLLr1u9WZBYEyRYklKv4fiZhCOS/fopW4l7kx00TDbJ+ILJulU+4TyV8xgWJOjjYBUVyoVkMd7Q0V5nx4J7WYz0+6YOt6ndc7JpwxWXo0HSzTbjzmB+TRbeZmNTg9GOZPv6PA0Ve3WC0GOeOgm3gZ5noH98kfqKp9a5YP2gkb/ILxtwoKnd0gy/zK/EhQFrWyD3XqsTs0dUqykR4STfWCKeMqcVQX2Mj398YUKXB/LgDELuEUtHkIUoaZQgRrmg9g+GePimnnRio98jxmdPs889oM/VfN5pSmwJ/Nm3fRFn528NGy5GG9De4n/iH5h5SEcy7huHaN4QYCWhjcpv0wqc5EDh9AUEPXwP/IITknAx86AmuC9vyw47wDarKDn+Bsemd6z6Pvlvri2pLYqPKVGstzV0Ofr9U0e0IA86um4zfkc+xUisjKHjXyOj0O2zt+RZTL1HecIDx0byEN268Hqe6ICio940oeW/xzLUy9zY9Fb86POOTuZBfgvn4nL+5GyngL1eq8Mzh9qB6YWkg91IOI/hF8UlByfxEQQ8iXkMsj5P72cb6rGmHx1Qyk7n0+OjL0QNJR0d0THVFyIy0THVcYZX8ughSEyOA4N+Ix3+NoCH14GLYEd32kNzH2rTHO3vcKmK6fsHtHs66fVyBQjeIurAE/zw+ZrzYINWZJyceaVLT8wcQS3a+XRlzxY6XRgE6Oq5vFy+db0tro79TeMOYFzuwMwRTbCjdpqdZOv2j82Rz8SEnOPxZJGMVdhE1zI087DBUGPaXXlaTJs0hsgjU3wEhHhBw/Ww/meE8HCj6x5dDXz1YbxiR1GNe+xzN89b17lZc2votaLfO7WnPbrnoWhp40qoj72cnexrLM/u3zlZI7H2AxF6nZr6a+QhjNgJHwk28KPH2B/6Q2NseclateuIZgux5RqJDjf4iG4dbJjb+61hw8UY57hp7fj8+3Spul81kbkK6n5gCLqCYuwENHQxe8B2q43p+GQMdJnCratmAyLZYGgQhiMXuLa8jEkO+nqf+NndlnTPeONWfgfnXnNFfmZivh2ffcT3QlyqJix8ks/rfcKFbnTwlx4SeCZGJpdFrCYdD2IH3/ZjZuiDzfIZGn2RbVc2i2t+9f0BEL5hYjtxFC4e99r+a//66Q1e24EXrVp+oXxSi/FBG038Akw4N6EQjEPEv3QtR3MU2Tou4djRC9nkiRFsFN/cEMDDJ57w7N96AnWWwWb5dzjGYj8+YhU5rFIz26BDztz+soctYfPFWIEcmHmgPbj3g35034t5L5AknJr7ULTlCC37maBQk6DDFt1HqUqq395bH5niZVMAjV6k2MjAuPTtuXZo13NUmERKdP64+MryWU+WnudO8u114cHEk/s/2OZ0eR8afh3QXXlCEk+k4TM/8UZ50vU8iZEs4MSObWgimWrd2LZNXt2m/YQDbg3T0YeDLtv05hfP8upzyYg9jdkA2FWui6rXa0tnYpMXSlsAcvHvQXt074PtgbmjbeXWas2vxGEvhWegjX3YtUbJ04a6PUPHkVeHiPVsRFC4bDtn96Fyf5qDEGYjL1XLOzfG0G3TXAu4XjTVw859FLFFA330Y3Mr2HAxjnbmHX/W+Njen2jTOuozppg7hYRFGwXn0Bw0iXSKpLCNVE+QXOs1yDBCNIdDLIVrHHbpQjJnhPVJ5oIWlTCwydu4Cnr+5ittqe4bgZ3kmwmWvE7MPtYenH/SfrrueEz4cU68e0zmRNYyjDTsZ0QLs7UdFMU3PdBtW7LbVF+U5MbIdat9a25eZpc8ZiNfNoWHri2tcD4jXFq92V6+/iqC0pG06NtBt8EB78jsofbuA0/6vyT7Ul10AznQY4+AIHmbWAzQxR/VB7zqxRAF+F0ePkTxbVZoTSPrgMcG+uikmaze9Ua2xwRbvW1K2fqlF59Emhdjy20DGy5GFwyfVeDjc+9rB2cekTnOGCW0DTg293l16Mm6EBWob0zo2SHQQS3NFq+Fw3PLGYREUxDYhUesAH3RbBOfjMPXXBgKbLvyzZnt9M0XdLl6zXn3BbYdpF6xPTsx1z5w4BNtor6N48VBDI4Vd/Fps+gxcKsyQCEet54nXcmkcNalo1kHHBY2S5aQEr4QD6SjHItSushAh9/lEc+ZgmFsRj65MHH4P5fLWYwYQx35bmATyJxKz+eM79//VDsyc6it3NbZsWLMdAhu24JYHRuI359idnvwwTu/KgfVJC866N2u9VQPlPTOfaolzcxXGhAK33rYEJV7WdiuR+mzGfmEl/qhUVpbwoaLEWCH9gl5YPpke3Lfz7TJ3bNEZNp20IMZx1w8AlfvvMTDlCfy2EKMTh5r80tbJtkUShQPgja3I9NtgiKG3SQf++sXYmRRMSqcCaqtZHa3i8un27mll0WXZQntJFdkuiyvJxY+2B7f9wFdfi2LPiEKQvEfnwxzJoDaL6MtYQQh0dQh4R+BUs9k8Z/twLYo3OjmM8BiCODdZsIAkEWPzw5kDB0n0UuIbFRXrwj1DBEkv9IxyBbt1NLZdmH5kiR52JaabQXw3fTiX5M/sffh9uGD77EP+2RfOB41OpHwm6lKjWGlj6eeJ7ERE3rUa4xPJ3scYKzPUGMWoteeABN2az80wITYc3FicbChsXPRwPPQNKSIBb/dTmS3g5H0XeB7EjnqE+09C7+oS7B3yVPGcbsxJFCgy3U7qBMok0cDIQ7cfjSEbx1k6GuMjmXosSGGcRuITfFddEGKIRHbRN9v24Rmm9irplH4wrlk+s7VL/rDfxfa3K0h9UhPnnOT8+0njvxyW5g80lZvr8nChBqO2cZ3PGY8HLQ2yHPAUUGqkGigi17o5AaVFhy0ZLoBQ9HUbA8/jPClNhy4xHP+thEoLcnliw7nli+2Z67yH6BLR3TaVpC5gHzOjj957MM6eD3U1rQazauER1biFbOpz3qaR9hTwfz03Rz0uw31YRvMd46hD7XQgBcLa5CBrwH0DKIPisseE1zs8IJvvPtQT9sONl2MNlqZ0i/MnGgfOPx3Vbx8wXcz42gksFEpnIyL2Ck9UFDoktEwidCQSmowSdYCBYMdF0F4N+V0GDAhoOMnHKyh1OXNV4s0TTh+BC8ufqtdW70oPr6xZSPbAvq2rzPEE/ve1z565GdElS5v8fAXoI/nWBZeMgQXjqiWJ970tu0XZ/LCFVtqKxHRLF94zgTIjdk0Fl2/05me+MRRzq6FDUWfPnjZFJ/Lev4Z6HPXXtAl6+gHjXsdNwPXqRryJ+eOtl84/hNtYXqvFhP+oSM5yjNP1okpsToWy3Q7RUfG/ORlHJ7rAMoYvonSi6z9YMcS+FOeiJofXeaS85dc3zf4Q8P6jAXxEYVeq538scWmixEYLxg76MmFT+py9ZNt9Q6XX+yU9Q7sX9v0wYZg1BMqRx3igtttOC9rgJhjefrsmCRpMF0gesctry0vX7ZBF3uYzGpxAtEKtosJwHx6yRDTzbXr7YVr+aegttkFt4FeJ5dFKh849DfaI3ue1ll2TYReamyl9bgcfeUJx+rCnRtxOnagdIxFfqRXNlFiZEOJfbAJ37iw0u2Xt7ZBMy1yppd21/WcEslPHkWZ0GX49xdf0b3ja16c3gvUIYFsCvB7Xbmief+BJ9t79z8eG+UIjz7wVKwb5emh5ZEO13xjGcGTgZGNMRyRwaa2sQGfHEIHrIMEcflWgXFaZGJlmN8aoI8f18q2toYtFyPgnRnL/vD/J47+F+24LlfXbo8WZC98wi2npgvn7UQqUeKCTzIg2KZTQ9sWrBd+ClJgO+GloGUTlnt0pFT8WLRQABSb8IsUFgzRPAF0tNfB5oXr39I4uuM5bgVDrcrR0ZmT7ceP/EKbn1oYLnt7LN0vNOP4pzPOhvxixyYZ+4UceUISVnmaX3q8IXnCFbdD6oHN0i1ZW68JaJ4p0Q+uXjxU8NMnM7TLK1f9IIe/4shiin2i3QzMLzkMTk9Mtb9x5Mfaoen91nNsNGyUrwB4et6wk+cYn65iS09HbsWFDE96yS06NMuKN/InsB066KglM7bWqR476Ksrfcb4BYexNWy7GIfCyhY36IdnH28/c+K/aodnHm+3/PPuueH2hCWKCssTiWQrKScs3BKi++irgRNwGKQEV+Pyhz6IE0QevgZ9UiDb9dxMR8fMyLsG6otuPmOB+fYtIftETm/1ryw+087ceGn95HJQWwO6doVJvd6//8fbxw//fJvaNeNLMD+okhy+eUFy3LA6rpjGF4ZzUyNWsNGlHBbs1fq2WXR/s2bgguOXwNTE8xnRFPKLrG2qoRVdCwlERwZ1k2qsxv7nQPP8tVfa9bX6p6DYkWDf95tBl8UVc+vJhYfa33rwb7TZiWnH53jKV2nYv8foVZ9Yi09nuodueZaQM6xl7BMciA7NfPaPd0TPI3LWKVruKaFrXHiPs+uEry008MHf5rCjM2OfjLKt9+32yN4fb588/l+2/dMPtFWdIbtcBGpREoTlabKhihCiH60TbMXmQAVdLhMyExGi+ZZXz7t0+9OrbAO2qY07bfnLhlISIRO4a5hfuBUlkpv/Xf4bzisr59s3Ln82+fOqGmy3INmRyHXZSR3xP3H0l9qHD/2UaBM+e7AAcghgYRGf3oRgPGPnAc1yAZNFHyYGY21TK+SzUK0oOlt6y4CyQbQMQvdPn2qMzUyc1DYi0GoRwxDREj0wS2T76tKZ9tqNsx71enlSbwO9rtjjwPcTR97X/tYDP2k/5EKPj9QTeY0hMIBmK8AoZitIDpEsxNgHUrvg4zpZiNFB1yr1NNpzLWzJo1MxeRsaiql/+H6DYxMxb7aGbRcjkMkl4d0cmQUK+PGFn2ofO/JP2r7JIz5DQiOC/jkWYwfiQGGp90IE93FKr8hmPmiCiscR/TbX5N2MkuhP6EkoNm1iBBCwJz50TyZwBmr+JkzFBYmYUDGFIiEowi7/dFrGfMb0zJWvtlM3XmgTu/mzqHrSh3/vsY2BCLoc9WLx7ZnapyP+P2gfPviTMs//sefPtIhEVVAQnrPy68frGOkxgVasQL+/88Qx4Cs9yeQzs+yjSIx010020V378nlHeRMDIt5fHVy38lt6rq2UuhR14ut/F5cvt+9eeyH/DKe4W9Wpg+eWnND7MrdNtJ8/8bH2dx/6pK4mpuRbNhx3bAolDMWV3OILfGCkCaDt0gG5HxP8OaKVIgtqljY9Tzj9PrXbtbh4XpSmMuz6xA+RKwzPKAM/BkY2lpGtCmlLGGlvA6NisMP1lpcPHf619ksn/2t/IYCHFK5bJcHbQUDjpYxy6ZGxg3SfZNCiwJk0elsgSXgBmIhO9IS6j83Ss3yEfNMMWjTkga6LPLjVBhsIRJ8P7c8uv9K+dvGzuj8ePSnsC20r6LIdZ5JNT8y2X3vkv2g/fexvtrmJ+Uxwx4K/xCLh6q0aXI1Xz9PxFb1coMY2OQgrz9Ev+Z4nEuabns5Y911gS3pbxw66vWD4sk2PgN3ta5e+rXvHUx6h4xr3ILeA8asJ/gHRpObYr5z8ePsnj/9CO6AD2a1b1F0eONDgF7vSI6rBv/2IEmJPLzE4VuKBACNMDxHUG5u8QpM/8Ior9qIHnRfgqxpw7JdDtgMufcvj25a3hol/Kih8S7DhsucABbg6PPtoOzz9uC9Xr66d1VlyRUWbdBD4t6SPGvQ19hEjmIFk6H1kqVSVkGni7SY5vTmDjo77kpNAigyfaIDIssGH+aYTTmES9EEFfQ0Hm2M+bVO066tX25HZB9uRmQci0osg6HXYCDJp5LFkOv7E3ne1hamD7cbq9XZl9bLoPPSYlAL1ld8ymViJHaeg9Izif7TD8QN1pIseQKjr86TvR33hZZP8wbuM9W0TDNnEZjrv0otPcOnpKuDaKv8M55bu/R5t0/UNJOjbgbPqtbK5eD45f7Qdmd7frt+6ads3NbcmyKdyImE6Nr0OUi8bmTeEnVp2+iiezJvowTSncHcDrqY+2+h7DBu8zohWkY7J2oDzOerSrdX29MLR9pFDD2oBcyUximEcdrwYsU7CSVqhVCTcQx6YOdke3PMh3UMe1038xXZ1lXsHPurmrxcSFH3CZCFSQqYAzKToaeDZg9Gi4c+6ELu+BSQq+eJDy05BQi9irBZNNCLXF3D04UArm8QgngFd3ePdWFv0B/ePaBHNTvKnZPa0s0lmP6NaASyOB+Yebif3PNpmds+1izcvtGtr13Q2mDQvuUneOuDdDrnEjvmMip5cXUHTnSthYkN52pxpqT0TyjXFpnVj2yqWC41es8n0jiMRfuxbHpIInLlOK58pvZ7e/yhaA4zXYCNILsQWe4FdqtXh9tS+B3X1tU9z62Y7f3PRskxoXzaO10fDnK1qbqk5D97IkLdenYdC9mefi7xDHxYqE6b4YOmRjRXwvo+GuWgGfWqydOuWF+NHD518sxbjCIbCqcc5vwQwM7mnHZ97VzuksyR/7X5FC/LGrStKY6rkCIBiAOPJYktjxyearrV9oIHghEg45SBxWH0CJvnwLYjdkseI3YJi14i0haK3Lg5BdtpYXAgKp5gXV860+cl97YH5R1VIvk0THSC5bQ7jteqyjPfpiP/Inifb4ZmjmlS324XlC21ZVxdcHpN7JNfnCZA7dEylDupD8Ta5hg+z54lsSqz9pdavNpBngkZqVHOTJGeOZSGmZ4hefAaHTn58xe21pXPtsT0PtkOz+50rB65MesSisxG4Vpr85DvUSq89U7Ptsb0n2sM6U/IF9fO6P11co1aTGhPMWBw9KpPDs91QzbCEwulnyWGMnXpuEB3I6OWBG5IcAMBtmvlUByj/YDQHLjPgF137clmL8V0+M74FixFwsH2S6cUZUgRNsuPtoT0f0ET7sL8udXH5ZQXDI2/HGF2l05NN4iYbHxaFXryzDAFrRUfJeDIJXCzjanQS6DYGvsAxCvWli0eiedWXOjR4wuHjhx2NLfI8tfRSe3TPu/wHxJ68evdJlsJvDr1WHQewwcI+Nv9Ae2Lfu3Rl8agX5bmlM7rU568Y8sAgiwYdbKRniDXnyVgv87WlN61y81h6jHpumezC1dsktJLz2Iawh0/2AGfSqkexY7FErautbU205TsrOtsvtvftf6pNTfDTGqlRr8NW9SIOn41sT3J68/AM4Oz49L6TWujHPT5784rm1qowdHBT9VJoxG5rdMZtEkpwGJLloZ3rgF75ixIt8oNOYbTUrmSsa3OM9O4a1Gx3u6kY+2Lkf1puthh1r1qz5D6hF7dPUKAX+/adtba4eqE9d/XP2ncv/2m7vHravzGzRuNbKQrKYaNKcxLRJfGYCw37HMm6fC8YReHowwhydkIG/mK1B+h0e7Ho4ovgOetiRrY/MbOO5WDl38U9MPt4+988+V/7rOaPKNBR226CjcMgi++KyJ715n/kn1061b555evtu1e+pXvwq/bLXzTcyhMf6fZFgBY5geWKgxbaWEwkiC9iRbFqHnkoMCUjlCnPOoDfLwFdG0wMNYpHpCIPXQggPB9d2WH72eMfbb/28C94QkZLL9nYab1cH2JAlB609FZ1wLq0fK195dLz7asXX2jnV66pfmue+Lckaz/2CCTfwHjcarhw3HESjZIpHMi8GOeDoayxGifGcXkAGR5GXVy52f7Og+9p/+VTP+4YpycmS2I9vOHFCLi4ehGXd0TBeME5ul1eOd1eXfx6O7v8fX/3k5+5WNXCvKV7stsqri+fXLYkm8S0S2Tz9q7b/hI3D4j4ScW1O6vtDk/ZMC5p97rvymVkJpZDkc3hjAeRucyYy2Gzxag4yaKD8dJHHjke23/s0M+3X33oP28zEzNvaEFi3jXbpF6rmlRntDBfvP6Czsqv+d92L9+66RhUKV/u9PCwZCu+VFKnuOCv6oCHHRbzqpJHihLAQ3DCseteFZp4PrDZjLYSjFQmZhzBjy/7s3S2XLLhwftP+Jr87Z2cb3/34Z9tP3nsQ8lTrdfrngBnUtmsVvw41qmli+2FxXPtlRsXdRmrhak5xcQnb9dK4omdpi1zgFjgGccSEnGXA39oGTuEbG0PXfHEyEKG0w86yLOFsqtdXV1uP3f88fa/fuT9Orje1hUjk/D18KYsRiAJJui7YaPiI7e0ekVHMv43/JIXWiCpGMOehly+cV+6qsm4fPuGf1Lxxq1r7frKlXZd96VXly/qskiLW4uUS+JbbU0TbcYPRTzJsEgBZds7BLvxkDkGTS0Y/iLjuC0YPjb4QsDPHv/b7RPH/mab8W/KisOOUev4TqHLO8IEZNjIxpom13Vd+t1UDcA9wQZ/KCdWLvG4FOJS96buQW/eWpIe7Yba9XZl5aquUK55cd8QnYWKjcnd07LAwpNdLWpbHcLIwZGJRayuBWOHHSGFQuBWCrrbMZycP9H+4aO/2J7a95DjBXp+G+W5EfT6IN9tdNjIBv/I9YauMpbWdOD2mVJZYUKyFa3j9GC9uQKILJguUDmpGfrEHAh3Q2rUvbEAD0zPtWNze7zffJ+7Abxpi/Fu6BNlY/NJbac7YzPgjMqZdUkL8Orqef8d4qkbz7czN19sF26+5oU6NTHnBURhuNLzkVC645ewfUKxNa5C+7LDoRdfNOLlDD+1a7b94gO/1j5+9OfF4aVpir3K917zco3Q2bBWAPTYfyPAz1vcpF5rN9u5mxd0Fnm1vXT9VZ2Bz7cLK5d9QOQAM6GXryz0cs1Q5vJTWKpHrHQac4Uhlhdm4fD7ZSAL4RHdF/9nj/1ye2TvCZ+1gZ3eb28EW82tCosIQvghgrdsMW4E/Qjnaq1zu30I6yVsxFgWglEfifnBZb7K9tLit3XZ8i0vzvPLr1ljyn8cLQT32fhoCbCF5rAcX6hdrkshjww/yfirD/7j9v6DHxsmGBOkT5I3unCAYdIRgOMZh2FZGIKX7CYAf4hLYnxRg//Nf2rpTHvu2ouq18vt+9de0b3qou5ruLLIouzgWmBDuqkD/iqGwuVgjM+Q++3b7T0Lj7X//ZP/ads7Pe/LSs4Ob0mtcDoG60c/OHDltsn3r3QxvhmwcdFHeH/AAazpTMBCPLX0fPvWpS+0F288ozPpso/8lMcTRlguv7CtIlEnejrowrEIiTGC+OBygw/vf+mBv98+dOgTka/Ytiv6XxVsXCtSIJPE5r7CXFy5rlqdbS9cf7l98fzXdIVx0Q9fqEBKkoUmo8o/NTO5cOi8wNMy5sWC/MCBJ9r/6pGfbSfmDg8xjcf3g67XDxp+6BbjOIzOtB4M0M8O/nSo9u+NtWs66n+rfeX8H7XXtDi59/JHJEwG8bMQNW3KJBMJBJwJma+jYQ4ZkN1a2Cv+eca/9cA/bB89+lO5R9WkY1K9HScZ8TgW51LJQS+EPDucuXG+/eWl77SvXvxWO6tFuapzZH8knzMiOthK/agdOF0eFaVW9DnY8et7qzpDPtr+3kM/3Z7YdxItQ6/PEN+PKPxQL8a7oe9Mp8Q+VXf3RLuxuti+ffnP25cu/GE7ffNlUZhA4WV+ZuLYVl/MTLhhjkSWyzfOsHxEwzdpfvb4r7aPHf5pfyl8fEECxMDEfLuA43FOTngd8AAHcr+nO3XjbPv82a+0v7zyPd2XX/fCUmLiSfiuhZgUi9bBdGhUgDPkWnt8z4Pt7z380+3d+x8Wn/tScatefTr22v0owTtqMY7D+E4dpchO12LS+OzSK+0L5z7Vvnnli34Ky1kNKZ8B1Xw0t67n0jCZLNMxTzSeGvLl5on23v0fab/wwH/ajs2dsM++CCON5tt3kjk+50rOiRVgzNcBn7nyYvv901/QveXLzsQPeZwLetTBGBq1Te2oofnQsK2jGAeyIzMH2s8d/1D7meMf0L38+isKgBg6/qMC79jF2KGn54kgPAvEx/e2dOt6+96Vr7ZPn/ltnSVfyQMeOOhYXrjnQ19QNOwhwxyjzwRiMu1uk+3hvU+0Tx7/JV2O/ZjFeKjk+66aWOPxvB2B+FyrDEzrtbu0cq39yekvts+f+6ou+5f9t5qRcxmQrCYwDb3RZSr1jFieSvPk9ieOvkeX+R9tB2cW7CP7JzXtsfyowDt+MXboafad3IHxy4vPtj8+/dvted1TMhl8j5hpg0S1TBOaH+N7QuXhDkd6f81OYnzGNText33y2C9potVlK6cDQZ9kb3e4uz5D7fTisvzLF77dfueVz7YLy1fapM5qXO72e27qRCGGqwq92HaTXJlQSZYoND5D5ovgv3z8I+19Bx/JWbLXi4OYevz/KCzKH5nF2GF8x4Kz4/nj4Zu6H2JBfuXi59rK7WUvOkOX9Ub4oFt8oHAmIA+N+GyNe6MPHvxY+5kTv9JOzj3U+GYQE48Z2O9RM9MwOWbrbQbj9aJW/YDynSsvtP/wyufaC9dfE0d80bjE9/esNeZAFa3xhVg4sur8gE18vi3DfzL+5RMfbj934sfa/ql5xGUjvvWWFLox9Hau1xuB+/6i+A8rZEKMdiovJhmfqz2892nRJtprSy/pDMAfFHN/6TfCvGtciwnwQpRNMzNJ0OOvL07fPNVeWHxO96Qrbc/k3rZ3cp9uMcd0BePxdHg7Tbbx+Lhi4KxGvY7NHWqP7X2gXVlZVL0uIpm4VQ8WI9t+9jOI17+CZlm96GFzv84B7PvXz7ZXrl/U2XaiHZre6x+p6v6RQ7WPx+Oy33cA/MidGcdhfKfmF8R5OrrSvnHpSzpL/rt2cfmsF5UnguUlK0SimmYc3TOhVEURtcjg2TATM4uOMyT/iv3E3Mn2hBb7Uwvvag/OPdzm6+jv8tu4h5uC49Qrk/gHA+Oxctaa0IHl0s2r7Q90H/mF89/SQSc/UIYYgq6rej4+8t8Zqk5cOyRV8qFg2OTSX1cUovB55EEtxCf2HW9PLzzYntxzXAfJI/lYxfZ2CHbH/vrB1uxeYMPFCGn8yPN2BArM/mUHvZEj43iuNH8EInMsyN95+f/bFteuZkGaLznYlMVf/cKvWtlgccIiNofmLba5bOULwlOaaIfboZkj7aH5R3QZ+8F2fPYBnS2Rs0KZe/Pr3nN8I7UyVIz9W0fUi+++fubM19qnTn+p/hpfl+S5IudhsxcFT15HB5PUKUDCiYmzJn/6xUMvJOd0tXJ0hr8jPdjetXCyfeTg423vNA/Z1sPbul73AFueGd+KJF8H5LqZm614HXqtkBOenX1v0ItOT+t/xf/l859t//HV/8nffd3NgwqcMHE00fzdVXYUY7u8e4LBUi/B/M0cfjRESKt5ctdUm9el62N7Hm8fOfyx9vCeh9rMxFyb0iXb5inYqN70EsON/dsoO9PhjAWyIbyRiZYa1EDQ68XT1d946Y/bn537liLhuiGXtJaxn+wZFlmoGjlYY7nK0Ngyjg9ZNTYizmphcsb82KFHtSgfbUdm9/vjpCld0lppI8CGayWBqlkcmBu4e7wBvJF63QtscmYkgBq8jYHQ+aOg7EJtq2jAvRauFxuLd7RiwGl/fu5P2qde+y0/1LEfmffEGczHN5OsQx5kEEt4QH/gEx+1KN1zCmm6bN3THt/3pBbnY5poR9o+3V/yPzvmtUBnJ2b9kOmNQupFpIrF7/uv1zhwv8dl5IWbV9q/eeGP2jevvJj7S5lO2vZoz/bmxVH+SD9PffxLbnd29z0aPj216pHne60T7fjc/vbY/JH21L4TOnPuV52mdXCbUZvy7+9M2iZ+8Fi+7hG4FAfQ9n57E2q1FWy4GJkgFPPs0vPt3E3+qUnOFABhjBQ02iDh8VHH+45wkXHpThvtjG4+04Si17jOKhSfF3/mMzuxpy1MHVK/1+NhnzKpsSBjtnIfhUOnR2Bcunwh4A9P/U77ghZl4k4eyRukxh6UX3zCLxgWJZ3wnCkCrocaO55JzQfs5Htg6mA7MHuwHZo82PZP7/eCnNaE46OE3XcmqmbRTjwMGfN3irstN7NrWpd1e9qBaS1sLWoelFhBwKQmv/7nPD3fnUKvr0Fq/NwG95AvL55tv/79P2wvLJ5ukxO6mnA5UqPEKWH8lHo67TMhkUl9OMuTJONQsUF9keeWQIv2Fn+zeVsHrel2WGfNQzN7Vav5tjA5q0U57UXJmZO/22Q+s8h9x+o8eRDFlxdUK/GmFOv8xFQ7MDPb9k/NqV5T62rD/mHsXBLEPdVrJ7DhYuSvy7m/+cLZf9U+f/ZfC58TtRaJN04pa5ACOaYK3D1tVMDQ2Qh3MiMJJmpyQnaMrpY1jhV+TVOTUJNxVrHs9QQ9qjPIyXZo+mQ7PHeiHZw6auUsytzLAKR3T5Msnq1Hw86F5bPtd175jfbMtW85B/OHA1DiBrzonB8SYzRGxCBBX4KJQnTJEyT8aEFT02LhT5rIZ40c9JrSPuGX5JIbEyz27aL7UfOhS4uRf9U9p4PXgekF1eqA7k+Ptgfmjgk/1PZO5QHS+JcS7rVWA5BXvbD1zUsvtn+tBclf3/NklBx7nphnEdiPxl4g1Fp9atNrB46Wxs6R+GKHw21qjL0szFtiUicf1DjAywgHH/yzGDNn0ZDVioOeBcY9Lot2Rgtw79RMO65FfXxuXzuh/sE9C+3k/IIPcNTHi1KFtyXh6oy/GbDhYrx1SzfhmvifPf0/tE+f+ecKlB2X0vAEg0uJ/BK1CuFEExCkBEbKbNEK3jm+BJFe54bfpybbWuimM04zTwgPQ3JZNKm4uISbbyfmHm+P7Ht3e3zP+1S4xyWJn7rYUXyOXO+dTrQ+Kelp3BOduv5S+zcv/ot2/ib/NjsxJqrKCxfSSW4A+uk9YRiUXiSIq2RNRKYmGjplh5+x6EfoW6aRjSW0rTi8oRPfODxn7QdH9HyYPr17RlcV+9ojex5oTy882t698MS6b76wkJx76e+4XsiiowQ4SGHnT09/XfeQn/G+clx5y35sjuaBQN0Qu33iP8PUA73MkQiHFllTBNSCKLLAmIte9KJCH/7WEkVu+LWg7BO+7BElu8g/2SHqtBbnrBbnibmF9vS+w+29C0fb+/cfbdOT+eoevr1fJI8HYKf12gw2Xow6M/IE8bNn/sf2mTP/wpMeyONplDRwAqMAnDDjwhWqg3TCYnhn0QrnbTOSA7pet8HW/Nph2MNnmKkqR0N7EJ0HLAenj7X37P9Y+8TRX2l7pvLLZIBVFOeQqs3E7mbgSSmd8TPt1y5+SfdE/zy6GseyGnF4x3SbydOY/cIin+4VHAHGyb9PiORpUmwaAY8ckNrGBrkHly07FS69kR+ks69SL4E2cxMz7djckfbhg+9uP3P8x71Ye862awvCJLuTSYaurZf8Tc2h33jh0+0zZ7+hS8Dp4lec2vKr8baqDbTo0eUAQ/NiJR4GjNEkXwg8ZDPfkrHRARnpdYp1Yjw2xVn/x+UdoIXKXOeZLrZYdAtT0+1de4+0Tx57tH3kMD+IVXFIvOv0+t0vbPihf35Yd6K9fP2r7aXrX1N57nrCR3KJwoGQTFqSqd1iuaqwb9I9WUTL00XJjAWeYkIvFfvASqdnhMnoIqcdokYBOPMs3rrqr7Y9c/XrbXZyXvcQx30G7Tr9cswTWDuRWDcD5Hpxu9zxuZPt8srF9uqNV2JXfLMs25cVOPmwgENPnrHCFs/IDHzUzMmZCXywSU+DVlIkFB1B2Uc2euLwFo2xY0FFI/Ln0pZvvqxoH19cuapL75fa89deVa0WfJYE0Mz5NPXqddgKzPc7sXGJzBPPV26c92/SjD+A4iznueB5UHo2j270sxCRZaNG4GK4XuxHBiJ1HSB9WqlHnjFUiNCqNkC25Mve07ySYBYqtcdPJJZurSmXxfaVS2fapZXl9uDcXh3wp13uHK5lS3o7qdVmsM1i/JoX467d0xCJVZDEqF4mNcEk+CE9LmXVkwqQyQKLcdcn+eK7EEZcgPy4EVzREXZlq2mcrng2ER4xA1dXL2mSfb1dXD7nJ5J7dZbkgUb/bMzitpnhZkBRkXOR8ajYjs480F7VJeslLUruyxwnD5oqDrtwONq4PjBGtXHuQ545Y3Vd7LhWTALLVJ5VSVfUNjWgDkxmOFv5xB697WS62qZ88PCCGM4uX2rfvfpiW1y96d863TM5Gz3vtLK7A+iTPTubX0PQFZV0n7/GrwLy85PYTGyJizgsKsicAUY5dllwOAJqY3J4g0712ITFKJe2xZct0xwDte3yQM1V+00fKjhvYaKzz1a0g59dZH7xr9N3tWOz8/61t5wqpGP70ij79wJbLsaXrn+9vbj4VZ8FXCA5J04nAmJ/cUooQ/AEjrxqAd1Hwiq8k6Wg1oKPXdm0vVIwlC34sAafyFeRjUcOHD5ny906CrPwTi3xUxLP+F7p6OxJP5TqEww19LYr2vCZHr4FfK1tdmKuPSe7fvLpOMyS7fi3ySHW0TKIZ+jJ0yJ+MU6eqR1iGGGCdhjpRHGUu3OwzRGduNCN37KJPONu1MZ2+azFz288f+219trSeV2S7dFB54AfVAz1EuykVl2mT8iDU3vbmeUrupq4SBRqFZd4Ea2YQMEV05CjKaFZRgo5UKkukM2NHLilK0+PwXFStjz3hCfGu5pkbV+996mgHzgsblAG+Nfrgs6Of3nxbFvWjemJ+T068OTHySxlO6Na7BR2dJk60TSJiVfG+6R0Yg6a0NJzw0zkltE7BalpUWMSrCuOjNWs7wRENJQN+O7usjlAjuxO2rqxhxJeOXMtrd1QDs/6CfED8/xVgM7yBRR2O3B0xIYDfCj4BZ1pL+rM+BqXq9xriTwchXHvWNVC8Tapwew4o8org1F97a/oBo3Rg2Xl4ovAq08iSGx4AcjQBpv0it/8eqDR92Mu+Xe18zcvt2evvdz2TuxpJ+ePxKZs7+QHpLA7LsOtw5wu5eZ0z/jc1dPt+tqKjhnaMxVL5BKjtcfijAVthZsven6YWfebwjOr6CMHfnee0PNL35Wn+b7GMc98vahd5/OC3vdnYg3fpS8frpf4nCVf1eXrydm97fDsnHO2BesJx+4OIblsAp4ANOLEhaKxEweWsC0njIAJMhGPyTNwYKVTIubDotlP6LZasvhlkyKv1zEfpQxMNb+T5MhPJ3XUX7mz0j577vfap179n3zGzJldb+nbxg5gKKrkOTO+Z//7dZbc1/hHL975AGaJvcsaiCv9kAcx0nuQPMHvzhOgHsibxYZxhAI2pDwGlS4TfOQzfnyiL3zgS9oHG435KODSyvX2b1/5k/bF899GQmRikNfqt4LxSYhl6v30wgPt3fsf8kS1unwSNv66NeIgFPjRZFB8oeGTJzyiRSp84yDWR9jE6ENDDrsd9za4NsWIV5T7/jS5FKMhGfsPHZT7729cudD+zUvf1cF5UQfnHLR6Day/Q9hyMbqgJEQQFUhuT/JKgHFMkbJji04O4KDYgI9RQfTCZ8vBK8VEmIY9EYQ7eUiDTuHdJvIadxov7zTbE8lxJM0vXfh0+4NTv6WzZP6l91AwvbYD/HQd7PLd0uNzDzRdRJgeHr6JgBgRw3biNV5xRTY77bZpyYF3zzMQm1KoPIs/yKOrJr7HzpNsyns62yh0wG0TCnxzPLI9PgS/tnqj/fbLn2l/fkEL0vHG11CDLaDLuNeLJ7U/dvBR/8+MfNRhKfeJSzhxVF6mOU7o5CFKJQON/ZkseTkBWNYHNdgWXfrEYkwtdcKuH9ZItqQqNzX01KEfn3CDZwxfOPp6fePyhfavvv+ddnbpug/24/XaKWxzZpRBFSFBODYBxqsM6woWp4wJ0nKgKDnggPkC20TfQaMSG90eNnoiXcdgnZG8SfATHOzYNUsbyRFrHpRMts+d+4P2+bN/oPFt23fBbLMMbAKuAz6JSaIL0/vb43ufVOHrqare5pc8WOJKnBZxUKEztyxjm9GxvIAtstbDhPWK7zjtTF30ba90YyOjrouGuYWjm1ojHx1eXRc9Piq6uLrYfu+1L7YXr51RnuuP+NtBrxWNM+L79j/cjswsNH5pHFr3fXdtgMQmIjWHbvk0ZPqWsesoQq8RW9eOHj3j0eg2ukzmmd+mOg6wGAzf0kXXNjWITOSjzWXzF86fbr/50nPtxq214nd5ZLaHbRZjggASCtsemMZUAsyFICz13S+o2eh5aL5xy0tPHUG7+OA9eGil13UCyFnJskB8JiLriWyb0N2QCXDE4nPDPz//p5pgz8SH/Um/8M3A9pGtxrc2Hpl/rM1P7rE+vsfjxKvtEQsh2r4Q3rYRWq/FUBs0RXM8HhQNvnHo6HWfUACN3cMzYtuxLhBusnRsmE6brm/titdxCjijvXbjYvv9U1/yj1EN9aq2HSCDdRbjzMSk//JiSnXzswVc9TiICYQOGqHYF+EQWeIEwKJeeSLueMNHH8w2wTu59GxpsI9sdJ2OWnJEz5LWgW+b+BEdm8gzZOM8ReQbPH989tX2x2desUavF/1OYMvFiBFeo6CAGjsIopIEgcmUExIv0cLCPBby8Ye56DlIbvCjZx1dq/rbPPhERlT8WMdbyYnOjqWH6ji4xsU3HTaxbY1ocUY0Xja58b68eqn92flP+5fiesF2UjTXo2SQf3jPo+2xvU/4Wy7rYqIxJn9iwrG5ovPgBJ/YkQzdUBs11xE+aVpPOA1Z+tLrn4V1zSFn8ZDhQ3Xs2gRfwIZXuqCpC6gGyJWe4xbEP9zd7auXnm9fvlgHL15VK/qtoNfLD+wk+1NH3+0ntXz5wHW0DZjISaGC8jwwTXkQm2MEgrtenc/lfudTW3W9fgPZW85d8TfYFzX1LBntr8xPrqTCtw5y2ng+iw8Bmm0iLxlysoI2v/3yC+2buo8c5ZiabQeshC0gjjBDy7X6MHAg9F4AyqZiGQL3WNCLRe/cxfcaAqRnmwaFAx2ZQTu4ExLJT9SKjx3seVwxsUkZU2BixoFraAMgrT1/7bvt65e+HMkKYCcFo8CZJLfb3NRce2rfu9r0rhlNiuw+LND8tE1IJoK8BDH4AIRjkx1BBtRXOs6rBBxSxdVrF5XwLaOtbRYveYZL4tyXetD50AsiAwLDIwb2Qz14IMF3ZP/07NfbqzfO+2MQAJ4n2zbgmpbD47ML7d3783upfMPFuRQwfxjy4bvNEo6jSxvVlgUQsr8R1qFyRhm7edrZy15z0XrC6A2Std/sUwxnXkbXc6z64eOoGjMPmf+2D6/8Uq8ra6vtd0+93K6vrKA51GpwuwnE6yaQYDDXm4AiynCOIDhiQyzq7TA90j1weijWUQueZAB36CM5fqRTb30bEA1BOnpoDPBpuprGvHz0rhHKOfrBZ6jdqUulRZ0Vv3D+T9rppVelio2dHb16YZPLnfb0wrvakdmj/o9P+PDLPA0lnxgSG51rBwcZeJYofsjRRxY6dUKHGJHsPfJ+Rc6X7fBQxBq27IMBdjAc3ex2+sj3M0lpGvdIdM7qfBz04uK59gev/aU/Wx2v13Y1G2KXHH8Z8dGDj/vvEBknB2JPTK4NqOMunvvkSUx352mwPB30+PTYi7AsiND52KF1HHlg3CZawBAf+mNjx6Qi99xsU3iu9poO9BfaZ86fwcQg02+tNoMtF2MPp4fmR9P4dDBpsM0FLTqyaJkvGOQVfN/5UPxEkUJg1LLwrOGXxxAsA71siuZXJQ8bWcuPyXhc9hnBSyyZYGeWTrcvnf+8xhjRW7I7mVwurH3fbodmD7UT/E6qeA7VPoVjEll0wnAuiQQZesDebdNiY7IOyzXLFQlHYdtzj21kyqbjKn/wC3eti2h5A4Q60kMvG7YJi1HFhz558l3WL198tn33Su6H4i912A6QcS0k/+CeQ+343AHbdVhDnLKlPAmKmAIgiY2zoMm2EwG2iR1y6IkHm7YqjKsNjTvf0uixRR4caWRCi/7INgW0fNm2oHCf3TUe+QybZxOLt9ba58+fbheXl8PDh+U2hy0XY5LhlWATOQYZy7Xe5kImMPHDpYGluVDQnAR6JIc8PWaR6zpoxB8JQPIENVW9SeJjU3yHVFrhFG6fGkkXDvTs+JIp/Wd0uXpOixKp/oR1O0BmiFk2Hp5/pM3unhXOcsGuzauX3JBndBJLYoiFyJinHuh5GjCEfg2jhX5ZsM3Y7zaDFw+b6j3ufG2HB0D4Lk1welx68pgjHgS1ZZ39v3jhGf/WjT+rxRbJbgNdhhz3Ts7oPvuoJrKs25/4dMThPBON47D30BwTYpKjtwo6SImJC/ThdH038jA/9sy3QzUbAYVTtGqWMT+4VfBhe2oiZA6M+wREE48/uXr5xg3NrysVl8joEugmsOVipAwpTgJK8TJOdGqVaF+IQE/MgcMjAGJAh6Ofh9EdJrXGiDCKDoPus+SF87IZCaAbX3VExQIype9vUZRv27SuDVt/aveMLlNfa9+++g3bih4xI7M1dP+0R/c93uYm9/ixvenY9xG56icZcsFqfzAQSE6+T1EPOB+7V49Oxc3Y97/aRqbHKxRd/KLX5TVw7WCxMYQH3Q+A1IcTO0FR0JgeWXi87GhX++6113TJerZE0euKmwNyALJ7tBgf1JmRC0gvkvKH39w/45ErAfxWI05iciMOjBWvFkaP1yz1jlv05AkHyD7xqPw6huKiA0SkfEJi47nEIDrmI8zYXoMj0+fYNd07fvnihbZ0K59rsx56LTYC9u6mgDvMOrmyYccVFG8nNwQW2TDgR68Xy4FYHZ7ethOdhF+4+ZIf41sAAC17jguCoPu1C4ph/5AkZzxtsNl5ej175Xvt2spVDZGVJWS3geQS+WO6Z1yYWvDRfoiLsuhl1+XTY/XOFd3iQwgdm0LoO92qaBoJG2AoJ7ZDLD2ewu0TkjbodN81T1ITg+jGkTcjNhgb0ItdzobXVpbaNy6/6EtXauCa2fL20OWPzOzzl9E9deRbJFtIrEQa78aR0abvQ9sQPp6z0bv0sR2k09SLBm6jdg4vEK3O18iyJtjXUDf7BA2h+8SPBbBZsfLk/FtXLrczN5Y07Dxb3RA2WYxR6Ek4kEpq5NQCGo5MmC8wSxuCGopoQuhIpKDRwTxkfEVHOLLYgaarP/OcjHDs6dUBOVtAx01HQA173MOTW8bYwBZNhvl34K8svdDO3DxVBUOf6RWrW0EmyZ3GzzvwEIev3uFviL3njU37ZAtDNatcEHRutCHP0J2vKQHEy1j4lWfGpWcGQ3QDsa++0yUYNdVGPh1HtzOmBzHfl8Gnmng8WX35xoV2Y23FuVsqjrcF11VtYYrf9qkvViuo0RnRnuzReZdrP9QbGEL09v4xH0ZQwCNYY3muqzXylUt0kEGq4kBGzQ9iTOZBo8XEih2b8Nk70PcxTPvRwDrqL62s6MrrMgPxkv9msMlixHKcE1FPrH+mZ7LpXGwEcGE30C2QcfjoFp9MGFskeGS4hAi9/1S+k5dPCsjYNl3EaKDry74YLtu1ECHV52veAeZXDIJcJjHe7b9YeOX6i/LFk1bikJYdbgfddtPZ8Vib5Av17MWybWfqM9niy5ea0MSLbv0rASncnSeCjlMNGepjQK5PUEAId6vQsWdzkEHcPLDNTNDQjVulFNS5nsjDZ8uBAwoiIvCRwdnlq+3szUwwIJdlW0OfiOR4cHrOP2/hKwnitcceF7VJT3D5HLGGRffnhJWnx6VPI0bXrvKkBsw916fyHJ9DkcEnlRbNPrtsNUH2B2zkExPNfMTU3x5bD+TAxxxcon7zsmqV4g38jYBKbADlWO5yTY5jColBxgQQwwkKTE10B4u8fQdHyMl0BXcMgrlgErRZbejtwzYk0sc1iGeiM8u2sYIMuOeGcQwE79D9WgQZNSbYy9df9k8yAlkUSGwNw1FO8kdmDquYtZPkInaJi5YwiHuozYCzQUeSpecc9AKcV+mzoX9dnuah3HWA2DBuA/iL1dQqDGKE5s+KrWGqmnrkbdfE+BDv2vKS/2DYLBka6rAF2I/1m39Aap4HXtDguSXPwQ248+mDisnMogmIlbEtScB868XaEFr5orcPcG0tpU3P0/JlI3NRNhhCN6BT2jDMC439gZzjtr98DfPVpSWfIf2dVWxvApssxu5ZyjLsnY4RjOHYjiI1HhgJWR4SmwrKMnePEVEDHy8AYL5DUA9qPbME6GfHhVl8Nw+Mw3ec4Ng20KfFJnnIm/DTN0+3xVvXRc8O3OkEM0j/4PRBf0Wu+3QtZD0vibBNaNmYHxxZXkPtrGEkenAl7FzQVWxogxsrn4NN5CNh+15o6JuGetks+jBG1TL4ENb5HoJLRu3m7bV2duny8D1T+94GkOvAjz8dnJn3E8dkUvbtN63nCcc0+HTEZQQ0OmwTJzpwSr707Bu+xpFPHxm64rsrvhhhxU7iRw+qpLBVvK4Dy3ZFt6R45Hh5dbV9/9qibfobZJvAlmdG+u7U5gfcfuMYqSGwCtXX2YwjI1RjDZCxTtkDN7N6dItmvuj+LMcsNmMyNPPS2wZNl7UMHeegi052PMPkYcRy6N1cu9kuL1+yLFcA6G4HfYIhPzc1639xRgVcC3lKjcBU5sEn/uxaG9UJWXgicheQGLsuCj2PyPnpIH4rTw0Sq3WBkT50REsQRDbY5aH3/elaWScNefuQEdtE363MiHd++XpbXuPn/EWAtg2MH9yoB3+My6/YJfdcqveDPjQHSKMoens/ETt80ATi7ZCH+qLEBqMM1ad2NqbmXJGHhj5i6LiN5AeZrqPGy2LWY4Qyb2GSJQ9w9Lntub621k4v3yhfeNoYNlmMgT6xcOZgCwfs2JAA8BEaCNIJGMhkSeDhRMQNVglaHwE2+JKAugKQ6KcSse8CwoJhWuTAQeOzPMNHzvKR80RX4zPGxVUuvdATD/Y2MJpgKvqdyTYzMYtFhzJA+cxkitHkWTHZ37i7LsOG+OgyuVD32Dhy8LGBPGO2WO16+IYCBC8UUduLBpAqQS9lozQLAiUPXF290Vb9t5yW2BYyoQPcjs1O8Ju3QuQLDi5tH78Q7Bx+8hHDdQJPpKFvnie62Cg+suajXTDkSROUDdRjW81K4dP6fIkPpOjgi+sA1ejQ15YvD968dVuXqatIim2NDWHLxYha3LDtyfQQ8FgSzgSAFpO+5xLfWpCRKyvGCUptfCGmoOH1p1nRwCbaZVN8q1kejkwJj91oYB4M5+gjk+v/7gcAjzyP6pduLXmcQm8P4xNsUjj/yaq8F1X9ECsRVEwmcJSHnKd40et50qGr3jLwM4RuG35jO+OunxqN8gyAp+dtEcfeI40+9BSOcXG9PzUCFT0au9ri2vJwmXqvgA3++t/7sfKx24rX28LTwU9MgcTEgchXCo4LwF56E4SP6mMrwS0vAfWxiSBXc+oh26kkwJH3C7GiFd25YwOCzoB2zhzDSDWeR6xoMi+u3cJC7GwCZLUpJJA0Xp02AMEIEowkEqULkMCTbGw4tJJng7yH5rExl4142OgvIH41UuejMb6iab/m8zY9UOatSYzeCbSi5o8tsMlivKMj2E3b9oOqewT+gxUfk0ST7ehSnSFeXQc/1jMhMZGQ5RNVz9OdyK6tBuZyaUpvniklD2k0YShS9IDuE7o6u0J6jA9R8plcomRoGy5Ft+dYY2L51pr/UPh+AD/8SVWeXFcEsj/EpDzBhnkEPrQaI198h6hXDqQeRJi4PQjfROx1foahdXkIFgBiO9rRM3+wEX5OPIhBHPl0rKIxt/xXHYJwNoYtFyOQR8+BPEKWQQICdyRB6T00ro2CCDt9HvrmjAcasQSej0xC92PtzoenPrucI4/eNMcEAi26vrXYwC8QnypM2TZNRvPNfsmJj4+VW6uyA1ZC9wD8tgufNwK9Zk6rYvLZT364RGPc6fjKGTExZBGrc/B1RteGSWB7g26X7wCdjhpnslgUXQ/EK9yTpHSw4Xt86OgzRv62YkKfVv7MK4TfRR1+be8egUXj/73Iy36Tp6HnRgyFhyfEGoKeB3kWKw9GkocV6MPtWpIhJ/ippfPsNFDqHVRAbcozREB9z5/C+epNqH3qnTnXtQMOS3xEtoPMgk3Admx+LAgCkmXvZBqOoCs7yziwyEYnfPB+1PEZQyhjF7R0Oj866Ud+5cwymSTeSN432WqDTUTF6y8Klh2kRoecJx8mcjZJPuCM7g9sTmfHXCpmkg8HBwdGNN1X9aKYpu3gmTgs0yeGXsQsmoMOseSFRMIE10I9VHze9j5BDX7ZiHT5DB2+Y+p0fBjQcVeb6ND6RLwfwB8Tz36xJ9POghUi2t0LsfuEQJzhYwkQ7a65l9pGBLvWt73oWZWxmg98gixOJEveVPjCsae+nyhsw7j4g00YHcqGdW0F48XbHLZcjINRN8KL80wmYokT88H76VowCi56nuxjIk5GCNqIDsUylE1jasUbksOGcUkV3lXR44WuJ6b1wsNacDOi118aYwP8foD8MB5XxBVfppgoGg4Y0ptInDRe8uzkEhdhjPKMePjRBOFl/W7TDIRD88h0lMOGG5/AWEweg8euUSj4Z6A26DCSnnXvExwztoU4L/Dy6RgKx1t/Qeh5dlqlNuRpu4zhuTFGqPQ1NuAMvslspNFpFhCmsfnoSR8TtgHCG8E+NtAHH/ahXsFD3wq2XIyjhKokMuozDUxHSQvXwZZTJ1f6bDOhis8YunBLIW89BgAINskUOUQjM4gYj0302RGpS9F52Sb6aKVRVONlL0Us+ZK5X3AMUnfU9p24OeSGt95nSj/yO9QOmZLoOHRPNr09Lh1rU//S42V65Wm/ovuMaW76+BSgI1nEzdcYzA+6yjc2ePmjB8Z6rbNxn9Br4rzKF+4dh3tL+eWYKk+EeDkGxy5aKbgO4NaJ3HCF0n1A5aqD0ZCnaOihLxkAHat1fpQ9tu3yNe4vrWRAS94q2SlbwpaLkYDjIgHFaAKI/R6MZHBGcIOG8LFgsqOxqV64R76BDx+dtJEMYydc8qTjIoHjN4qMoqPmyYWMFTo/NsxXF363iWbHYSJ/f2BLZdv+HLDwgV4y+Cl5ZDwGRQYVeIWjv652kTbf9PIVCfD0Ise2GeGaD24Z7XrrQoZWrewhhlXkPXFpnsThZ99i597AVxDBFH8tBvmK3zxZwHP8EgF0ZMRRP/BtxkEaN3/gohu6L4htW77KBkwW03BvXVo2CSADEb9CzC888wZ7GXft3g+1IybkkAeHvg1ssxg7jALAkRkEYy/hOWFkLI1zszxYN5lcRTXku7Chy7CRxeLjE06nI5eiyppV4hPbvCICHyQO7AcoUvQC1qnmo98Y716gL+ohL/zQQXKPj24+09ujCiY7t/jGwxtfxJ1vTwrWNsXsnOSJnoXKp6MymG1RG0SgbFhbuBrO8GstqIhqJCT8qLN/6O8VfAYSpEaxiy/nYVZ8DpgER3kW1QKRTzzwotelhjxiAkb5wl74iSUNEZqZ5W+oHXjZCFI2oiGwlOUjwwhd/Gsw+NoatlyMnggcDbGnRjKJIoE6WQIXOZ+VJQR4FNBBII8aNMbF8wMAREwhjJ6axti0MfTjtxenHwDgIZsnvDmi2iZy9gOUH/WxqXE9QYVve27oYVYx2PG9Q2oVO8lZY8efGOMpvsHoqwCOi77X1/whT1jajLWeo/UM4OldF3jka/nQ/YTX9uCbZB1sjMfrmmuErsOBY73MA08qy99frUY6FSMtQwM4vl0x+eESG/9DTBJw3j0O9ZkDmIgt1wYWsoiZW1dhyKBLM5QOmPXU5CQ+YBS//GW+w8BbesA0dNzkq+wwTo6JYivYeDGWHr8V48f/5QMkgRmNIzoNBhKthHiFr6aLd4fkpGIT6DL8EJGJGvQFZAY8HCIPiUsZcOghGezTg0x5+tu3WaR6iY7NrgjqneIRkpHhz4MyMe8d2En5rmUfa0N9ylx2IDHTq1W8jqOTujytakSOHUwuPQTpGPiAyagEsvPDhdjrlNqb6HpAM51mHiPG6AcyQUUzIQsSNJ9qRB7Y6cLsUpO7cwBl3GmYxDf7L3kmpqDkGVnIDPxUtWLo+aYOqo30bA8F5ox6KuYUoRkiYwzGwMsc8z8iKlJ3ldowYJje+9RCasSrBLpfzMZGZLeCzNu7wGcfAf+mmwUZwylGbOJBzY66kwqyy6hPIOhlsrPJEQcqr7iPDY2tO5KHar/GtSm6wwnXkLjG+d2GBoxtQK3AfPXY7DifU/G52U6OYHcDE5EPsPmflp682LTP+OJluertQvF0GeeNntnaDLo17iBCXzTjeRKz0+t8Qd/aVcnVbrVeHmLgk2ZiKUXHgG3zkoFFoKnx85TjX3p2rbcDifuyTcCXxbGKFlvHxCJATCLjBw7HqVVjWeiw1vmLfvKKXlQZe2k7D5o31kU+4Cjgi5c41Av3IpOsfdomegHLqDcNxDKiIaJxX9zR6W1r2HAx9sLOTy60yV35I1DvBMjeqOndg+tbEuhBmU+vpq3pA9+U8WRiyRMD+ZCMQyMeSyDUddR4+QhvhdCsgy5SzL5uw3pdS6+SN1+Ns+/ynVUNkQrs9GiPf/5iY35inoFtYJ44edG7yRxeLWP/QgmRGIpuCeua4G0nDPXRq9uzF/Q6P9Lhm81ILUTLAMNkQcg49NIBijbuz3MAJdH5Khy/FNdhJ7VKXfDT/Fs4PtCP+bQfDfqlqX3ygia+dYUPtYNmCeH2LwyRQgHLVh7QM7fHfNpP5GJLMUoweWqLvgQS96iNdDRyXMGBHnvXyatzN4cNF6MNK6D5iYV835LgbFcbekQKYWvHztQDg/nGhUnPgTu4CFjHffjG4gT2qEiYMT1gu9V6ccMvuyU77rNze0mINQXUm4IL54vi/OVGmTEkrq3BtVHj/+3zF+zENJ4HBnnZu0imEpcpkQV3nBV7QgCvhk3xkUXa8iU7yqPbpA8eQvg0q2BDzQsDAm/opWfMdI2lM3jEhsD1opfM9VvL6sPo/VYwXs89/E2j/6MxNLyol43kE5/2bTy6LErHJZHEZS3UREMvOETnqDY6IFvVTEQMRbQPy4bmmHiDUydk4kmNHj8jGet0bsftN9LkEv2tYZMzI21XOzxzvM3syg8t4dCOZbQbtiOc41fy6/jIg4veHyETVrSQsVKCd+N+RJpqjP3Qo2yii2b8MkBGIzFcFNOjbykrxHf3aJ+4LLrvS22qx9Dakhbjyu0VSwM7nWDIcb94YHq/riTyvyzjFf+JxftGvf9yXfJ9bA+yYR1EGZeuBKzrPLBh+vo8ez74CT+4fQ58Swvn3ikTAx37RRabelmq2ys5uBjoOj03/sX25ZX6bRco1W8F6CKF7Zndk+3Y3F7HZp/i+PNQyyA1yrP7Hc/T8SDX6e6xjSy62CgePpCtPLHa7XGpTex6+/QLzXUhf/XdHxbS4iMy6QmTljzKRucxlp5j3QY2XowoawEuTB/TBDsWMzjAB7xBRs30Ckxgp4V3OsMkhTv0I+MdqJbkQDterXD8WUAtBzpsRhYq1q0n+1brMtaACy5MNBdesraJDrgH/NHscruxlr/292QMY0vIjsTGnXZgan/bN5UJhoPxPImn14I47Je+6BaNRb/Aoye6NuoEozxNKBupLRA9Y9CtVzplw/KlO65jG6KZbwH44OH1mNM3f/H53E3+GDuPQLrfrSBnY1mTjT1TU+2R+QMeY9b69mukYtDiwaU2Pc8AeAA6fHOsExlQt4EWnfE8B/kwLGs+vvwwDkb0hi06vInb4y4VerdrG/Crsd0ONlyMDkpOuA86Pv+oH+TYqYONY3riAvFkMkog5oiIDWSQht9lApksiBO4CFYTzQNw+cMc6KAPH4J0jADYUQNDHhzb5hTfPYBseseEHY0wRTz81cb1+jMqS/VYtoAuCxyc2a8D2F4dbW87BoOD6nEpE8SNF9vOESHOxIWIDzpmJEaEsFHomI1Ux/zqPdk0sFiNizWyWbjDgWV70SstddnnPYfoM8wZ5dxN/nodsW5pa+iZoMsDr8f2HPR9Ywx3LjEEM8H+8dvtd08QzfDYDRuM0ROfnAgdy+gjM9Q7Cs7F+4Ym3JKiJyPGsUWLDDbwFzw+IYYGsZcrlLx2AptepmZzRwV7X5ud2KPLEl04OtgESRB27DFnePV+4iU6RxUCHmII4mNo6QwfXxT0p3sh0YPEV56xSR5HNpoxfb4MLRnJE9P454hoxoeaeI5JI5oLyLhM8fs1izorXuUPjHnZ//bQ5egP6jL16Mzh+JRtc9T7qZyBGhEvKDTh6jofv+Y5rsgGup7GkMgFvgdpvbaWpRNEXRvbUyt+SOgHshDhe6S3xiXrgwr08hcR/v/GnXZ66ar/jKpP6J2A6xVH7aE9C+2h+YW2XL8ravtijfK0QsbVIK3LA3mGHhTeYzGpaqN+tBDhg8te7Q/y9F/UiJ5FCdbnT3RQ49+x85mtP1bxfJcMdgab8NNsyz0Af2vYZDF6Oro/Pvew7h1P2nqOGAIqgO0K0AETGEHVQozvUQBMuE7qxaEYNqiCjP45C5s07JpEK5skjRrgAvA2XU0IrLDZCaOjoePERSlb3kj5Udw311b8+6k+g3UnOwDXRY1fA3t64dE2PzEXuuwOceGs4kjAFYe3Y1Dy8BMCNqLnsfmhu4PPtgvYDzLg2r1dfjAAoFO46J3Py7aGCVoqaowBJh++eF1ZW24XVvJzEv0SdDsY1f+ODlx72tN7D+s+/ZasZt7YAn7BJdvnTbboCcMGfISNV0yg2jh3A3mM64FUjiYGZ2BdbJrTZcz1VqL24T+zgueFaKJ5MR6IDU4hligrI/5msMllagpLm5/c157a90Fdsk45oUTVe2TZQAo9BcJKD4UECpdst+FEEUbHeqLBs658D9uIrfdJQ1A6dKbbotXx14vqAoYokfiBkA59mMJF4F+Cn7l5wX/X2CdW77eC2I3cU/se0yQ7KHcayya80cMAC5tOeNEQXy/HC8G2oGQYu+IWIROt82PT8rZrVjbQeg7wrBfo1UWm175DJhxI0RGzH3zSk0suM/kf/c9fO+8Yab2WW0GX455ztw5e7z94vO2fmm1rnB15idcXIq9AYiKdnmdCZsO4MjLPDEFiRbjPK/IZ8jBusfBts+sGkHUT3zIemyFMuORTo5Ee8sUlrOhDY7ANbH5mtCOO9pPt0X3vbftnjvjslWLEeZzgWL3o+czPFtxwnybJVDKJdZm69MKc/amPfPR58ST2dUU2rsZRqfjoQbU9YwzgqcN10dnRYRFH9HoMTLDXls7o7LgYIYHz3QaQsX054r7xQwffmyM6Vwnqk2f5xBExRdPNuDajp4kVE7Lqe803zBN569mEdWyDMfTSDZSO2miChm4euvTS6Xx/5odIyVhOjafH/JDxc9fOVXzYYn/Y4KbgWqnltuJO+8D+Y+29C8d0dszlrm9X4EmWhnfH5HjqTI8hxm42Gh2N1Vnr7jzp2ScxUHz7QxcStOim1b4TMfmVHFzjatXDBrrPDNSXzb4vtoMNFyPgAAQspBO6VH1w7om4ScRxbFwbnKYL3ZBA6MeDt4wYPREDdDo38LxMN6PkRBv2NexxGwaN3cuKechYNHahgUsHnEGPFw5/HHxm6Wy7tpZ/ogpsN7kAT0IfGDhj7NLR/imfHf3v04YYy2fcGpyj6doiA98gnRKCnjwTKy/6sK0offZS2bWNkXyvuWl0YLZXPL/EgSaMYMKPt+hFJi8btk3uG19duqYrCV1m6ixHzL1uW4FrSsxqc5NT7ccPn2x7pqbzT2epY/lNwx2GQYy5OUYRcUcf30hD7yBC5ZkcBMYRVhMO0frm9iZaGbFN1yO01AY8NtAEsi19DYb6Wj79drDpYsRZJkhr07oH+uDBn2x7pw76SZgDxxGhSKafEZMQQCCEx1itAgNMJUDrRqbcBIcuXd/vQbef8GwSrNtTD6+suMeu8TIaOhOFuLEJHV06tAvwo3ZjbUlH++9Hvtp2QDx9EvIk9djcofZTRz7sSy8n5zcbIgAYceR1FRzH5nkm3ORlqnET3YcXnN0pAn7Mx4a3UN1Gk2lEz/4QTfTskh5ZfHZ83CZXLHyl7dTNa+1ZnR3zA734TdsKhnqpMZ9+/PAD7f06Q2LTn0lHyi0+RVPvGI2ndo7TfJtiaxlD0V0/22IQ3L+ED65N7knLRvW2yRuZwS9j+OjD7Hrw6av2OBQvJQie2E3YErY8M2YypLiP73u/Lic+OgSB+8ERcp2mrYOzHOGMCgYksOKP0V0kNetgTzz4kWBsxHrm2WeISCV3sPAzIdAWRajp9gkJzejYH1vsqWPnfO3Sd/wxx3gNtgPHKlmM8pHQx4/8WHv/gad0+bWqIqvMovcc41Vj6fgyHMcGcIuWXzVsih4J9BFQs6+0Ub2sGHt5l07ZHJMduDaHMPrFNy96eGYETaxBHrlJTerLy0vtW5dPY6p4kkRwG3Btnewd/9T/Lz/weDsxz8dC9mS6c7UcMVvJuP0ITxyxJ6bjpZkIHT5Ixy0/0g8jevYpSC30HvMB4BfwCUQ4L/R6rQzWRSdD6Fk/sbUdbLoYgaGwMsa940eP/Fw7OHVElxNr8rNbhYv/kRGuywsTw9foPloXVEK6hbLN7DSSSmImg4wla5tWUHMs6cPDdvAUHbkOyKpTo+PeJ//DA3mOrJYw3nd2fqCqtXPLF9vL108Z5wy9k8nlyzrJ8eLsuDC9p33y2EfaXv5V3O1b4su280o88UcsoRFNPsrQGLr4pJoo07u22JAt1ylDgrQUeCYTNmO7xJKj+R6NFJDpdIbWCZ0XPn32IB4JglvUwaSO375yvp3W5ap/7U3jnRy8LENd1fiC/vsOHG0f1xnSf/kiluvlfeP0EqrrU50Iff7w6h69aIrv+cdbCuaDg6hPbdAcQX6wSgj+yc1OGaf3gioZxzSubbuyaVk151FNdPvdBjL7NgFPLhzIEhPsxNwj7Rce+Adtevecn4ZlUiRRAvNOIxAKYSJBJOA7/BMa2yqa3sh3HV7WQQY9q4mmQvr7hZgVPYspYB0YZqKHjBoc+xXfrIwh9QKi68mEPCh8vfgQemltpX3z8veSuwR62wqwlwmmgbrbSua9Bx5vf0NnSA5kaFMv4vAEqzzzv1iC+6hL4sYxlCjpXSfR+2e4wHie6eCbFZvDILUvodA8QamPbFTz+jIfXnDH7Y1w+y++cBr/4/+VpSu6VL0gWVmEv5N6lU8ubwHOsj979JH28J4F34vywQDOh5jIQX3fn5ACqc0gI55jC8V5mm8R0RHTgFfADM+94XuszAtY3qCL39jFNdBt2I7k4NOjYpoCpx4oWKX0toItFyNAUVPg4O87+LH208f+Ew10zlDz/5dwAjhFKAk7JNSUoPnqnWviM1+ot/Sha1QJW6fLFr0UDfiLpsi2P7KhrXFoYajRsTE32y4z0pdv0W7pzP/C4stt5dZKxZIa7HSCJQa+fzndfu6Bj7an9z2chxP2hy+MSg4pfEMnOtOFwRA3VsT3CJXEB0B33HCsxgaptCFSZFx4BvAE1hOM7RPGeLRdv4qGTWJ2b5WiGTHO54TPXj3v/8FhPeK0DhY2B/jjtX1wz7729x9+uh2Ynm2r9XTVTuXDL7vN2HS17sG1UDxxWXxoNYwe77Hc9KKHhnHLFM3pFd02xcN/l49ueNkvGZsODRvQhdm+29aw7WK0QQeCE44Zu9snjv1i+/jRX5R5LlVTtCEROjZ6Oyh0y86wk5CzNIBd5FEwQQAtPe/O17b0gncsPhEpW1LGl31jF9KgEdyxwdIGm+aDS35qYrKdWjrf/lL3jj7Y8JKCbW0DXY5GbQ5N72+/evIn26Pzx/1tFTslLmQdB1jF6ZiIZ4xvDJ5o8IueemvkCSi8xNggY6zorkPRx/dT+ODxE5n+QhFR0awTAHcMXUc9V0mcGc8t8RTaQnqL68Hm0OtEQ5728cMn2z965F1tWvvglk5XPkMST+VZIaPtOIx1OhvLC6CBm45+YoZresn1PG1DeGoEB5tq1iVGaCNdS4sHY1Sf2Ip6xy0Z3jaw7WIEfFZzQAlufmJP+/kTf0fX+T/uy4iKKUGp4ZaASNBhDwGbOgRnnuhhhWZ+4d3mqIjRGhKEBx3/pqk3TU1s4gXiL2CeBM1nUzSUo4nfCR3lV9pfXviWP3Mcnyy0raDL9npxP/TkwkPtHzz6C+343CF/sSATLHHYO3ESN7qOIDGFzVaUEC1D7zyRrz5apQNmOurh2Qo09blKqUs6xqVL4zU80Sz7RtVii8GIjj73eaduLrbv6OzIAhqv106g14ueA9gvnni0/aOH39X2TfLne7grf37jV+OoCoSLBJ88HJVxFJOn47VOdHsbcqNDR739Dbg2YkZK43F9y4xshOZ3dMDLLxKOZxvY0WLE3LoJpoLtnVzQ/ePfax88+DfE5QxJFt2xUIJFjxi1EcuWEpQ48C3IcNCq5OIrfCuaa2Eh3snoK2O7zbBsQpA/4WWpLKMHjVjCB+CXcesRHyb4U6gXrr/SvnH5GT+YAMYnzVbQZeiBW1qQT2lB/pPHfrk9rDMkf5Lm+2OBZSRLOMQSjcTsTfHBLaMeqX6mgB/pbI2JPpoosWjl3mnjH7QCjTU3v8wTXUzwWA4e1dj1/ZWgP+Ba1qXqVy6dahdX8hQaoAbb1QpAvjccckX/qycfa//ZY+9qB6dndMkaH7GKfyO1v0V3bI6OAB2zFIyLSYQQwncvrFDPHXSEQ8NO8DC7V9sEEFLrdYgZFEqGOG0PvR5Vt7I1TPxTQeFbAsUYn2CkuGdqb3tkz1NtbmK+vXLjRRVtWU45EnEDTE+EOg+sK0hNbA+TUEKNfSC+klBPZNDHf28YoZfNFA+8mt7jRTAmvotn52XTeHjg+ATd3XR21D3jktoTex9ue/nDYWsjSnzSRnATeF29hB+ZPdAe3XNCE3fN//nXXwkjdstUrBUDvQNxj35qGqmSUWPkMapwSy+1rIs8aGBjdlOboiNTOHb7U2eMRir2x+OxrJt8iMaDmAvLN3W/N9Oe2HfIY3LfSa2A9TKyqjn06J797fjsvG4ZrreLy8tyyW8yJQz8W565xRxjWhE38fX/OmzBHqc1Mu489YlvnA85fF7Qe55DXUp30BECPrLJTGF/5aph6dad9t79e9onDu/3SWsCuQ1gx4sRuLuw4DO6lHhw/tF2bO5B/y3gpZWLvjfiGxkO1LJJxkcw4nUiLNseFGdbtvBzmdT1IjGSy0KSDFvsWdZMF4r9YB9VjEAt1g7C8R9AQZ2E/WTRA/HB1fhLjvmpufbo3pOeIJnk+BiztwkgMy6H7oHpve3xfQ/oiL9XtbreLq1eNy9n3/ILAb2K2U9SXT8NJOYJQb3c1f825FW1SK4aS2DIe51O8o/UaMxfJABMbnMsLJ6HwekAP6FER1uricF+Z+E8vvdAOzq7d12txufNRnC3DDgT+fj8fHvXvgNtZmKivSrbN9b4Cw/VAnn5H/a/XDkP0R2TzbCJvWTLFVxy8HlCY9ebMMuO50DJMMcCNVPZiIc4PrIz6osDZQd7jsvCod+4dVuLca8W48KbtxiB1xWNlHTEOjZ3oj21770Kb6KdWz7bVm7pSCbocgkMeW2EOD2ztLD4+EKLl7EnT+n0LUWxPLwOA67erNj0QvfEhowMC6jE0NFq9U4Tbfewcqu3fBoHBxYI93jndRY7OXesHZk7KJ4Ae4JRbptDr9VIVgewiRkt7uPt6YUHfea9uHzNZ0v8pi6Jga13rHNVzE5L+BAvB5zIQbOYNv0VAnSNSsf1V3Ot3LAhSufjJOUb2cSXhaKLTrARnUnOX61cW13R/eON9pOHH2pTWkDkD+ykVsiM14tLYPYBl6rvO3CovVuL8szyUru8stJWkcN0P+gTdOk5suqB8LW4FKPJ5NWTdHgaa/j6OiETXeRSL6jEmbr52zwYhT/4xGP1ot3QmfF9b8ViBHCwbpJhW8HMTM62JxferSPj05a7sXZdk215OMJQAF++aMFaD0UnH5tBenEZ0ado4IimGuF44ZmtcdlJQRCrie0iSQVZD0NL3ORhdW/cSQuZjGRDB5qrOntdXV1s797/WJvVQkJ3p5Ps9bKy7FnU/Js5Hz38VHtg9pAfGHFZzN/2uV7oaKLxcixdt3D3bqGarwTHcbyQcx5iOG1LZ5u6UsNRLehNdj09+bovZBiHLUCeTnRsIMNQ+HktGBbSe/cfidpIKb62gPF6ea4IZ0QVjuks+ZNHTrT5iUnNrTWfcfjI6BaxyiyTPLHyxk/NgWq49jwxribD8PsicqVB6f0aw7pM9eZgw6/Ut494BZDfrf3KYuQy9S1YjICLRpmq0L2IvA7MHGzv2f+Bdmz2pO61Ftjjup9cbfwuKT1foEaNG3XiRhfEC6WAhDwZjPcFovMu9w0um0uHckkzJyKfaaYt4SHiHcBQ/RBvTUaRxndYsUXnwMHTPX6ycrKd09lxetdUe9f+R0tCelos/aC0FXinEZtlZVs2GTNhaQ/MH2ofOvh4O6a6zeuynwdkK2qrmmzUapUHPrLTj+a2YZxoK25s0mvIN05cER20OJiM52c6TfJeaAwFw6WpByVDJzwHj5wJANvo+paFQwzIRu+Mzo7HZ/e0h3TfZz0FeD/1EjLIM57W2fbd+w+09+8/2E7M7Wkz2k8rqhOTfFltSZPKB2m/6KkzPZBx4uEdnN5Bh1zj9XzrlBxh9TF99k2XG6cxSzkp3dZinG+fOLLgS3kuvzcCHXgw/cZhVGRNsNwA+qgA/czSqXZ2+XS7sHRB/VldZlz0/eXS2pIuz3TmlMz4QnIxsVWR0bGQ+VoZPWc5Pn5gonlxqqUwtQtK3+rC3REQesL5FoeZlsmyLk2IPmKCR8eCxqd3T7d/+MgvtU8c/TEVu+7UsDHkvnPoOvQ+WmqiAvyB89mbV9qrNy6oblfaBZ2RLy5fb4urN/0/EVduaXFqwtVxrGI24nwoPSGvSmJVZ1kdlFUn5bh7wt9yYZ/wQhwbIEOe5OB6KS4VIR9/WCQ0tdH+AWEDJA96P0kRSk6P7DnQ/ndP/JgWz2F/xEO+91Ovcfm763V5ebm9trTUTi/daC/cuN7OLt1sV1ZXda+/pjPSLR/U+Job0fsySjfGIjk38uVgmFlhiWGUbKgTWOYx8p5bmCJV6yQutswIPPXFCZ+z4IXlW+3vP3y4/VdPn/QBdmoisd8Nb9pi7NALl6Ld9s4fL+SyLlsX167p3uKqL2Nvri37voxEAdJLgikOmfN3lHw8sKbJyI9GXV+90a6uLbYrK1fapZXL6q+5APwVwcQuvnpWRazJYnt94tCJ5a8vaZDSm2QZs4lfK9b7CwarV2cZYjiqS8p/9Ogv+6tud08woOe6E+i16rgnGZPZQfCjT7d9L8n/z7+mxXh97abHa5wJmEaSI+LkKh3HrVppwFfKWLh8te/q6nK7LH0W9bmb19r1W6veL9RLF0dJEv3KM/WywSobGyOWy4ESOaZpHQDATYfF5A3t44ceaP/bx9/fDs/MOb/7rde4PBhjWl+UEPkm0A0twCu6p7y6uqZ66eClfUTs427QHw64HHQqt/LgUfAOySswkn29HBD+SIKPfe60R+dndLU47xOVn1VsAG/6YgRsUv48UShaheynYMbuAyo37K1qMt28s9xucra4c1NHxyvthcVX2ovXX9EZ5VUdETXZNNHsn+nicCi8ttLnCJa9k2gcHQsR+6CcEdSb60kXOeLnAPPQ/LH2jx/7m+2xvQ9ogepMTV61t8kVXzuFXv4+yUSwDbzn/uSNAQcQFjA14Y+BecBydvlqe+bqufbtq2eFX3d9fG+KP/skA+LhAJE4mNI8bR2+o2nr2ormuEXPFYlT0FCLpHj/yckn2j989D26zJ9w/fDT63U/QM16vTK/HMmbUq+3HFKcGqyHt2QxdhiK5gAghL4ORO87vhPWjwReELG1GXCWWrvDWeRa++7V59qXz3+9nV254LMJZ4uoctbJAcFZC2HpeAaZyLuOtID9CqTMCyGO7kxwzoz/+eO/2g7N7PO4T4Qe/f1MtuyKCmQrKJFRpYSJ5nrDBNcrMW8MfZGeWbrW/vzCy+2rF1/z79nc1MEFk85HtYoVFqWUqEPVxHXLSUdl0oKFbr/xyQJH32dNtX/86Lvbrz30lG30K4oO91MroM8vHOBuQ8D0pkxgK4FtlbeAu3Wzj7aCt3QxjkMv3Fvl7u4dyh/2fufqs+07V571T2mcu3lRl8dLXkw8kCGK4VG3gEnmM2YV0X/O5KE2zDI6KeXsyOXkRPvJIz/WfuXBj7dD0wueYMAuP+lF8Y3BW1mvjSY/P0j8pfMvt29c0dlyaVFnzEXfc3FJRa7OrupFSJwdQ2Ih1hlTeXMo6wvSZ1DR+Yrcnskp3T++XzV7UPaoffLa6UOdrcCW3sJ6vVnQ49ss17+yxfhGoSdxL+E6aYmfXTqvm/tX2nPXXmrPXn1JN9SXYeroz6LUNPPEYjLpxQTSywf90kc2Xvs4E4hJ+oEDT7ZfPfmJ9tCeo5pgtSCRo0f/BwT9zLjTejlSxbu8ttZevHGpffvy2fata+faS4tX2jVd3vKnUjkrpkZY59bH5l2fnmtq1ReiB+rXtCAPTM20X33g0fYLJx5u+6dnhyuKvl9/kPV6O8APzWLcCpggvO/eqeC8uKcDuNd8YfHV9mfnv9a+fvmZtnTrZpvePeWHHcwl39T7wU0mVC61wLEXm2xzyZbLXZ5YPrnvwfb3Hvpke9f+h4YzZD/iA2+3SdZrNB5fFpmHuUQVXFpeal+9dLr98Znvt+cWL+Vhie6nfVZDRh3HMdSoBnWyCYidz1h0X3mU3s8ff7j9w0ee0iV+fhUOu3fH86MI74jFeDfcPcl4MxH6JGMR/sX5b7VPnfqs7pOutpmJaZT0rgnFXPIG1fGJwWTUG7p6L/KaZEdnDrS//eAn2sePvsf+efWDAOO38wS7ewoMl5C1QE7fXGy/f+r59nunvq8D1+02y583kSH1kkwyS+2CoSe7Hgm0gC2loxsPxyZ0sPvIwWPtnzz6dHtgnl9CyBmy7x/HgzibHyF4Ry7GcUh62q3ar5lkPKLR0V09P63xh6f/vH3t4ndrImUhZkMXmknSBVv/NBF6Jho/RbJvak/7Ww99vP3Ukfe3ucn8SwRg/KgPvK2P/MRZ8faIWSR8TPLn519r//Mr3/H3T/MRjOTgc0CyDoer0NJUmRS0bGpccrd0AfHYvn3tH+sM+bHDx+yvg+ujIRG8rWv1JsM7fjF2IE1PBF7gvDTmK2h/fPqL7U/PfEX3Rjc8mcRgGqBlOZZvNJlIfXKAp+eNBH/qM6l7q48cfKr9rZMf8zdrODv2EveJ1WN5O4IjHYuPWDlw8UERdXnh2uX2269+T5evZ/Oz/FxiUhsvSA5zOuj1z2h5CIZBLiCom/R9K2Dbqv3arXZkdrb9nZOPtZ8+ekKXrTN4yf06TXJ31+6dDD8yixEY37GeZLrk4iEM+FcufVf3Rl9qLy6e8mTg2z1i1JmyLjc9RYDxhajGoCYYZ1/+NOrh+aPtVx/8ePvggUd9X4o2PE8qvxPD23WSrZsWhKghNO6FLy3fbP/+tWfbn5x5yR+yOxfXIeJDnapGjKkjVeTAZtOSZxlz2TupWn/o4KH2d7Uo37P/gGuCL4tZFNsZA2/Xmr1R+JFajB1IedjhhdNOL51vv/PyZ9tfXn5GUrmHyccdKCHjOeEjPzgPcaDzLQ7PNkAMywjdMzHb3r//0fazx9/XHt93Ipd25uXYv25KdePq19HfDqCwCKrXiwW5qsvWv7h4pv2bl77TXrtx3T+TAc8HMmoiBS/KPAUbmmkY9KlTqIAHYuidmJnzGfIXT5xsx2bz/0oA//iZereqr/9msPbJOwV+JBcjQNr9COsSeLy7nV2+1H731S+0L174dk2WfHCdx/iZCIAfXKDG5JBgjvqcGTNhePmrT8IPzexvHz7wePv4kad86ZqvoTEJY2x8PhnH5lh8P2jwOanyIi5aHrbwG7Nn27984VvtpRvXfLChEqSVukjCm8iCAsMiUs+9Zv6zE98/bm1GZ8mH5ve0nz/+gC73D2tRznjxA6+rl23EPKy3S73uF35kFyPQU18/yXa35dsr7X/RGfIPz3w5XxCoCtGDMhHBmUi8An2ywavFKRZfLOCwz30Xf1j8/v0Pt3ctnGxP7DvWjs8eQNxGmfCe9GWvWwV6fMy6cfpfNRDDEEuNWSgvLF5pv/7it9s3L11Q3lqMVR9nI5xsoiFQPSiJF2TPxrLCkRXOk1r+1uS4zpQfOXRYNTvQnty3tx3W/eVIPtXqUJYMPcb4/uGBDRdjT2QD1tsG3syCj+fbcf465F8//wfti5d0hvTsER9h3PUJpUEeXwQ30uPRAuTzSgR5ogiZI7+/N6vB43uOeWG+98BD7ZE9R9rsxJQfkvANHsCxBPM2jkewfrQ1vBW16jhnKz4nfPH6lfbPnvlme1YLM8ssNSLSIQMRfAATgct/s0UzXwOfVSGp+YGYEB7yzOkS+N3797ePHjzYPqz2gC5hZyb5M/Z+qct+ix4NSIQ7h3Xy5IdBYi3SXwX8UJ4ZdxLyvU68Psn8LRqZ54h/deV6+82X/rR96cL3JKEd432UScbiiwcmevmiKzwRakoJAfcDDgnwJzXI8+dQpHFMl7An5g+0h+cPt0e1KB+YO9D2TM202d1T/njkjYIfGhV+N9zvIu31d71u1x2w8L+4cKb9i+e/3S6sLPuSFbnkLVDO8Uc9RjRb0nD4XBda6bAguXXgz8CWdI/K4erB+XnVaU97bO98e0SXsyfmZtvC1JTqtavNTvKg7I3BVvUyw3lk+GbDlmfGxdWr7dpqfrY9kQAjcTCmJMfwnsLr44zUev0+7vjdNscoQvA/qcnJUzf++HZq9+sn6XgaxA50Wh9vB5aXKF8sB1iQ55autN948Y/bNy6/4Mf4cHyJZZPknmg5qluNIY/2TaEuXLZF1uDJxigv/sSHszBfPNize6btUX77p+fbIV3S8pWxhak9bf/UnOjTPntOqQbUg5zWP8SQXcXPWReZSU1OajWjs8rdMF6rATAi+k5rBXQ79OhxKf65c6fa//Dcd9o1LR5iyf02vLLvqqBUtcOdCOhDh0bLiJzIL1cgLPqbt2RJtLnJCS3AibYwPd2OqB1Q2z8z3RYmJ934NYAZyUyrDlPS9xUH8br4OBVozFl9SvWcntilWktPOsVUi9y6elW8tlF5v1mw4WLkz4L4LuKfnftM+4IaC2EUGK1PAOJK2eAnTsZsQ3Nz8KWHvpRT8ECkaSWoho1M3OyI/ofE07tU9OkFHRGP6vLuZDupyz3+6Hccekr3VSjc8pINrLCzvn35xfb/e/FP2qklvhLG91ljn4VWiWmbOmTSVW6gfVw4MrScCUY8Ji1fqPZZRi8mMDwe9sxqIc5oH+TvNbk0yxnXE1gyNqUxOHo09t+02l7/YNj+9tQ+zrwH/S/YxmGolTfYU5T4vgdwrdT4Ujl5/PbLz+se8hkfPMuwY6Nurgw4br1AzI6MWw1rbIKBWgtIVnCLVjxsJmR+CWK3z5Iz2k+TWmCT1IKa4VNFQjbb+OLJLwfdKbW5id1eyE8uzLX37Jtvj+2ZVe1rcZJjMENClg0SUZ+o3hhsuBj5aYwp7fxPvfo77VOn/p12am6ckbT02M7KhExwKWYCcyEBF8EE4+gyYdGKfFjRythQst6JchqX4JB1JNOinNbZZGFqQfcTj7cf2/+u9sD8Uf9GjdVHlgQJYCeTrE8YfDo2PovUpP702a+1//mlz/uej+iHHevkAlCsBL37crwaQwtFNPjpkTUKjZFlIfDuOvSJrLyGZjvxOTrIdYvwGXHUZ2FOtoPTc+39C8fahw4+0B7fd0hngSzM8SmQBS4v2N0BdFnXS42zNj/z///47jfb586ftm9fMTgq5BzuKE6Hn3gD5FB4hHSkUr0zYXzVAY1ce54w8DHoqY+Pzhfuuw/hfsfHEAN8Nf/tpsazuh+dVh5HpqfaTx3d337qMAd/zTfREczMCLhO5N7xNwAbL0ZNuCldEv3ea/+h/d6pf6+jDL/LIp8kpHgImGQ4ivdFRRg+KxjEH6ymaIzz9DE0yxROH5vYEE7B6yjbi08bihtFydYE9R7e1Z7c93D7qWMfbe9ZeLztm95jOveA/bKup7pd0ZDrMrEtHcXzGy9+pv3Bqb8Uj6wF3Y7rUnFxiXrXEZ+W2LEl3GjVha1dKF/RrQLblWWMTPjdJDT/Z64UX/qxY7uWCMSnGnWAr5G/xy6H79ai/Nkjj7T3HzjWjszOi5ufWuSsei+1Anq9xr8kf/rG9fZ//s7X2gvXFz22OTXyWv/X9YlxfMx+j1ttnFtB4cNCZOAOYSuY7ihcjLIqOc9N63l3CUZ82xQ2RKUA8vW+/LUJVxifOLy3/cqJA6rbnC6JJ22DvH0FU3bfKGz4g1RMcSbw81efac8vPqPb5nygS34+p6nvgSeIJELBCY7e+DApkxhSFLIvZrPqBXhsJ+G5+Npxtml56YqhYTa1yLgM4XLy3PLl9q3Lz7czNy/qkmOmHZ454LOaTamNT7StJlmX6XiHR3Tmfebqq+3iyrXYjYhzkmTFS5wJz7SK28LmgyZny0EGF32Ue/QQ6HagGRX4x6PCsK10d8mA4QcCBw8hfOzAAyS+sndWi+UvLp5qL16/inn/eJQ/uPdr57UCNpLbOzWl24np9o2rl9qy7vO8z4mVUMZitvPaErPLLnpkyCmwTmfIKzog1NHjkvMgArFhPb2taEI1dKArQgsW7mrt9u8GofLs4nL7/PnF9srNVV0G724n56c85/oXEjpsV6utYMPF2M8mzy8+25679qwWI9f+2TmOTO6JOwfmKpgL1IvJWxsKA80ySg/Vwo0KOFJmQgLoRM32TIKGbVjlA7ZwdPOBcWz6CZ54r9w4215aPN2ury3pkmOm7ZvY40mYIyImJX/X5Lkb4I3LMUW5d9s3Odu+d+1ULleVUL9U3F2JsyPV6Y3t6Bksp855hQuLuOUgdPsx2RMB+dgQz2bAZR9f8CKgTr31PYxNdKTknxCBbZXUhzMP93McUE4tLbbvXr3YLq0s+6HHkZl5PNxTrQD4XabLH5qebVdXVjSRteDrAMKL92hR4A1IDSxTPUC8+UYPOiLLTlclTxq1x172BRYRUJMSelYAt+J4Ew0B0eMz8qN5FR36GS08zpbfX7ypfPil+Vttv+4vD85MmY+hXAFsX6vNYOvFeO259uzVZ/0AhyL2YgF9m0BCd2KCLkuZezJRAwdJ60c/X56BM8/gieCJbpv00eWFRCZkRvGrxr7GkZAJTSr+qv+FRY78fNf0Tjs2d9gPQChW1NDbvnCDXILQ2Zb/H3hbtTktuzglDws6Xrkqmxqj4Dg7L3RbEtO5Wj89C4CJRH7R5gktdQzf9aeojOsydbBLBwtEjZiw32tYXoVjADp15AHRpH/I6fuLl3VJyY+E3WoPzi948t1dK8dqysbQ69n1picn2oIOYN9f5BfuljNZ7TsxpgH4Es5QvesC4BJc7+SZeldUfiUsC1jP8sYR0YimgesQrnVp8ekiWh7+bvlwZXxQjUxyUpM4D3qurN1uX7+81J6/vqzxrvbEnhnL2rJlEyHg2HYI7JnNoYrLy8GuMwyNcQ+WZBihVjolDp6ER/pMQBdIpEzG6MUIctgc2bAANAsiot5+uw3IWdgUM9+c2dVevn6u/fYrn2mfevXP2vJtfqgqk+zuibMVWA6nAi7xfvLIu9uTC/zsHv+PEOfxTSCOS3i3al1oFR9c5MwXvedem0GGntCsysJBJwzrwxj5LHmx0DbdLGyUT+g2YDT1F5r7RC7zJ9rLN66133z5u+3/89xX/ctqd9dq1za16vVMDbB9pz26d2/76aPH/fOEqPdFEaBHJ+hwAIHVXXV55ww5e6LniSvXxhRB5WUGgE3jNa6+y4z77DVxHshoHDMalzoHTJ7QQvv65Zvt//nMOdXssu4toaAja9itdi+w9WIsYw5MruxMDcwJ4Ng9UoAk6sjSJ1BCFNm2ok2DZb3KEkvB1UAhygb26xwbmmQwlUlCHLEI3TZ4C+fDWw6kTKiV22vt90//efvX3//9dm3l+usm2U7AO8gBN/8I1UcOPun7Ukg9z5hKTI6rYooaeYzRtAA8ualT6ZAnI+sj51wKxwQA0foMqhbqjZc+dv37PjTEtO0xmIBNB4sdePHJWYKfzf/8+dfaf/u9r/gv/VmojsmxRnYrWDcRJTupWn/y2PH2noUD/jHmeLWkt64db2LqnASjd/YTuM0Ji0xiwj68boOihIQwhMqP3iNoqIVnogFbmiwow8IOiMXBqz7W48oRlHtvvhhyu/3z5y+0f/nCBR3slZ9E+ndo2W5Xr3HYejE6iAqsgIT6/UR2VIIjCqRSDIpYO8SQYtC7aZAYw7d9j4WhI93stoQHy5emAGT0S3fdZBXJkz0mDM5AOLF+4fw32r99+TNtcfXGugW5k4INE6zwpxdOtONz+3MDD090YhrutchBdM0/RqYRZIaSJG7F1J9ymuwtNcWXxcQnb42F55fCKzdt3GmLfvZU6H2hdRhi4I2y+Kkv3mqMfcaKic9z//LSufbPnv2m/5DY+7nqRK7b1avL8RCIv+LnP1N9+GC+IG8/xChvjhinorF/HbdNkwN2QEdzADritJ6nfzgMERR6Z71UxD4YVp+Fq4aMGuooUd/hkjWi1okYfPQYlM3S5yHOkur771691n7ntWu6l4xHP1muOuwUaoZvBnHsYOwiwTkqgqqAHLRx0WEJzxNQ2OmjT7IRsyCy8BW3Y0YnwpYGun8oLpiL4SlUeAm7wBrTwSp5821zt78c8IXz32q/99oX/UfFfUHeywTr+GGdHZ/YeyK08pPdP4ojfqMzHmufEPGIBjJZILaAPct7liVvZPRmgds4nbkBbJBCJrRGnY8dDRhDQDXS6btMasDiTw48QGJB/tbLz+lqYkXlgz9akFtBrye9MxD+0UOH2+GpGS/O4WBh5+AcgAR10DCJzZgfohp650GPjN700DRwbB5qI2Dbs82vAZpZDHBFaB38cgDt8uwPRxX7iKpnH8G1PzVkpjWPruk69de/f7n9/qnFaGGv6kXbCWy7GGXSjW2OpkSVguGj72iO2p5MHqNBvA5bUDrCnOxYcqOJUA26mLwQig0cKQYfoUcytolzE9RMB4TQiEWEfGbkoX195uw325cvfM/3SxD7xNkKEuOouLMT0+2pfQ+4JxbsS2p9TD0OaMgIJXfY2anJMnLELikM2RfCvINnoohQdNy5BtVQc+2RtbHIgg/1pUfWGtHzX5XYrt/RUeMBBuPPXTjVfu/0S/68LXKjGmwFvV70XLY9OL+nPbWwXx7Zh3ju9oQRCjoVS3IvoqDn6ZfUqINlDchX7N2e5TtknJxGsq4HtBrzq/WOt8uX7nhM4aKLjsblj/y4ZGVB/vPnL7UvXViyXPQkidwOYMvFyOTAaRIqjKCIQQHZCWPThDszpNBN7+24DjgkE+ATrEVsI+nCihwwKggDxuqx0ytp30GNqLFFvhcs4/D4kvYXzn1b90RXcwaXYG9bAfmOF5Y/g3pk/kjj1+XM0yv3ynBLDrv0og+1i+QQL5hpMB0PvVgIFG6bwrv72MgLnmsnPmIDDRwFYrBeKcPX1l7Nj2wclU3zdvszwj8+82r73tVLw9UO9sbrsBm4JsihJ51PHuUbUhO+tHdAxIsZDYfa4GDMNnkSV89tPE/oIMbRWZdnmnV4WS+yrp1xyfitjRSTU7ctDD+wuqxp3g5xRGW0IHnS+i9fuNwuLNfDPYHnlrGtYcvFiLEYrF7Oc2YLxQHa0Sg4k9hYK3hPaNjxJpRNJ1I4TPfYDu7kJZOFFC744BOb0LyNrkfIlF4o4F2Cz4vO+Ay5ept/vglPEmVrK0CGxj0Bl6pPLzwQBi7tA+vqke00dIgfP+Z1GdmpnnjNp+8gvOvDo8Nu1wfzAcSMroeNyHW69S0PBB98lqxt2h/fPql9KkN86fy1G0vtD06/0vg3bI4RefHsextAhkmG1/frzPjg3LyIiSl+xbNfyJJSQzY8sBplIsheZE0XYhy9wSbyJrr1PK1uSnDnS562B97lC0TXML0RbUsPP1zB9I+H7EM0Lh746OO7V1d0NbGIsu1Sg+2eRAPbnBkTXMwQRB+EniKGPlxeEVhBTxRhiiBC8asQFAAZiyCBfPDSiE3bgYKJ4FTGExyat8ETZNnUJlRsGIlt2eSp4WfPfat9/fLzokRqp5MLcTKhf9/+B9uh6T3+b0chlUfh3Zfr5NoUzYBkaKZoQ7yFDrH3p9LhjPRHtVfrsowxCN9+0R/plCeNy6t1kUEoLZOn/IGrTU/sbp8/f6Z99uwpnx2HCVb9VtBlsDM7Odn+xtEjdTUiptq6hUgMFR3xJYo0YoJOTtZR3/WSZ5cFyo6dJF6Ec5mvN/mVP7uMZW8NEGHDN11bM5GPDfR5hW8voqELs7VPnb7evnXlZvxAVr9drXZ0mcrLgdhPOXegEEQR7qKbF/meMLwkB03uZISFaEvqzNIrEH3MgsMcdoJaL073aZvmxIJ9y6jl1LomuC2gV2OO+FdWrrc/OfUN/5cnx1/Fcl6bQM+pyz+uS9WTcwf9YMI8/JS/0Y5zZ1o44qmndUpyAxMd+9CsKAwiY3ML3yJP4kAP/byis05GKqRrGfXYGBa+HaZx+cWYg9fvnnq5nV66Hr4a+Ud2a0AGWb6B9cEDB9q+qano4kPv8TyhFoeItFmfW/ymp3kegke6NEcyPc/oxT7ixq1X8trSiCMC0OBpCK37sS26zk+0HXc9hb12Y639x9eu+39H9vy3q9W2l6kAD7mckBeTaBVoLyJiudwCpSjQctp2gvDrSVk+9sgjfT9WrosY24MP2G4dyRhiRzqxq60LkwcM6PYG3Q8kwGFpm50oyYoVv7yZePxd5LevvtK+fPHZFAw6RbPO5oAuHpiofAXvyf0PtJmJqeRLg1c5uA44HGvwaTgkN2JGbzzPvjAct2DcBvTk1fOUjouJkfAYxg992bQT6YiZ2uO/7MFHF751oKnXgLz4q4+Xb1xvnz572pfolpE929wGqC1XTvSHZ2baU/v26b6x/GFJuFD76/PBrWQcLCTGEqI2Iz56MImbXmPnmbmaOqTGfK3OfPxiV4BO6iOc+Q0PH9hCBB/we4DuoNGAPNnPKBGQJ09Z/+LSUvvetRUIUkqttqoXmW8BMe7ghHiyMI5370j6HlikFbiF+jg6WUCSRJ6EzRnxO+6BmovR8e4cESarWTBLR9BjhIYP+tu3KS6oFey3Qx4O7mr80+6vXPx+u7aS30x1wbyzNwfyQjcPNO60p/ce8x8F8/eIaPZw8dstjWpRNPNrkfGGXTWyqPI0TZCpX2Sxnac24RMzeqDaOP7QgfirKDxBM7ctVK7IJZMtUUaHpr2JHCzv1F3tzy6ca2dv3kQpeqZvDZax/db28feCe/e4/tizx7AGnxqSxhBTQigcPnRh0CM96qlVvlDhoeyglwXjecdQvEizaAB5thPZtF64FCrD+LJb7A/ajioyxkInX+bGpdVb7SuXbvpJtGMWPbFvDNssRnajHNrQyIhpGjuxCiBhiUZkQsf5FITLR9PAY8EvoNsQIsXIDCR0nIBa0UfJB4M+TCY6xiVrkc4X9C1jzmyzOjs+v3imvXD9bPLU2wvSiWwO8L0DJfbw/KG2b2Ju9FQVVfWxkDypJHma1fkVo8dDjNgM3WQhRS157BcfHRpSFtC7bLBNn7Ftwu9068Wnc9XbqtAsIy4y5qcnNxbi1y5fFA+foW0HXYYDzdTERDsxO9vm1LvOjs/etE20BOA8iNlADJDj0/ySDze4adKhnuTA2LViBIs84MsGPGSA1DM8Cw56mEMx464TTvGNgccjgH0W4+qtO+0LF260yytr8Wkf3evrYevFSADSJTkal17eKXoRawoScECSgZ6dKNybCtW61UfavfEen4MVhzc04S4GwiaiU3jvLaNOG170ox2HSNmIdPkU7o001Phj6m9fedXfNeXbJsTvnb4FpLjyImf8Vs2Juf35q5GyO4pz1FxLk8HLvmiOGTTMEkqsgcj7as2yydW6jIgVesXMNjLq7VMYIjgpGddLKGco9JyPhBABooPfsoW8XnyR/JtXLrWbqtVWE2sj8OJTOzIz2w5M67LeFp2B+fbZ81AfAPc7sY/lGUjMto0FWMgb0Vj4qD6Flw4wmquowQOJLdfFSgh2PlHyCgTDWgkVEA+uXrmx2r5zZaXiC30z2Hoxyti6HQ2qjboEG5Hw09VkCd8ImHQz4aKJVvQjaT2wkhnH/UbAkgB4NWTotIk1vUo2cfOGE42OhyAd88F3t2evnW5X1pakDwU75mwJeM3ObVqMC8NijGbotuUXskXpMXqAFcIhnq6Dlql+uRYM6c0hvuTS9eDbh7ls8RM+gk5HqGXV/BANpbzNjE8BdMaIqIfTJxNwWmfHC8vLEon8TmoF4Jt49mkhzulyNXrxldzlQ12vj3mOARRckZgEvzfkQbHBwGLZ0Oislzwg2B5gfuRel3vVpz9sDL9XI7iND/16IE/+bO+mzo5f609VFaj7TWDLxegdoMOxz4iEQXCi54hW4ITsJzidCciQlFrJZHOXTLXb3DwTLD41Np936WJ+0McZMkZ7LHVWQtOJwxctlrztMcIH9829jexqF5evtbNLl8MznzjidTvgbHp85oD77PS87JNWPmj9ibIYoQnysEeNDnLp9VpAh++u8iQvBWt6zIRPj64fCjmP4rPpNYYPr2J17bBHQ856wXFBbzuS5fLr3NJyO6vF6PjwaKGtwfZK7MDUpO8du022xOLPm2mW0pYQjIaut+UD9Imr862CHPeIjq3+Yn+Ir+cpKD3vZyki4XWHTeQJVwR43ae/PVQURokuvI2Auqzo0uOZa/z9I38dg79ibgBbLkYXQMpDAI4xzh0GfDsQzQlIEpwGQLZM9ELFkglRYVwyIYCrVxsKXHrDQDw69KBCT5IawysbFrUEuHpsFh+wnISQWdZl10vXz2tC6FBTcrStoC9W+iNze1XMvrPxl4wdo82kNnYNwXhacCQAC3gbvhGPzbOQevGG+hcXOg8kPOr88lvUMZtQeqwMx+xVbxU+PrVOYkBmcW3NZ0cmeg4YiXwrGK8l38Lh5xVd44oNEz0uEI+NjuJCbrQNf5QnOmNc6GrYgdu39HaEvdIziNnztg69dcLHaqwwHm+bA7VhgZ1fXmsvX1+JzS1UtlyMLoQaz6IIKk/1ujWpVuCmOTHMSZIjinndeRVI2xQE1eJ7oLc/P0G+JMVAd71P9ES30TGbNU48YzZq233aYA3IBx/EQeMPbF9buuT/pksRLVP9ZoBe7/fxW6e6d8wOBFiY8LQhJsenN0Ti0NtywpGJXnIKPTw3g/h+DKpmBc5u4QS6X/XY1CBPCoMXah/xGX8DSzTXrRPwiw16wSCvnm/ovHrjRlvhn95A36ZOQK8VwHw6ND3tn7Tw1QkxqQ3/owOfyKsRV2Q6IFs6FSO8HHTMski3E7/ZF2bbdgYewxctuYVuEmMLIg5On23A2lsCteInM6+u3m4vLvI7ufxpWzE3gK0XY7lPX4+H1VieIBgmUIAnkykiiYefvOEnMSfnjIVXAcAta36G5puMdsnQRMzkGDX/MFMfYtPFD3Sb/ejLgLHteg9LXyNi4Sflr6wstTUtym5jp4sR4I+Z92oxQrHfrmofUGtx1grypSlxqEfeuF7GiRO6dOMjefY0QIxbI73z6gJ6eyFK1xKi2+3Ajx9f8kKBrncmStkUzfucT+qRZf+CWXe3jvbL7abOkMQ5XofNYLyWXK7xGzn5jSRsqwe1HzV+88IE4TbtjXs4wxygEyH7i0vT0LBBzYfaRWwdPzXX0IXBD7zwPTaS+lU0gpxsAqFsBUiyahbXbrfTfFdV9reaUlsuRsxl14xCMibUeZGUekuFwNtjD+ltp1vSDlVAWITuAiBv4WrglkwfyXRmaYMYhL4TDeYziP1uIzGK0s2sw9lqw1s0/giZnxk0GU4cbQrrJphe/LZp4ha4k2/HqCbZHkti6HXIJGfrsQbwRxOHVjlDMl9NA0jdX2TMsA4K9lfyQx0KylvR0cFe2YRGX/sTcEx6YQ/u4uqav5XTryK2g/Fa7pbRuUlNU9GoISzn61gTEwN3joht+lE9GSAPLq7p4SfWXlcRBeHjL2MDsu4whAxEaKWjBh6pjNLvDJAkV75sf3WFX3oVbQv1LRdjD4YQ0ouigfNxcuroRcOJi1uFiHZakkOOopUOVO0I5FNQkZAx6oE14xO6RugzLBvwGFvSCJToRA9W7zuupn7wKwYvaHxpfOVOirYTGJ9gPDnjh3MdE/aID19QKk/AJCQQYYxs6VheDC8QxARZ8JKCBR2+dYD0qYtwiQ72QaxbedIKUl/iCj21jLWOD3HAx541YoYx943+64sxuzsFYp1Trfx7M9jHj0zFPjHFhxFDYoo74jLJMo5NDL+wBX/QsVblGX3LexApd9rEb+wBJntUzob+3gC7fNtopa6ItoItF2NCIQjCkDGho8ud8J0IciQiPDpFswxNFArWZaTmAtUlAm8KAXRvvSGHGHpQbB9deF7Z8TfyWU0sCpEdEH3b6GMbY8NYvLp/6b/9ea/Axxr81izeuz8NCMJ5OjbwwWf85hV5/HsBaGx548LG6tbzM58G0XZjM0LQ6aKTDRCdWIdXcn2MnnrsZQIzjl5vubTd5X+SunqftcIPP3i1S5ej9my/AudRMbgB5dfx1O2PKIwdIwP0nAvWgJGN5BH5eNP+KZz8x/P0pW20SjajUbt3yDxUvwP1bRZjD6kHL8NllbE2xnohPNlMpEeHobSt2GWwEX1PBiQhIuptdBHs8tkA0Aor+mCDIXyYVYFh4cG3jbJX9m3DOtK0rPDu4B4B+3y0YXs4wbad4xMfQsuncUsmDgaOBdmij/KMvYghNALHaoM5AADEgVz8RNe2wS0hwFj5sCyc0qMQtqEeedMMpeNt3YfZzr0DB9GJCaxUDBRfQcbv3T7x0/k9Jg0r3lGeFoFjvgFjIiZOvIVmK97hwq0fG4HoZ9Rpg8V7hsQ0srQVbLIY4zzhE1wSoACAA68EjboS4RQSmnAHUwXp3ODC/E4/8oisuEwG6NqoM88mwbo9enNMjU2a6NlZofvzNUbYxChUd5FJLOD4Df9eod93ON5uwr5kt3zlc6vgKT05jn69GiqxkKfjEn18gtqMt5G3I8tqDL3yxI8/s0OSjfkFpedaIgNffe0u1NW7EkUA0iNjrIRj+35AisRRfp0bODUsX+nhq5cjWHCjy9lZIxMlA83BgBeUXrcPPTaE66AZVXv2Cxj1fduthfJWwyaLsTtPoklENBJwD0WNAmg8PBm0XnRcQKS6jjkQOl9v00cTNCNUJWM/o/LYJVjxfIXLuLa2YqHoYclxicSoT/hSEDlHdwAviYL+/sCR4sPO1Cr2LNJRHlwK4cPLRnQ/GbQSAN7RetRvlp9fu0dgdKbAlmjGLfC6PEGGi0nT1RxSyYjpmLo99blci4HeDza77hDo/QE5JI348q1I+YrPUZ7EjTf8msSg061iAhrGTIwJvYP3Wtlf6duvWrR57mljHnWbf5WwzWJMcplPCRzID7yqUdBKCiBZ5A3oMPbRmjF48SWeHY8M/DH9Qa5owtf/+RV63SNyeTzvs4Jj8jsTqvTw443fDKJj3L7UcbQt3fuFkb3knIMBcdWEj4S3+OoTAjGoPU+fnYnFXcVXMfNNJddfg77Ixn/9rfuzj7vypIueKDaafQrZLi2SOAPB41NDcvM+SHsj4BzVHEYoQ2M8nmdAPB+B0VMnvu+xPSBPXpzxwu9zCC6Fsk0GIPDNMdc90jXb1Xr/VwubVLRXQEF6B6iRpGNMkp643kMJ2jTjyNHYYWN88NoB2anRgU/vstmmKNrYNDwTQDvfDAhujtQynR+edwr8GscgO637E4jZc4Odo/QbAVmuGLMQbdT+HIMBf5HpfunH8/S49KLJookcMY4OGhqjB58Oaa+ynmdBt0ePDqSOE8CYzYHvLXRhstnlkWPjPIXeK1i/oPuhxVv3mbjGYzKNl0R89lcAnM2iD4gnmeQSmu0blxwsZNV3n5HhFT/j2A8CNlmMCcbFqKJw80yiXpzwJJJEkE1yTiQMy4RVO7LvPZr5MIHStGrsm49OyXrCFB/oW45k4NEz0XqZoNBrU2MgYjamNz321VmOdyTuFdBKnvjHkHq77cdbYi0fdmjmkKdzSSDFsrS10AeGOmTkPG1VZONWtPKgg7Gh9sUzjV50s2gywgt6PEPvMcVPiOFH/t6BhQ34MtWWelTxbS62IxaZyosu+2mkVWKRkVJqCVfyosUexG4TWvc78hkK0Pu/ethwMTpmwfqngwpXjaNSwk06lLTvqBRE+tW7BuAejFrkaYB6ybBzkU2BgsNDpfNLOnxjaujgp+jZcUzosoEeJOsUlL3Bn22UrQjfM7AA/UVg7KnH7RATNFr5TYxAaPTDpKfXGLBOtcQXm+ZbjzyZgKVnNeQD6PQ8u030sOf3oDeKMT2Ww7NM0aiz+dgs2r1CYsnnsj2WUQv/7v3pGWaicGKyicgbMz266DhKCMg4B2HETIMnTuSQsLQpP2jYcDEmzNamdk21CV+7J3jfUAsbT8hJkSwKJOsiZNwnAV2KE93i6i33osPyTgh1ZMME+PjpWvgAQV+UUkKGPjsmeO01EA/H+ajj0WLQzITSdXYOmSz5uXe02fmhexT79guxfOrlFErXdLtOBOh6EknItUPEiiAIIA+eHh2EYBkre4klXMvSi8hPTLgOkDvfIBqKYJbvumxic3xf3StkDvEzHplXWOIVOjT1vCs3OyFOYrE8QFwFRUzMxUW2s7otxoN24g+A2YlHP0jYeDFWwfg/8/632UwIjXtSARJ2pkKVHAWoIljWODzspS8r2kbP9yLQwUszRZWMdwBinVOafUAsIUZGva1gUzagdU22QD86QoBrwJ/jgE5GXXrnQH78zDtfh7M/u8C+EduPeWhwJFNushCrDuaM9dDgO6fgQsPfKk8ULYuV2MKY+QzMT6bYYhtGxRV2dIRD8/6VTe8rM7vfnYPnkXWb/9I/VxJ5JV6E4seOATrTMoQweIVYMYUu+8aFlQ26RFr8wpEp49X/4GHjy1QneKftndyrI1j90JLTIOi6dAV3ssjmppq8KKgnCXwNMjHMKt1yKfn+WL/b7UfNFBgW9JQOI7Ep6f5wSDL5O0ho4VsHGevww1cB893wET5/BYFOni52vWjuFLDHAWBKl/T7p2ZkTy/is6VMCvL0JEbeeTp08xyXXXZ+Ykqsyc3ywh2jhet2YciTHAqQF5248gRXUHmSn/XhWxP9vICURiPb4MypsQz7gKE3fOMakKeJ9wCeK6WzMD3ps6P3o2i9DnlSyzgenEv5jF/R1CwM3XLwNMSGmHniW2zxhifG1N4ULEDp/dsDamWsB45YFO7gzEKbmZzNz+CTvIDwe/J0JG2o3qlSBd4UFhnTcwkHpOBgoYDnLwYUDqReaA8oYGwYKHih/FMYH00F2WkgNZYuExQSDD+Bg+f7YOl2phq7yrr3AZ6cssv/OTwwM++cGeMlBwpL9bA8uUPKBOQpqBeomYHOB0lcozx90IM2KGA7k83CxcOmQbiftHYd6mC0dIzroCVdTMP0PoyQga4v/hG5G70HsAPpy/jcxO52aHpKITMvap7IMLYdBvsJeRGilTzNrzwjP8rTuP8niDvLshADybdvR+3tA5XJesgR5k47Nnu47Zvc0/jq9PhRzUmQKXI9KYpRRTLAMzkybK2CnGVq58OBgSpjMb1wYDG0JvrIaVuy/ehpvOyg5MWBbChmmm9CZNAdjrjQzY7evYLrUnEcmp5v8/xNo4J0zJgnTvU9fmLpC9hxmZM+ZzLyGuMXjlCXzziyiVsgpkXpsWEab/x3nXSd3/Ud/piuRdl4kZQ9jaM70sto5+D7X3rZ3DM50R7dM4dTN3zzDAE+G/sQy/UFhw4LOfj0ka5YJRMkuVgneVY1ykbwPno7wYaLkXiZYLMTs+3B+Qd0CTbpb+g7KRcBGc5uwmvoHQnei6Q3Gl2g67JzKWgmcRrVywGg+GNantbQsYAJUTve7dEbiMk64/400IaX6cZB1MNUnzixe+9AnZLLnXZ0Zk87MsvPEMYX+YzyjH3GII7bUQHVEw+Y3sg7Rsii58xuKdHZbfGBMdfHOsUX2GfZgjksKhN6Q05YlylaFt7IpnU21KftHByDHGZuTbSn9s7lAEQA+KmcEztofCZPjQkIUfoOls1BA9zNOul5DfqmjUZvN9hwMVIsF0XVeXzfw36Qkz8eJtek56KCQ6MgFKM3S/RkswsjwzD07BS44kclNiwdLWsiD50aln/bsD3sohIN2uB3TNb+y5alRB52rEUjw+tewYur4MD0XDuss6NDwr6BPMFlXbKOgbgHf8GRGRaqDYCnRa9otj7Ks9uzbNkDRwo0fOQZhs7WVtDpMp03KGKHTr3l6QNg3ca9gPVkr8+lh/fM6D6bA314bDwnJDOKNH6HulWsEQ7PZ0ThjhWy+cmILb0ZQ//2hI0vU70D1Cv2x/Y8qEm2P2lRJNH8VSX1vsl2QdR49+J4SxFSPArlTpuUpuiM8AWfo1s4Iz4+vAMsMtBzcy+CTbAB0BeIN9pxEIqPDfRNp8dGaEiYZ8H7A+Kcn5xqj+891GZ2T9gPvpNn+OD9mzLxSS2hWyAxuiNH6DyEKZr4Vt0kz54HwuDY6/z4K3o1x9VlTNPQhqMzHGxFge8Q3Y9atO4NPIcc0532hC5T37sw326s6fwoWu6Hu93MB+TICbrR8ut9KMz5OTg24QN5WEOfbQmpvX1h08WY+7Fd7cDU3vaufY9JUMmJlIlsIQ2qGLxdsFoklXRMRB69ohpHBtVuI6WiT4NpXRiAjcRG9zmyGf3YFA7fhHD7jvO7x2Qd+NiIfsb3DjnLY7i1Dxw43hamZvN90fKbPISJH7/xapyYKl7oztF6Faca40QWuh2hA7/7gFx6ZttAbMIPhOj6W6bGcLRxTGUT22jBCydyoYGXz3sE10GNs+Pc1ET74IG9jb8CteU4E8RXaGob5GmgI2741gl9FCvj8fb2hq0vU9VP6RL16f2P6VJ1xgUkJ3a0iyMZIAtx9OSKUsCHjQrFGzhVSKtix4W0urfgVuKtnrGLbD010BrHPQ8+oAkTzXFZvXwypnfQXZ+uv8bH9wd9sWHowbmF9p6Fox4T3/o844PtkBkxWbX4jAF3jNENjkYAHXyCo0VXfByiQGdOzyt4ZPTGruT8NFe4a+c8im/5kY0aeIxurk7uHXzgcVHwdad96MC8H+T0nzIc8gCcBzS/A/AZiJ6YIZY9b3sPZDum/baGzc+MaplQu1SsB9vDe08mcfKiCCTqdwqSTwowFx419OeIwoG+SErJ49t+EMEwOi4ictBLlsvX/iNOmOuLGRts4jd6o6ewWNRLTNslH/T0zgEDbgA+NoBOu2fAPgkL+Ldnnzz2qA5ek8pfLMdlIcfWffhjD3ITcfAvQWSyKEq+7CLD2EUoW94HNNtQj6yVMg4fCD7UTjL9oQc16pN6mOQRiQwjBox7XPjJ+77A80tGyenxfXPtxw/v1RjbiclAQHoTk2OAXLhlwE1m/8EMTqh9ZCFDKG932HAxAn0h0u/Xper7Fp7SvdCMOCSstJ1rkk8BxpKHbnRUhOzoan2HFr+0alLIUsnaTwxFvujxFd+2YD16CKYIz98zcm/oswC4GT1Sxt1G+iyQewdi7LWiPbH3YPvIwZM62vNThlze94jLL+PKxwvVusXvOAPHlWYx6yGk9114krSKOxDY3UbnuVCe9OBpxjEWp0VGT9vSsw81i6n32JL3Dn1uxVtrP398v2o221Zua1nBwzbu7CNSowNrkUI2DcBaXhXw0P/wwKazz8VS8wTTHvno4fe0R+cf8E8ahq5E9c7uoAhVGBFgwWfHwQteOmpZiC5t+IjBgx6D5gZHHgL8GrtFN/aK7zE4b+GdPpCJM/6GMQi0wf69QxaQrKn3vZDOjr944tF2bHZPW9PNI1+KdjyDnwTkkB1DaO6GONig5wAtDAt9/NmEbUR+mMClx7ZD6g+CDA1cTbhjV7P+AOA9LqHqBxScOWF52r1Dn1skQL2e2jfbfkELcn4yXz5wXPghBhTIExyW8GGflX+21GmYE0P/wwVbngooehAe2+9rP3fix9vc7llqKKAY6XujSH4ipkKm1hQV9RTfkxVGpE3HxjAZLRt57334RuHDIdzo0MM0z7IFtgGdS0A1fGrMyzrWzuWXz7r2S2ywuu17A1uWATfh1O3dC4fbr5x43D9UxaN7bI9fStoPfomdMDQczuR69dqYQ1zwenxs1IYFYT1I8R9Ats7KshldbKAnrnWFEzM8bDC2HnagcbUQumXcouM8JHO/0A9eGMTXL53Y1z58YI9pPS+29ies559c1YrvOL3NKzHRfvhgy8XYJxiF42fv37P/8fZTRz/YltaWdbMtVS7r2FNK3jtKsuzBXhQKSW9yFTWU4B6XHmsNcRe2bAw7gIas+bWxHpMMQvGh0Xd7kIpru3rZr4iejGU/dsCtfd/QJ5j73btVq4faU3sPtVXfPBJTAiImA2PiMZlNxqaZL4y4bBNC8aHRYxPZGvf8rI8fdCQzyANlZ5jQ+CR/M3Kwszw5wLNe0ZAvn4zK2H1Bn1u9Xnw17ldO7G97dXYc/4KJ45YMuGWlW1yseNzxwP3H9IOGLRcj0AtGjnz/8hcf+In2wcNPtxu3VvL0yzztSncpkgsGQSPYLqqQXjiKGT4EyYiREoJHggUShbKBDp023ikQ7a/s4gPc9hCKenYcZ0K9iBMG9uBXDOi6Wf7+YaiVAF9HZ+fbrz30VDvJ5Sr3Q8QNT578vV29+Kn8YTFZNTLGkIdoQuIj5+SADWcFy9zoIVV6oCJaHig76BIfeMzHpsVFz1/TIBO+fUbcOBCbwe8X4qvH0NqPH9mjM+SC51WPb7Q/nalpQPz3EdtwO+WHEbZdjKOC6TJLE2phek/7ew/+rC7DHskEI/mxhxQUY5jk6qijd6w5pqaQHnSBksEGO75wDIx0Ap6g8EwoLjoQtMMGfdHxwwvcfbcnAjZCZzySp38j0OslxLY+eOh4++UHHmt7JqdqQXI1kfh7Lq6vtcf8I8NYhOQRWs/TfOeZFkhvG13M/E4sndJF2mRhvOyn8/GFGD0v5E1jFNk3CvElS+pJlL/i+CePHGqfOMy9Nj4yQR1X+YSWUQewUH/YYUdnxhylgrMgH9l7ov3dBz/ZHtpzrH7IlnMPcq5pIPXVzouLlCzF9IY97UHdRwpHJp97SQeaABE8wOVskj/nytgw9nGAbZrMpvgF/IUH/8LBssLpE3PpjMXwRoAa0XzVYC9NR/tH299+8AktyGn/L48J/Npf7mkD3FOmZ9ITyPBDUwL/az4PYYTve1DkoWvbc+t5GIeTR7YpOULq0Yp8tA0m4Cc0tuxe7MRtlMvEmwJ9fvW5xZ9W/R+eOtI+cnDO9Fzh14Md5P3qAPZmRvODhW0XI9AnWG8U7en9D7e//9DPtEf2nNCC5P9TUBA18VMjdj7mQx92uidScFD/GdT/v7vz+42qiOL4oaWltGBZWyhYaymEgkoaYqIPJoSIkpgYn4wPiryYGKMmBp9MfPbNP83E+CMqMTEkBA0YoS2w0F0K+P18z8zd9QehwiYEzt25c+b8mjNnzszee7dwvQKRhycG33CWINQl+OL3Hg5ZqKHVXRu7JGzq5EFiebo0sf429H2uOCQZC7nqwHNHDw7evGSX+2pixW+Pb87uj7fnFmNsaCRuapV5DPmxv/3xwaf0hxHgO2SEVXASvoWTT93Tz76JfW88aavqAujXfm1FBK9ZyaQINPRQKXiRtz3Xg4GaV9glXru3jsani7vi2Mw2b2o8caWuftaxJzY4Px42bGgxAiRY3cEo4Iu6VH1n7/E4PLkQ19Y7lmt++HdwgZz2OulOsBJDEq7BkU9RE+rE24qTQoyaaEbTpj+0i3r2krj5QGZUT7502tyXCodWentgqPGp8SLBeP3Zq3vm4tTCs7F9ZDQ6/Abp/vBLbiBrP9GzFXPBG7+hqza78n3OmKQQAmkzDfeNE16B1BPJLGRkz7LQeja8SGQcklqcfC49DAxqrGq8Zsc3xwf7p+N13UPyrgoegjFi3KFGvvrzuMCGF2MNVA2aaTrmt+2JkwsntIstxWYdt3QZBj25BJlp6+E1LxJPO83CtZpPvalG38rYSDo2jAsBR4c+kor9bFdZ8zHCR237JNz9qvTrDApqvJq4icbPHK/snouPDizpnrvltxOti0Gv9WHY3+OVfvlTx2EOBcg65wREJ+uDo1P4YtY5A7CRfYhmm+6ogNpuYoCriNSvfaFT9QcJGSfGkb5ytTI9NqzNqxXv72tFa3TYbwF23hR5fHucYMOLsQJBaBakPiy+HVu2x8l9J+Kt+WMxNzEjKa7xCWfeE3niSRLi10yu1E3DnpsC6MgXaPhMQNK9mMBFd7LZPpC6tWATzHzkCmSyFx8aOjRKWhok9O/4FV6Y2hWfLC7FG7PzsXN0zPdFvjdy94wUPRUwN+Sb9IlocrPY5xqDIoMJj71vnA3ugm7asY6I1JapbQtIDpy66FBXG9XOICH7l2X1mZenEa0tQ7r62hFfPDcdR3du1WU+b3ViUSJX9ezxIw//ezECXmBN0Ia8IHkYcnT34Ti177U4PnMkZrdO6XLjji4v9E2pIDN3dXen7cnPlWWa6zrJwp0s7qfgpqsInCBFz2p9gJx1igwTDHB20nGIZx+QQd7UlEnDg4MmViVe9EEy7RmfiPcWDsaHB56PF1szMTE8qntJeBIgNkhaPmvI4Pktli3OZpdxmaxiHB0Vx8z6qi2OXLEEG/l/yIKCm1/00KTQZtpy4xgs0G+NF6UuSN4mfeTJ8Th9cFqbWCsOPzEWI5LtKFjcT+Y83h0elcWqHLl/T1GtwXNbB4tz/fZ6XLyxEmdWz8ePq+fibPuPaK93nTRMpl+Gy+Q6iCRG1k600kbOZhFDT7gTBkKRQ6Ynz1FxRFQjn4rpZ5FLmZQD58z/8zM3viM+XnwpnhqfbMZ0r4neKKRP6hU/VNP2Tqj21W43zl67Gj9dWYlvLl+Kc+22Ll+zf/g+7Ed6S43/BlaMPha/xzgrJWnCzRCu2gvUulVWNJVsgRcd4WwY/Ej/5dJeXQnxF1ni2L/BQn9+seiGnTib4sL1m/H96lp8e3ktvl6+EcvdemukmKqyVPEnzw8PhuXApc6tePuZyfjs0JTvfUdyAfwLHmgxAv0TUU05MPqwo612r8XFzkr8evVC/Lz6e/zWXo7uHV60edvfEOx8fprpqUezJIKTA4TJoKq8TAnOlNTpSzCdoeW/ALCikw795AsvUnZShW91nnDOazGePvRyPD0x6YcIwNDQfV083BUcI48lcQ7/NZOgs65NbG0tzl9vxw8ry9rIVuKyFir3SsTK8ZImMWtio7bHcls2Resfp+Ogc7bBEyO20C3l+IqDTzaQ8raZEk07W5u8UUxtGY2vjizEXv7rDMVq0HGqUPMrY0XvKumUF+H5GzfjzJVufLe8Fr9c6URb9+FsFtyL5+WsRa33MIDF+KcW47u61P5cl9pd+Tc6/F+xivgLIEs8nOtvWPwAAAAASUVORK5CYII=;" vertex="1" parent="1">
          <mxGeometry x="240" y="223.9" width="87" height="82.4" as="geometry" />
        </mxCell>
        <mxCell id="jy-rrXg_5H6nWXyfPQef-34" value="" style="shape=image;verticalLabelPosition=bottom;labelBackgroundColor=default;verticalAlign=top;aspect=fixed;imageAspect=0;image=data:image/png,iVBORw0KGgoAAAANSUhEUgAAAJsAAADtCAYAAACoGgdQAAAAAXNSR0IArs4c6QAAAARnQU1BAACxjwv8YQUAAAAJcEhZcwAAEnQAABJ0Ad5mH3gAAEBDSURBVHhe7Z0HtCVF0cfHTxFlEZawgCCyIHEVySqwCLiKgSwogigIBkwIJkwYDkHFgIoSxIPiAReUoHIMBBFY0hJclChhJUlYkigIxvv1r9j/WLd37rvTPXPf3mXv/5x6PXfedHV1VXV1z0xP9zM6AcWQoYlIz3jGM8r8OiYdYf5jKJ2tCbxzjRxtuDCKbCOMG4bS2f773/+WDsIxQEyRd6LYkf7v//5v7tFTzubTEeYvxs3ZUorhWpyM9JnPfGaXA9XBP//5T3Mw8lU5ZBW4RjKOnHMwGJrIJgcDOJjHww8/XDzyyCPFvffeayTHICXPUkstVay44orFcsstV0ycOLFYZJFF5uZ8iu9//vOfvo4nfiMMDvM9simCPetZz5p7pjCHuvzyy4sLLriguO6664qbb765uOeee0pn7IWll166WG211YopU6YUm222WbH55pvbsSLjv//9bysLZ5ZjSS6u0fHI6QaDgTkbbDFaFXvO4TjQs5/9bDv36KOPFmeffXYxffr0YsaMGcVDDz1k52NUOUKvKuBAm2yySbHtttsWu+++e7H66qvb+X/961+WKtqBmK9krypvhDwMNLLJWL4IjokwdHX8789//nNx3HHHmZPdeuutc6/6X1fK9aJ+gJ93IMoRFl988WK77bYr9ttvv2LLLbe0c//4xz/KMaF3Ksnsz43QAoJSB4IQteZJoTB4t99/+9vfOoccckhn0qRJeJFRMHwndKedYOTyXBOCT3Ak4+vP77bbbp1Zs2aZHGE81wmRrpRPBJSO0A4G6myeMCiGBaG77Ky77rql8XGGthxsLPJOF7rvzkEHHdQJNx4mE40A+SAv9wjtoVVnk3G8saDQXdn5v//9750DDjigNHibUSyFvHO/9KUv7Vx22WUmHw6nRuHlB0pHyEdrzhYbRVFM3eZtt93WmTp1amns8YpmYxHOTrrooot2jjrqKJMTecNYr9LRlI6Qh4FGNjnazJkzOyuvvHJpYDnZ/HY2yvddK1EXxN0pUDpCPlqNbCIMJUebMWNGZ+LEiWZMRZJhI+90e+65p3WloqoudYQ8ZDubN0BMGqNdccUVnec973lmRB9BhpG4a+WmgeO3v/3tJj8NBqpyOKUj1EfrkY3xDpg9e3bnhS98oRlP47P53W2ORZJvkUUWsd8f+chHrB40nF5dqtIR6qHVyIajQU888URn8803N6MNe0SLiQin7v6YY46xuhLdqB9OBwF+j5CGVpxNTqbuc//99zdjDesYrR9pDMddqh6LaPxGPeV4I4dLQ/brKp+N42AEe8/5i1/8wl4LBUez2RaZ7PsiOMTAeAPqEiJa8ZKXvKQIDlc897nPtfOUCwn+eISxkTZRrAcweogExd/+9rcijHXKc205AwaFPyTjijfvNTkfv99sihDJ7P0ts04OO+wwK2OQzr0woBVnC92JGeNrX/ta8cc//tEMT1TLBU4DyZEwMvwUKXGCJZZYwqInZXOelP9xPSTkOiC8iNbI8I1vfMOcDr5N6rWwI6kb5VKM57NgZAxy//33W5fDREeQwHYeYFR4El3ASiutVEydOtVma6y55po2WRJn++tf/1o88MADNt/twgsvtO6OeW8AHsgGkFnHqUAO8u68887FGWecYTLh5CDXkRda4GwpCIovU4iBM/jMZz6DdzW+KQhOUh4H5+1897vf7cyZM8fK6Id77723c9xxx3Ve/OIXlzyCszR+5AIP5OJNCHXmJgFIFyPUQ5KzxY4WuhRLH3rooc4KK6xQGiY2Vl2Soy2++OKd0CXbi3uBxw9PPvmk3fFyjJOTehLId8QRR3QmTJhg/JrIBKkB8XYBULZ0MEJ9JDubCEfTo47jjz/ejOGjUiop7+TJky2CAMrBsHJqSNCxzkNc553u4osv7qyyyipd/HNIkZG3IbfffruVpUcgI9RHlrNhVEgtfNq0aWaMXIMqH9N97rzzTiuLKKbuirIEyaBjD/2P69UQcA51q0So3G5VMoabBeOruoNYjhGqkR3Z5AhhcF52V7lGJN+KK65ovIAcDafxZcYEqs6LeJMBbrzxxs5yyy1njtbU2cJNStnYVA7wxyNUI/vRR1AsjlpceumlxeOPP253f/xORTC85Tv22GOLNdZYw74L4G4vOEXX3R7HMVWd99CD2bXXXrsIXX15R5ojp/JeccUVRYiW5V0qZcKvqvwRupHtbFIwn9vlAoOFCFa84x3vKLbffntzDByE80KOAZUHPjhu6PKKHXbYoXjrW99qDuK/K60L1TdEy+KSSy6x3yL9X8cjVCPL2VAqBsM5Zs2aVZ5LBYYPg+7i4IMPtvyxY/G76vxY8HmU6phyFltssewHs2oEfNMqnr6sEcZGtrOhYB6g/ulPf7Jz6mbqgm4X7LTTTsWqq65q0UfngDdgiiFj45MS3Yiga621lpWHrL6suhDPMAbs4qEyRxgbjbrR++67z57i50DOueeee3YZS6nOierC8xGJFyldKUhtHID84I477rD3wL67H6E/GkW2O++8036nKl2GZ32OjTfe2H4TJeAj3lBbgJdk3HDDDYtJkyaVjpMC5eHDapyN3zqXw29hQ7KzyVHAnDlzLE2FDM/dJ+tzMIYSX8+/LYgf0WyFFVawckFuZOKOmYVufIPwxyNUI1nbcgiQ24UKvGCHn5xBfAdhOMrA2UiJqE2BswGvj5HDjY0kZ5Ni5RwPPvigpblKfsELXjD3aPDwUYzoBpo4h/ihC+lD6QjVSHI272ggV8kycjxIh08uz37w/PxdZC6Ut4nDLmxI7kY9ll9+eUtzFc46bB7wkUMP0ogM8Jsi5252YUeWs8kRNC8/N0JoFUnvWHK0JlGnF+j64K0Jlk3Aw2hB8vt6jDAvkp1NjgBpoJ3qGHqCf8sttxR/+ctfrFuDh6LFIBwNnpTDzF49iM4th7cnLKlK/kE1jKcjkpwNpUrB0OTJk+f+Jw3icddddxVXX321/W6rW5LhJaugO9Hf/e53Xevy5uD5z39+MWHChFIP8GnCb2FB8g2CUhTLXd2yyy6bpWQN0k855ZQuvk0h2UhjvqQ/+tGP7DjnGZvycBfNNxCqt8ocYWwkRzYZkUhBC1d0k0HrQpGMj0gYQ2HI3BfkHpKRVA4AX96P8prppz/9qZ3LiaSqIw+FaSy8zwUqL1UHCxuSI5uUirEwIK9/QGqkID95+Brr8MMPb83ZgByNMkj1hoLvP3kQrTFiCrwjvexlL+vKz7F0M8IYCAqqjWC8kpjrT3rqqaei4eyPSoLhbbr2+eefb2WIbxUBpUJ8jafgZDbrF7C0KmVBwTEqZelH5CP/73//e+PJ1HDKgABltoG4HqkkmWKqurYuSa4mSHY2gOCaFv7nP/+5s8wyy5TGiA3UjzAeKSse6fsDjFiFOpXmfyI5GqtehnGWyYdjp8opJ+OY7yTgC//YgOMJlYkdaKCyRx34PHVlb6N+yaPkkMdSdXs8/pg2bVp5LhXwIB8zSNivgPEb3TMTM0MFrTylwehlKvBbpOsgxlOLLrqojdPge/fdd1u+oGD7fwq4XmVus802xhe5Bf0vlW8vqA4irwfKpW6klBsagT2KIQXojQkSoYHZIx6IY+rPLGN4+Dzw4Bw8vf5i4jrSJmi0sAwVRuBf/vKXtpgMToPAOVBedmQJXbN9XY9jcI7/QTIqqDIw8nA9MkGhuyt22223ckmIXNmAZGBDkFe84hVWlmRCBi9bU6hOcd34zbR5gfEndbzyyivLnXBoXI899pg5nXcQGjAP4Zn8wCRSvstgQxKmeDHlSiCf6qU6+bo1qmcQpjaCscoUCgow4rM5vl6HXRDU0hxSXrrl733ve8ZboOuie4UI/yKdo1sQOM/aam2teknXSxqcbJ7ux+skF56XJ+pPWfosEQQH65x22mn2wTRDg1jWVELXO+20U+fYY4+1IZEgnSJDlWxAaV0kOZuHCkUogHMgfFPDemfdbLPNOj/+8Y87jz76qJXRD+xpcMopp3TC3WLJA0dp0gAg1enkk0+2cjCCV3rbkIF9AwrdYedzn/tc50UvelGXbCHSWB2RkXpCnIP0f38t/+d6yP8PwvHe9a53dUKknFvq/26C4vrm1L2V9dlCwRZ+N9hgg1a6rKAEI/FgzynGhVtssUWxzjrr2NN7yucaPiO84YYbbGGZcEdbzJ492/IgA9foutRqKo/qst566xUzZ8607kjy6bqmiGULxjW+DAVYsOcrX/lKccIJJ5Rz6JCJ/yNXar1iwEe68jbbZZdd7AMh6g1ChC3LBaTk0e9aCBmyEYTraoGEd1iq1QTh7Hcukb+KRxh7dJ7znOd0FltssXn+1ytPDlEHRTUiJqBLU72hHCif5yNSl0lEYW8GraECIQsy6fcgyJeBjg888EBbywUgWzyEgIDSsZDtbL4wwqyUFG4UTFAczleiCeE88KtSthyiqltoSnK0V77ylVbHuEuBcuHzipcaLY9qXvOa13TJIVnGi3x5a665Zue8884z2Xp1q3XQmrNpHIOi6PsxfFsRphe17VyeJP8iiyzSufrqq63O1LENZ1M+pXJkcOaZZ3aWX355kyHcebbaaFNJjVzHbGwnEOFAii4ad6M+lcKmT59uAtI6BukQgyScjPRLX/qS1Ym6xfXNBflFGE0R7ctf/nJZ/vx0spiwowLH3nvv3QnjZJNdjQ/U0UmjyBankBxOG6LROr3gCwLJ0Ntuu21ZJ9UPAv64DuJ8kHoEoMUUMep4d5l1iKChBrj99tt3HnvsMatDL91UobXIJpICabE77rijCTeMyutFasFTpkyxgTH18ApVfZtAelLDlKNhTJWvdJjIOxxjc0U46hLrpkpHjZzNQ4UChVc2sH3ta19rwi0IDicZeU97/fXXd9UFVCmwDsgXkyIa4yDKJJoOo4N50pBIkZ+HweiGBgnFdYzRmrMBXxCFA5YclcPRKvwYbpjGc2qxrHx53XXXmeyKPKBKeSmQw5JqgsBPfvITK9OPiRYUksPxaARUPRaJ0WpkAyhThclYOBxbZSMcih2mKOe7hjXWWKPL0VQP1U1pHfg8nsT3hhtu6Cy55JJWPo42TA2vDiGvHO6HP/yh1ZVoHdfXU6vOJsLh5HR4u1q1xiYQgs5vBfuIwnMtTXFSF+cbDlBaFz4fBD+cjRUx9UpNBluQnA1ZPfGoi9dp1FE9WpWuWu9GlXpCAAnx85//vFxUGUHHs/ugPKWKZtDHP/7xMgpXRbQcKK8aHiQnPuyww6xcOVpbJH3SiOCtXoS66lg6aEKeh+y3ww47mI3Rn6+z12Xr3ajSGBQsg9599922p6cEblMRY5EUr9/rrrtu51e/+pXJhNwoq5f8qYCPJxwN/jz0Zul9jNTU2dAXRL1SeHl9I0dTvcOLlDEooK7YW/oUZb+IrwKsguCW9kIQwCbuAV6ch7uxcqlU8obKt/KCWYCnKCjAzvEl/wc/+MHiQx/6UBEMX75khlSu6kGaA/FRStnUm/XoTj75ZHuhT7lNgGzB0CUfJigwH5BvJF70ohcVoXuz+W+sycLk1GuuucaIb2cB9QXouwmQAR7Mk2PNYeQQuvQXlDEuUEhVhFOXAs444wwbMwXBsIwRx7Q6/c6hOD/71H/2s5+1yCrUuYvKAfVUqq551qxZFlnbqJvXFdOODj/88M5NN91kZY6F+++/v/ODH/ygM3Xq1DK/IlMTUmRlhx2Afb1OoXFztrhgSEYQLr/88k6IOPbiN65MLi299NI2nuCOiflugsYWlK9U1AY8PzWsd77znSZTE+N6R6U7PvTQQ7vqRV1oPJRJHSEalOrrwfw87XaNs3gHTiXJxDca3AAhQ6zXcXO2XkCIWBE8DL7ooos6H/7wh7PHNUQQWtkdd9wxl+tT0HiCcmPltwkpWFHzrrvuskcdVbLWJZxBY06MetVVV80t7al6+QgdQ+chrlUDCF1q501vepPxhHeTiCtn/cUvflGW48sd18imtIowPMqiFcoJ7rnnns4SSyzRVZG6NHHixK55WDKGd7RYBlEbEC/KBt/+9rdNribGVN5tttmmE8ZhxpcoQmP18tchdKGHy4AeBd65jRuSfLvssovxjOWa75ENeIFwAjkGO7PoO4IcZ+PZj/h554odbRAQb+oBbbXVViZXrrOp/htssEHZbWq8qZ6hX330fy8XeSHAjA7KaNIgIIYujItVjspM//ZuQAjKLFPubkRC0MXco3rgeu74guKMxB9w7MsbFIKCrQ7sCMNdms6lwMsaGpCtVUIaHMTubqkbZfjrxoKukV6UF37HHHOMfXEluXMAL1Y5YO9X4O02FM6GgAhFqmN/Xsd1oOuq+JCK9FvXDALwhvh24e9//7sZNxXkx/CkLB/BJ3ghos3jDL5OveCv8XXnGAd7znOeUxx99NH2Xaz+lwrV8bzzzusqAwyFs0kBpDr251OgylXxIRXpdyr/uvDlXHzxxXYupyyMF7oi+5jo3e9+tx1XRR1fp17w1+hYoBfAifmOdN99982Obiqf71nhAV+dG5rIptQrwB/Xhecl+HMi/R4kMBYKv/766+23lJ6DAw44oDRcVYSsUyd/jb+OY3hCyPu+973PygrjwDH5VUF15INpNmUh/1A529MRcopHH33UvlLPAYbC+CxNxooD8MSB5RxyhFSHEMjnSc7MWwgtqZEa3cgPL8ZtvLWQo3Fu5GwDAspF0SzjqjV8pfi6UATbdNNNuzYnAfCSYVP5CuIh0jnA+ii5kNw0MskHjZxtQJDRaOHc6clJUiAerC0ig3nIkDm8BfL6/Drm/SpOg4OnQjziRjZytgFBToCzCbGz9IOMxioAHOt3fJwLnzc+ZoFqVkRPlRkoz0MPPWQp/KCRsw0IMp66lByjKarQhY4XJDezYVg3GOhcXaiuPh/nxs3ZJABpHdK1uajio3MxjQdSDSaQj+deHuMhM8traZ+LVPSq67g5mwQgjY89CbRq7sSk2LoK9tcpP3yVVtEgkSq/B1GRfGw3CXJ4pMDz5y46dyM88UH/Anoe18gGIYCE8L8hBtKkCMYtN69ldOtd1yl0HSljDlL44ryQL1MyDQLiy+MEUFd+D+Vh+yP45fBIAfylE+6itWpSio7gIZv5iAyPgTmbBJTwkJTFsQyuCEYr5l0fgv7zn/+0B6EsW687ubqKVrnwuOSSS+ypOJUWbzmdh5dRpPO5kOG0v1cTsFGI+Hkd+jQHnkfMj6VRq16L9YPnxfNBoN8cDBzBmUoKhrZZBsxY4LfAl03MIH3b295mn9SxLBbiBeUmz/gQBQfurLrqqp3dd9+9c8IJJ/Sc2wYkn+CPc6DZDsx+WGqppUp5YhnHItWbFS/h52dQgDjNgc/LMbYBH/rQh6zsEJm7ZKpDqqfmtcGTdGDOBnORfmNYDCywoiSzRVmmgSlBsdChVc1zLoViJ2Xy4lve8pbOWWedVSoVSBkgljkXcmIa1XrrrWflpzqbiPVSrrnmGpOnl8PlwPOAkBliWQUaPGXnyIzecVJWFYAvMoOBOptSCvMT9Zhn9ulPf9qijhcS54JyI1kVwUt8/fn111/fZvJqCVU1BNLYoDnwSt55552tzJwoIbmJNADnlVNIxlw5lVf81ABZtsuXnUKyHbbVvDvJmu1svpI6riIUTmGABYL5RlPdCkTLgdp0sF4kx/Nl8b3D8ccfX86oJfXO1oRwXgzIsluUpSndKYSsEFH5lltuMb7wHEvGsaD/x3ngCSHzy1/+cis7J6rJQVlyA3g5G0c2mFRBFQAY8Otf/3onDBhLoZrOd29KlO1b7sYbb9w555xzTF6A7L5uVce96g7kEIBvUykjJ1JAysdSVUDRjfJFdRDLrSBAqp7nq1/9qpWVaxvJyoI5lIPzSsaBRDaEl6L5YopVv70w4xHF6pCihneC973vfZ2HH37YZPeK8gR86om6q5FxzJLv+oKpSb0l47e+9S3jjcOpvFiGsaD/kyqvHC3cvXfCnXujnkY6nTlzpvFsJbKJASTngqRocMQRR5R3lcPkZFWEgtWa11577c4FF1xgdcDhpDDqWWVc1Z+PT4QLL7yw/O6gLZKMfGcLcBJFUC9LL1TJLEf73e9+Vy4W3cTRSF/84hfPs3YblORsZFDqCaG94ESGN77xjaUQMuKwE8rSuIrBvKKIDEPqlSdSBAQ8XmEvASm+zUYmZ+PulHEmoFw5nZdpLKIOyAyBSy+9tHQ0H+VTSXb+whe+YHx9zwBaiWyQBth//OMfOxtttJEViuHaUvSgycvpHeQ973lP2WVhUO9sHCuSo9hvfOMbXdEh5+6zH2FQycbnd+ryATLEMnpZaTByAOHoo48ul/hH3qb2ohtmOTDKiBtAo8hGBSC1EEIxSxxQ6CAUPZ6E0tXKeQ74l7/8xeooY6pxgXPPPbez6aablnmbRIc6hGxyCrp8vvbnw+4YslEMnO43v/lN1/L3TXsf1XmPPfawMtAT5chXoCRnk+ByMrUUwOBSjzQGrezxJDWaV73qVfbcSPUGrK3BHlK61kfE8SCv59VWW61z0EEH2b6qvLVggWU1DMZPrPGBjbhL1KMNqKmTQfCAiGp6+IxfUHa2s/mMEJUBrNa43HLLWcFPJ0cTyeGmTZtmSmQlza985SudZZdd1s6j6PF2NJEM7c+xBsg666xjr7m22GKLDks1TJo0qesaRe42ZJZ+eNUI5OSNIhsZlIoRa1isvvrqXYU+HUmN6HWve11nk002Kc8PS51xuH7PLnEs5OUajttwNPHxKxC05myQGDJuabqsQD9SZTA2iiKNSed1bRWfNsjXUQbz/x8mQjZkbNOxRJ4XeifVnTt+4R0MAqRjOpu/0JO6z/3337+rwLYIBcmJqv4/FqEItd6q/zclGbDqfwsbye68miIAEXxIgXwH6Dhp5UkuDcxsQuDPfvazYqeddirniLUF+AXhrCyBjy/WXXfdYtVVV7U5UkxXpkyuDYNf+xg2hHCbA8eWiUJwPCP4jdAuQoMzvb7gBS+weYOk/MYmPYGz9QIe6Yk+GM/lzka7+Mq7m1IcLZiW8/nPf74zY8aMcumrfuCZE0/uWZVcOzuLhjEaEYUll++ahp2wOfKyRST6BhqneX+JUasbhQmOpscc++67b1loLEg/8krlGFJ3yTGrRP76178uyxKQhXMQFdOxKK4c55i894Y3vKEsb5Ddawohgx8iSCfD6niSh1SOBp100kmlrr3+qxwNjOls3lNhCHi1gVKaRDQJ73lsueWWnd/+9rdWBqBMxgCKppKjCvof18kR/bXnn39+Z/PNNy/LVvnzg2Qsjll7jlkWPP9aaaWV7FzONKTxIm+vE0880XQrXXsCXv9CrW5URiTlWROFNY0QEpxQjMJ10yFnUXmSoS4pDynOqkZCyiLH2iVwvCMcDqYyqfs+++xj89ME3r5oMukwvuZTJObBrXZ04Z0segbSO1Aao5azyWBsmEGBTQ0lwZl6TKsG6qYR2pNkqAtdD5Hf8wWMMWRU31IHRTiNL4cIrnEOQDa9+uIlPrs2cx15xrtBVBHyy1689+U1F9Cdp9d3P9TqRkkhRbUmRlLeDTfcsPwABYXXEbYuPC8pAvk1K4WNL9hwAzn82KktUlQiiuqY10l8dIPzAyI3x5JPkZ1pSsypEy/0NT+inHcyCNsrEiv4SM9K+6HL2VRxEQZCCRxffPHFJkCTiqulsi4sizMDOVo/qgtdG+eHqI+iCG8+5HBNGk8VYSTVlenc7L2gF/k4WOxoIp0Hp59+uu1vIJ7j2bUiv8piAe0vfvGLpVzoD1mB5NZxP/TtRlWI1vDPHcDKoLRwvkUAEtwL3TbEG0ejLpAiHJFVs1TaMqTn8+Y3v9mm2wBkoL6UjywiX3fJqMjBiuAf+9jHykWsIfQ4iO4VueNGx4c61157rckiubzMkrsuxoxsFADmzJlTvmjPqSgVIR+zdq+88krjGff5g4J4k8rA3uEYM9LdIV9Th1N+psH77xkwEmWqrnG9dSzi/3I4wBzBD3zgA/aC3ZeHc+Q6n2wS5+c8U6o0UxnIySQ3UJqCns6mCnOsTVhzKgWpxXzzm9+0csTXI/7dJsSbVET95HD6+sl3HylEHhmPD3vgDWInq0LVeS+jun3AmIkd/ZjFUSUD8ovkiCJk0/mqOvKdBJ8L8mhLoFvXMEoE4rQu5ulGPWMKAnQHCISwsZD9SA7KXRiKh6daiKdBQbzj8pABeXAISB/lYAwvf12SAa+44gorT1vqQKCqzhDwqSfySE41DIAONTcNveptTgqxRyhj5wMOOMAefvsZv/BHJyo7lgsoTUHXu1F3aO+5gqPYAiOhJRV333131nvQYATjM2PGDFuuM1Sk0WIrTeDrxzFEPcM4tLjooouKrbfe2v7HuVRIN+z0d+SRR9paI9STugt16yvdSw7k5Df8g/HLdUsEFt0LXa0tK8o7YmzFCkQqGz6LLbaYvVfm/fLkyZMtXWWVVez/ArYByoe8KltoZLPArAt4M8CzAc+EuCwUYmkKKUrw8QugxYSKd7WQ8YbK9XIgF9huu+265E4h6YdZsPBDj5Avpy58Hp9Xx/ClDEiRMweej+wu+LIhnWuCrlWMwu/Sm/U7dw1/8aFVsKw6x+LryxhPUKbKjuvDOaJSrmzKE+7ebC1Z6h2MY+dSgQwxSWYI3kRNiAjH/4KzWNSDOO5F+j+ywUt84AkfkcoS6VwTdDlbDJj/4Q9/KI9TwPVUaKONNrIFiDn2FZof8ErzMkiuqVOn2pBBhkgFedjJhQ0nmtRT+cQDksxVBOSAOB/HcSrSb9XP8+Fc1Xn9j7QJupzNVwjBw52QjQVAaiuV0LvuuquNMWRAT/MDKteXzzGtne10QpdfnkuF8rBbMUjVmeBlFMW/q8hfo2OldUjo9T+luaiMbPJkBp4MNnUuBSiaVrTVVltZXt+ahhHIhpyvetWryuNUqH633nqrHefyebqicsym43A7bPuLpwLHIj93POwWAqR88Vc6LEBmwIzglVdeuUsXdSHHYmcTNTadG6FPZNMU61Sl63o2xWeJc3Wh8JXyh9EIdKVLLrlksdpqq9nvXGe79957iyeffLJ04BGewpjaeOCBByxNVbrAZhFyMAg+4pXLc5CQnGuttZb9znU2Vtp+4oknuuo7QuRssWJ4oNsEK6200tyj4XSuXqD7B3KeVDDW5aGunHeEp9DlbLFimnYDfAWFky0ICldjIOVOvA0sSA1sPDBPZKtSUK6z6NZ/QVC6j0I8AgFtyD1yuP9hnshW5Vi5ClOEyHXWQYN6STZS1ZMuEDSR2/Md4SnME9m8cpo+lGSQLCOSioAvZ35BsgGlnONhNtC5VHheI/wP80Q2OQbQrmy50APhBQ3MngC5zsIueuqKhZHjRc4mqGVqK5xURen6G2+80XjFBJQOC7x8ekWXWm/ViWd1bGEEdE7pwoyezoaimzobr21Yi0NvFOiW1TWn8hw0kIsn/jwjmz179tyzaZBDoTfuxIetjvMblc4GUBzdwTLLLDP3TH3IoW6//XaLboCn81I+6TA6G7jhhhuKu+66q2xwKZCzscgKDYzpPCCHVz/Euqwi/V9pFY0nekY2lI+z6cGsFFkXRAmUfeGFF5Z5MQDHomEDMv32t7+1uuc8Y5Tx1lxzzfIYnhy3Vd8qvr1I/x/rOv7naZDo6Ww4CoPctddeuzyXg9NOO82mG2M8jDgelUoF8tA4eORx+umn2zlFuhQozwYbbGCpjNkmZAf4VjmLJ/1/rOv4n6dBYsxuFGGYTJgDuk1w5ZVXFldffbU5G+cGXaEc4CTIddlllxWzZs0yWal7ClQv5vqjM377SN4W5CRAzs1vdEuAoGGT+mNSf55r1fCVer6Dwph9BUrabLPN7DhHEDnYN7/5zVLp4uMrKBo0fDlximzIyW/kToXyvOQlLykXxpOT+bI8Cb3+X0UCepWDUTYP0Jmk+uxnP9vSmPx5zehFRjmfeMflVZGuS0Xfr6uY08YcL6bN5ACFUzGixsYbb2yVo7KUJWPMLyADikaeyy+/3KaFc06UAuoIL763+NrXvmbHnANqZHJIjuO6V52LgU1kF/ECuoPm+SA3Zfq6SoA3EXfFFVe0SQYvfOEL7csq7XQsYBtkgPdYskjWOjJ3IWToQlBSmYbQa8e77LILms/66kh5Xv3qV5c8SYPS5qFBIy5P8gQl2/eXyBkU3SV/XQpKt1Rf/POdJ3ylT1+ufgv+XBXBR7YQrrrqKltqjNXLWdJC5dclViTiW1n2fWX9OvZNEFRelSwQUJqCeZxNDFESn/NxzG7HCJhrCDkcm8kCDAH/2OkGDdWLFIVqYzO2AUK+3PpBMjZ7Adx8883GF2iZCYwXG1Dw56QX5IP0SSVga/MQNTsve9nLKhs+8kP8r4r0/zgfxPYCbNqBEwuUjczeThwDnUtBl7OJoUjKue+++8oNJlJbEEQeKslaFWEAbmVhhLi8mNqA+MR8ZUS+YGcNEuTLqVsVsSfAoYceWq5cRFlqYJQvg3mZRPzPRxYQukbbFHjppZfuKkcO1MQm4qHzrHuy22672apVArIgUyyrCCgdCz2dzVca7L333iYMwkmwFFK+tdZay1bnAYqcokFBvJWqTmEcal0QcnmFp5I3dhj/lcdshTh9+nQrC1Dfqoig+kM+moVxly235Xeehj+6bKthiODpZYfYh0pRWv4AJGsqxoxskFoYX8ZTwSaVlEHZVIyVkYAMIPJltwHxIYW/FmrB0ViQEHlyG9BY5HkyXvULtqhr9XUmxZikgN2Xp0yZUvLAEdp2sF7kZSeaakEg0MRe84zZPMREjP0SnBImlZQXh8PgwC/C4oWvS6DqvCd4a4wW7tZsm27kiFtzm4RzqIEtssginfe///1lnZEJp5ODqRFgzI985CMlj0E0hLrky379619v2wUBZCUIyS8AqXQNlHr0jWyQuh1WQ4yFyCHlp+VqQEoZKLqqfOCPQfw/wZ8TSTGAbcTpyikfB2garesQ5cjp2Cefu0jd/flGwGqc22yzjV2Hjpp07W0RupG9WNFc6wHL4byeQfzbo29kAxgKpcBc0S1XETKu8nPT8O1vf7ssizJUCSEWvOp/8TlIMuvckUceWW7kSvnj4WiQDOajKMtV/fSnPzXZwPXXX297h/I/vxbvsBANhhT9sV4f0HBA+u6HWt0opEHrRRddVCpPBosFq0veYXleRNQRcBQqQ7nqakTIE//mGjmXIqTAeIlxk8qan4aU7vSbFZ5wusmTJ9tv/79hI9mL9NRTTzXdyuG8LUQxajsbjGAMeJZEobRU7zA5RH4pmJTbbjbfiIXFiXh8gCNByCLSA1QP5GWHYx5Iy7maytomVckyTPL1IukSW/34xz82XWMD7yuiGEnOpijDAszLL798l6M0obi1Q2zMesQRR9gTeR4B1AFbV/PcjM01dAMg/sNqSOqNbAuCo4mQGZ1OmDChfB5HMFB0A1XONuaufP5fHEOBmb3UDV5dhChk7xWDA869Kg9BcEvhHypi7/9UNv/jxTbvZ1nOQbvycU0wkC1RxTIRt912my1VFRpCV16u8fxGaAfYCV/ANjNnzjS78JvzguxaIhhhTHgP5RgiwoH99tsPC7YS3WKipefyJV/bkYKWDDF0gDiuum5hIumYFTuJaIpu8pMYYzqbMigzjABdKQ7HLXvThY/rEIaFP0YmjUnnB+kA8I4dmN/D6nSSd9AyonvSo446ynwDv5C/xFQ7ssUZ9UiBB30Lwp1UU1Ld2KLy3e9+d9f5YXA4ZOgni66JG00TEk9WH589e7b5BsGINEZfZ4shJqTqTtlRTu/vZJQFnbzR9Ixp6tSp5cNYNtVQVIfmV70Vvfw5djpkKyL2S+BGac011+zaJQaqypdLqvtee+1luom7U1GSs5EhThXh2BFEFVLhY7WyYScMgfxyNF6vPfDAA1ZnPfGnBR9//PFlZOf6QY7nYr7qwiA2zWDP/rPOOst6m0ceeaQTbp7ssQSzT9iri2ek7DLNLtXK14bDIRd80BXPSnE0PbnwTtcosol4zgUoiEl5CCAjLagkx+GYV0g4GkCJUqbGsGxjzh5TRBSubzNqVBG81aBXXXXVzrHHHltOZ/KQfWJgL7bzJFKLZ9MGInl4TgoIQupORcnOJngmEC0IsLGW9mfH4Qap9EERipfy3/72t1uEUB3VUlEkpHoDngluu+22JZ9BRDn0KZ7vec97ytkzAFkgGRrSMSkNhP8jP6AubH/E6zHx9mWlkHTG3MCbbrrJyqBMUlFrzgZpDEcU8HuzLwgOJwMqmiHzl7/8ZasPdcNgGEfO5olzqjvg3aG2l4TaGs/JoPD71re+Nbe07neUVfJVEfJSJ8AbmyaTY0Wq56c+9SnjK8cWZTtbDJgBvBlQkS984QtlqyHKNanIoAknU6NgQmWvHYN7gWsUQcCjjz5qs3WZtRuXlUuSj2n6wDtMClQPZKZ+4LLLLmvscMpHz8a4Nnb8ViObSKEbMCVFkxQhP6gdBlKk0G/2VWUaPMAQcVfQj1AwTsAx4HEAXTHjuSaNTY7GKzzAuCsuO5fkcNzkNR36SJ84L/D6azWyiVA4hagSeDnvKydNmlQKhUBNlN+UUKhXKndo7E4n4DDUgbpAQGkV+J+vO41Nd61Mg2dHZV9+CklOJjACRTSv8xz4/LrJw06+zFRSw2U6O3zV8KDWnE2AqVJIng24JWeT1nhn4EE5XsxTrc4rkq+KGP/IMeRgkj+mXtD//LU4BLy486OsHAMiM4TObrzxRuMrnXrKga8nssIXp1t//fWtbDlOCinPa17zGitDOqCM1iObPxZRCUU5wM7ABx54YGfFFVfsEpQuVs7QhvPBA17wjLtvHnjyioWZIoI3YlPAQ62aT+Qos4nxaKQAnlWNIQfKCz9INmKumi87hWQ3tkPXh02tO5ugilOAUoV8Uu90CPO9733PnmPFW1JDOZUdi4gOTFY87bTTym4DuTiWQiS/juNzveCvEVFfoDvzXOMxjuItDTzVILy8UA6UVzaCNykNkOd3lJ9rA+TmMRj84UkZrTub4CuiyugclaKFetx6662d73znO51dd921s8oqq7R2I8Gcf95n8qT/jjvumFvaU0AGZGnDcDHgCR5//PHyK6nUblTX88pJcoq8vLkyKx/85BCyCx/nUHaOs0luxsCUoQYyMGfz8MrgWL8lCJX0oGVpeQE9lU/tVpkrT3cQT7xUC/Yy+LQtqHHxmmiJJZaolLEfydAMOYC6ZU9AaQ58Xo6lG6aqU3ZqA4GURzNBxDN9uZ5EhLJsEh2pjvUbBIXa7+BwNgkTYnIk+5S+7W1vK9emrQt4AfK9+tWvLkLXaeuuhQqXEy4pE3jZvExtItx4dC3ykoMNN9ywlFHg2MueC/FQ3cWLiaroEJ3lYs6cOZZKxoE5m4QHviK+Yh5yAlL+j/OxLY+u5Xwd6HqUFCKk/aZcObWgY12v6/S7KcSvqaMBVh/ysgP4N5U5zid+0FJLLWULUYO47H7Q9eIvGQfmbCqQVBT/js8LHOMcYWBcChwrpg5w0KoyfOpJ59qA+NBgQN3G4kGDQw8yukcbMvv8nh9gW4KqclPAcmtAtht4N1oHVBKBSOUggHMStG44V15SHYunyhhP+C47FciKwzEM0O/xqsM//vGPcvORXLBMrsdQOJsUSCoCnJNi6ypYeT0fz0/Hg4bKiRfcS4GiIbsjqj6ca6sO4iPeni/dv4YAueWxACGQ3ocmsikV5SLmpWOhCe8UUA4K5ks0oluOwZSH5fIBv3P49IJkJBWpDAb3OFtO9y9MmDDBUpUxFM72dISMh8JZ4l/ncsCncuLXJuQEcjCIbhtcddVVNnTJKRM+QFFdso+cbYBA6Tgad5M5kNEuvfTS4pFHHumKkKT+OBcxD0WyX/3qV5Y2cXC2P/f8R842QBAleFY1efJk+53aJWEgHIwPrzE+hvc3SvzmmiYO4aG7X/buOv/888tzqUBG7mRZKBrZRCNnGxDkCBDL1TfFkUceaYYXXyBH0+8mEB/SY445pnjyySfLVd1ToAbFquR0o17GkbMNECgZNNlLQg7GGOoHP/iBRR7ehohXDs8q8OaGm5k//OEPxfHHH29lci4VcjaWy4Cf5Afj5mxeOaL4tz/n07ZQxV+k320BXigeRfO6adlll639rDCG5PrEJz5h+xzQNeMIMiJQPXRtVRr/H4KH5ILne9/7XnvFlgvxf93rXlceA8oZN2eTYkhFqmx8DtAiUIJ+e8HHgr/e84B8mUp9uaRtQXwx4AorrFBsuummdj513CbA68EHHyze8pa32CMJooaPPCoPqltXCB3xm7c1H/zgB+1mBBk5lwP48arrla98pf1WeWBcI1tMEkSEoBDn6S4YZHIMlPaDv55XLigOh5PTcb6qbP+7LcBT5b7pTW+aezYP8EAnPAbZY489bFcXxlQ4nOQWxXWsqitykRee8CFqHnvssfab/+VADQlHY3UjbKnoTrn8GReEgstUFCplKVNnNI8KMJmRKUaf/OQnsz925quuE088sVwwWaCcoOQuOSSLqA2IJ2WR8nkja9IiWzBA8pQpiDzSBxtvXHfddVYW/JmUqrLi+ugcxDXoQJNY+QqMD3LgGRwtWy6I/PzmU0bKpAwvw8CczRcSkyrOPCcqLzAb9aMf/ahN2Y4rlEtMnuQrbVZJ9FvmoAgpv0pGUS6UlzLUkLQKOBNDc4wq0sRS1ldhd5p4KyA5Eyk61rHXNTjjjDNsHRDxbCITDYiUbzqQR/YllS7HLbJJ+aRSiHD22WfbbFopUcKrArlK8PwgFPGlL33JlksAcgSvEMnZFOLplc5nfTiIIoGXLYXIK91A66yzjn20A/9+ePjhh21SqV9j2Dua55tCysci2QAHjxvymCtPNkHMlt+hQjZOYDAKZsyYURx66KHFOeecY78BYwauDcLNPZMPygNBEV08V1555WL//fe3Oy9eJyET1+h6j6pzdeDrr7KDUQt27WOrSY6DA3ZdlwpkQ274gIkTJ9ojh5e//OXFGmusYVuuUw7TnNiKnMcnofco7rnnHrs+zp8L6Re98uiECauql+xpCAcDgbyZFg3h5Xg74CNg1jgLlUWKeVrqoIhyNK6AWB5eX74jn7p1SPK3AfjAEz2w2Rm7plDftuoc16sftVk2pB7k+9//vtUXPUp3XoetOZuMI0KxOo+i1W2yTQ5rhyHceDlZTJQrBUFsg4icQGM5XxdPdVGVFyMAtueh3BQHqUPSJ3ypH+SP+R/XVOXNJdmPLTTVUL3+gI4HGtmACgef+9znSiGpfNsVTyUMobs7PqplmyFAw/DKagrxQg84HPy33nprK3fQjW3QOkZ+Pi7izpg6Yu9euhtIZEOpEAUDogU7vCGcWl8s9PwkRRi2GWKnFaAbB8jXLQc+vxyZTxdZGpRy53ejyyUCBimfYALVDaC3GNnOJqZSoidar7oj7n70kS5RZFgVqwjH/g4zZ860usnh4voBpXXg88IPvuDMM880feDsw9YAxyJklqPts88+VhfqpLGaKEajyOYZ+kJkJB7OanXDYXY0CGNLgSwLwRIRQK1VBOK0H3x+9ALpZomdkSlTzr4gkPQ0bdo0q4ccLW6YMVqPbBSoccnOO+/cJdwwEw1BUYbfPLvieRxDAeoDpEygtA68fuAlksOxSzJlquxhJsm40UYbdR566KHS3qQDdTYRhWAUCCcDLCaMUAuCo8UkhdL9e+egfv0UWgVd5/NB8JK+WJOXMnH4YexSfddJb8UjHOqAXoD0ApTGaNXZ1FJ5J4lQC6KjiXi3SnrIIYdYnXAK6pnjbMBf6/N7h+Ppe1z+MBDOrwa44447lkta+AV5SIHqqdSjNWfDwzlmT/Ell1zSBFyQBr0xaQy36KKLljcMim6+7nWg63w+kZxNDsdNgxZNxMDze5zru3a6e+RE7rEan9IYjW8QIO9sPK9CMAzVlqLUskhjnvzmf20bBl6KzMywoH69lJsKn19dsx+C8FiE/Vclizf4eJEPFOyxoA1tkVMyS+66umglsqn7POmkk0y4pspRReVg8f+5c8MRqu7guL7KKXNJ5Z9wwglWR+rq654D5fOpSLrEiOwwzaMYydJLH20Q+lIDk+445rUi24kDRTMvbwqSXsRzaRDEUkHHjz/+eLH++usXs2fPthezQRA7nwr4i0LF7Bxf6WyxxRbFVlttVYS7xGLxxRe38+Cxxx4rrrvuuuKiiy4yuvvuu+18UFTXTNZcqL5rrbVWcfXVV9uSApJP/89BlS4BeqPe6JA68NKcj134/oCZuoD/QVwX589BcGKTxevr9a9/fXHQQQcVW265pf0OjlZeJ/vGde+riyBsFuTZuhtp632fz8+L8qDkcrnMfuBRBS+D/XY5QQHlcS5JJhYUBBq3QDlQPvEQqVsSKcqB22+/vXPwwQeXK0LG8kHBCfrWl/9zrY9gIlbm3H333Tvnn3/+3FKfugnQWLVqzAoBpWMhydniQlQwdyfsHYDA3llSCWWRUmlegXhlU1FPMoh+a7wDyMedHe/sPN9cUn6cGN44BUTd24DXqfjqmDr6uvFGZvr06TYhVFs3NSF2ZGGczU4vt91229xS/jcLRnX15OVNQVI3Gph3dZGhYAv17KrMhxjB0bLnRqnbW3311YtTTz3VvkiiHIjwDO9+4FrJRJ4rr7zS5KJrbyIbUL1/85vfFFtvvbXxgiflDBIyDyllhnGq/QbMU2MIwbzAm266yT4uvuOOO2x3abo9yUZe8vFVFh/fsNAfwxEWXGTumz6iBtiAfNS37bolj9kEjiEUzmdbZ599dpZBVTHyrb322vblN5XnI1kUxP9yEFqlfYF0yy23FG94wxuKcIfX1VBSocbwzne+076r5Ng3AOqBPnIMlGCCUr/k8Y4HkAm94YSMoaU76owu+JyQMWe8lBU8ITWelDok1TcIXRtB6JJCxewct+l0e7AKlbM0hUIFLeVbAYVxxgnwh1ReXQSl2fWk8AHsH6AuJ0fGoNBSTh4D8JGIyhBSZEyB6q/yRNIPXSxdu7q8foAP17L5m8Zjnq/KUZltIjls4Mkhn7UWUtaEYDnR3KgBD1oUd1ssREL4p8VSDjyTWk6ArielNcOPiEk0ElJ5ImMwgB3feeedxTXXXGM8OMf/IH6Ttg1fH0/oBkJ36IsUYAMR8vkUQkbyEd3QD/mkZwgobRvJzibFis4777y5/0kHlUQB++67b7HNNtt0OZpI5dWFzwvR/dGlbrfddsVee+1l5XEuB8gLeMQSO1aqnHUhvrHeRd5ROPYkR1LqyfPoxRtqE1kDIoRDYAai1157bXkuFRiejzQ+85nPWOuLK+cVXRe6llTHyEpZBx98sH2MgfM1AR+NyBhethQ560JlKB0EgarzUJtIcjYKp9IYDgPyAJU7Pf0vBQr7O++8s32VE8YfZYsTL459Wgc+jwi+ODN3YTvssIP9X+WnQHJx10dDg0fbBqlCVZ3Gi9pEdmSDGL+EwWmWUDLSbrvtZscYDj4ct11JIN48CgE0mFRIZj6LY/mDQcj5dEaSs8lgOg53j+VxCrgeY6+00kr2PG2Q8PKCTTbZpFh++eXL8znghuj+++83Hk34LGzIimwCkS0HdGuA942TJk0qx2upTlsH4gvRVS+33HJ21wskRw54lgXPkbPVR5K2UaxXMA8QAedyoAhDlIsNl8uzCpJbyF3jFojPAw88YCmI+Y9QjaxuVBFBCvZOUge6nhsDAB9INwgqpw3IETw/uu+m8PzalPfpjOR+pEqxnEtBfL1+w1eUyrMXJC9pr3JHGB9kDVpkJN3Rxc5XF/fee6+lyi+HGJQTqJy43BRU5ZG8g5L76YIsZ5PC9UI3V8k8p5NzwTOmNgAf8Vf3z1LvoEkZzJ4QxKctmZ+uyHI2QWOfVCXr+ptvvtl2buMZG1GS83KMXAfuBXhSDgN7PbJpAu5qByHn0xnJziZHIWW6to5ToLtPIsysWbPsnOcrh8sB+TyJl4hXTTwja1IGr9iYrgMP0Qj9keRsMp6IjRV4qZ1jNBnopJNOKo9JVUYuyOtJ58R3+vTpdi7nGZv40chYXFqzKXKddmFDksZlNAxFyqMLVoXW/1Kgm4szzzzTHg7jtIp4TYxH3ph4mAt/3uNSHmWo/BTIQZmyxHgVZ9NrthH6I715B6BcFE3rRvE6lwqMxzvGww8/vNIBcBSlIv0W4ms8+K3oA/9DDjnEXjU1fYE+depUyw9PSLxydLAwIbkbFTiG+LwuFzgBDsfExnPPPdfmshGFPLxR/W9BxvbXAMlHGUwSZLr5iSeeaI6GA+aAfJSx+eabd5Wn8klHGANBQbURDFcS04kB+xUEh0HLWRSMb2nokjt/+tOfjCdTnSlDUJlC1bFPRfo6i6nrTDsPDpEtq/Ktu+66nSeeeGKeqdSiEXojqxsN+awlB+UWU6ZMsRWqAVEjFUQL8jFth11Q7rvvPotwTF0iylEWIKU8/fbQOXjpOmb9EtF4gAtfUsmcA9Vt2223Lcdr8BMBpSP0QDBObdByRbRoRQ72FoBVGIRbmkrBSOVSCmwCMWvWLOMbnM3KIKU8yMsQE9GW67kOEHXXWGMN49sk+kLkD07Wufbaa60sZCIFcTpCNZKcTUYkRdkYFwWz2cPiiy9uTgNVGWssUj453MSJEztHH3102VUDnIjflCvnkwwigW74qKOO6iyxxBLGL7cRiNTVs1EFkKOJwMjR+iMrsmFokYz8rne9q8swKeQd1EcgVjc8+eST7SvwOmAlRNaGY9kG8UCenAbgSTL98pe/tPpTZ+lihPrI2uGFLMGA5RgqGMNePfGFNXtVcr4J4C3+gMmO7PTG4jJMuGSLQRaX4TEGe6fzIfIFF1xgXz2xHydApqZywAM5QqOyu26+hoenxm+A/49QEzhbXQRFl6knRbcPfOADXZGgKcGnihdreCy77LI2hor/1ytPDgVHssgIzZgxw+qoO2XRCPXReMksQMvnPC/V11tvPbujTGDbF8F5jD8pfMOYae5//vc/yYUsnAuOMPeKPMCPtw6hIRVhiFB897vfLdfPILKR6roR6iGrGwVkg7wD8MgijLGKPffc0wyC4duENyzHkmEQUL14JccGY2w6hgPLuYWRs9VH1nM2Dxkb5yIKvPWtb7WdfnE0IkObkHNBGF5lDwI4FTjuuOPsoxzKoo5yNtEICQhKzILGLMGpLOVxAMRv7h6nTJmCJ7Q2fhpP0qOSww47zOoaj9M8jVAfjZ0NwsFEGAawcZb2ZlqQHI6bAdK9997b6qGHyoD6jZCPbGcDatne6UjlcOeee25nwoQJZjwcLnQ7jZ95DZIU0bbffvvyIbJ/pjZytmZoFNni1BsFY4HzzjuvXG5UUWMYSW8v2D6cdcuog4YFvm4j5CP7BoHBcchfpjEYTAeHK6ZNm1b8/Oc/tw9EguHs/DBBNwLc3LCq5GmnnWZ31dRJ/xuhJeBxbcC3fqKBIoNWf2QfT63irS6V4/lJirTIc+ihh5qcklt10TFQOkIeWnM24I3iSV3qI4880tl3331LYzNGwtD6PWjSmBEnk7MzK4SxJVC3KcT1gEbIR6uRLU4hRQoG2jLkKaecUi5lD2H88XA6xmU+mr33ve+1vRNA1eONEdrFwCIbjiWj4WwinA5g5IMOOsimE8kZBhHp4CcHE7Ev1GWXXWZyACKvZIWE+Jz/3wjpyH5d1Q9iyw1EMJL95pg0OKLNogV88XT00UcXIdqVX6qD4CTl9aKxwLVKdUw5AoN+ltDfb7/9bKl6wE0B16oswR+P0B4G5mwC7GPjyXlwQr3SmjNnTnHWWWcVP/nJT4pLLrnE9qTyEA8cIwZ8QFVVmBjA4s1vfvObi5e+9KV2LkTYLieTjFWyjtAeBh7ZBBkzBtEHZ1GkA0S7K664wlYiv+GGG+w3X7H3w4QJE2zuG3PeNttsM5v/hrMR1QCRDBnk4HKskcONB4ri/wG7V3D1s10M4gAAAABJRU5ErkJggg==;" vertex="1" parent="1">
          <mxGeometry x="420" y="220" width="62.12" height="94.99" as="geometry" />
        </mxCell>
        <mxCell id="jy-rrXg_5H6nWXyfPQef-35" value="" style="shape=image;verticalLabelPosition=bottom;labelBackgroundColor=default;verticalAlign=top;aspect=fixed;imageAspect=0;image=data:image/png,iVBORw0KGgoAAAANSUhEUgAAAKsAAABhCAYAAACpm1HLAAAAAXNSR0IArs4c6QAAAARnQU1BAACxjwv8YQUAAAAJcEhZcwAAEnQAABJ0Ad5mH3gAAEvmSURBVHhe7b1Xl13Xce9bO+/dOaPRiERiAAMI5iDKClawj4Y1zoPtp3vveTjjfgz7G3h4+AP43Pty/WAP28NXsizJIiWKIEGBIAmSyDmjG53Tzvv8f7V2NTZbIAlIJCVDqObEWmvGmjX/s2bVXHNtploig/g35Xefzz1X6PO45wp9Wfdcoc/jniv0Zd1zhX7Te67Q7+KeK/QJ96lGG613kPdzu/8s+m3q/iLuP4t+m7q/6PvPot+m7i/6fj2tgfWLIuqGAehu73/XdJ/33w19El9fOFjv0336vEg2q+AKdlsKqTZsv7D7ZnKFiP/YffpTyv0+3N9LvItfdFbc31EdX+a9+F3D5C3eHayua13Ztgv8xvdcoTu4h7k2E3dXliv0ed9zhe7g/vead9Hao26cz4jn2pkf4l4h+hR5uBhAad97PAS422WiHi5rZSGPSMJt1+2OsmtX8nWUW6Nb96lWU2C9T/cMtdYAmZZS0uATIOI9AMAkKtGqpKcca0lWrbOthqWbDd0rcG0oADrypnNmmazuMwpoaJVtlw9Kbpu60la0xz+RiXK0zbWd3CZq8zIeGynJVWC9b7LeG6QFUmBsCmAslSmBId3IJIBlhB0fAkGqDTyA0xLgHFIpa+ixptAUUFPNqpWaFUu36oqomS2vKFFXKunqMSsq5Ep6zHjZugfKJs1kVU9afCSBOgJ8SvAgwLcE+HQaOHsA7GnKC6ipJrWRvx3aGjsBK+Xv0395auqv3garoGqZBoAVfBhrUJQRLNJoS+ChQXewApg2WMkqsGYE1nx90Wxx2mrTkzZ/9apVBdimNGu6d8B6xzdZ98i4ZXuHVEXBGtK2NepQbZCgqFpblhE3CVgjBXI4J0GalXYDyg5WeBcPHuMaVsEnFxr//mbAPUEMYoC1qaeMhj1b179uCigRXAZYAQOqDLA2pR0FQl2sClBUQ64lrbo6ZdXLZ2zh9HG7evKUrS4t+jRI9/TY+M7dNrrjQevetNNSXcPWzPdQClg6ZVS1zw017NoZBkKbu9mRpLrpkaS2KUUOB2xiDgBQyibl74P1HqFbYOVfoCCwSm2lUV0kOlh142YAAAIpAowADYBa2ZaVGzXLpKtWaC2b3bxoUx+9a1ePHLab585Zq1pWtpoAW7bRbQ/Yxj2P2tiDT1t6426z3gmZv30OVprS6u43XACeI7BNiW1LroApWpQrpkROT2hdjBiHs18TwCb39+keInRTgg3+VWhfCAGRlmu3dpoQwKO0li//6caqNSuLtnrtgi1cPGVLV89ZrjJvPa0VGzSF5rzZ5BlbPP2+LZ79QGbCFTPlTzWqlqk3LasGMI1Z0qkeHZmYGQIjQfcEWcaKhyPuMCKwiSPGHPhreWUuNOXQ3QfrPUXAI65xn5Cv+roCVk+LLCAAwOqSFTQygHV51paunLVlhcbsNQG1bP3SuAOpio1l6pZfnLLyVZkIZ49b7fols4VpIawskMpGbUgDCm0OVhoUYYncAmCAEPcrAWzyl3AGJxRbD1rAfh+s9xQF+rh2kB4dqLrKitR9YhV6vBKSDaGmZWTTumZdmJJGPWu1m5ctX563AQG0u7lqxdqKDclc6GlULDU/YwuXL1j1whlpWmnXelmVVVWN4CUN61sDHQQUAR/6MwnoUqZHVvEZhazzBefRAwes/iHUFe6D9R4hBjcJaKC2KXArsg3U0FhotGQXgPiI9VCRvbpw0xpzU5bXfZ/W9G6pyZzs2VZ51aqLZcvL1i0JXM2lJQH2oi0AWGlgzAFlUjUKqt21ebvdCJ2UmCwZhay4yVCju2l58ZHXfUF8FVSerTBM7vtgvYcI3CVaKVkyefZ/FICjg9NDsgPK1Z0rX6+BUt1aAmhTy3pzac7y0qA9cu2z0pappsAnLFfLKtXKWyFdtHS1bktTN2zu8jmrXjsn80HmQHNFdVZVZ7KF1rk1BcEXwEs2r8RnS2BtCayttL+IyKjNLEH2c7Yp3au2s3Kwwtm6T/cQYfElC32CU6f2TSdgw/Hxl1iuthLt2hRY61ribXXZckJnQWm1akXmgoCVKWmFl75rdVkmVZIWzFp5Yd7mr8oZO3PU6nPSro0ls4KAna4JqGykMQWStgOo7MPmuSoyK7Cmm4Iu+8G8eKhKs1cXFKSla8ty3GQLs0shIN8H6z1EbSXqYA3nZj0RTQhth3nZiPVZGqwuYFaXlwQSrEkBVJ54VZlS+S4r9I9Yvm+DNbNdVmtq4cbpaVSFrZs2eeGElacumq0I6KmaTFYC2jXhCYu0wPKu+CwArK9aSsFqFWZDcq0K6JSfuWp2/byZ7ObW1XNm03pemmXH4v4+671DbSj6RRAhQLrUhF5ep6LpEltRV7IKqFkt2QUt3VaXY3XsTZt/6ye2cvSwFZcXBK6mLVRb1jc6Yb2DY9aop2x+6qatLC1YRiqyokrKmayt5ku244Wv2vBjz1l+x2PWyPVaI9NtTZkL6PGMgJuRA8YWl0lTWh1HTNy4t8WVXYgb1licssbyvFXKNavWxLN0cKpnwPJDG+6D9d4iIY/h9KBFE7BK+4HMakpaU8BKNGo7TdnSuuSUlseTr0/a9Luv2dTPf2DpCyctv7ooW7Vli7IpN+zea6PbdqmunF388AOblZ1ayskZ6srbqgB9ZWHRNj/xnG3Y95INPvay2cBGaxb61V7e7U2Wc6uzxCsImDJ+ZWrIvFiURl2Unbsyb9XrZ107r0qLTq/WbU6TZLGRsWbPoA1t3nkfrPcWsaZLSzGkfqIJC1FolD1aA6wCDWDFA/d4Rl6XrLReviEArVy2qcOv2fU3fmzF6xetUFWcMsykCrbxwUcF2EfM+obsxkcC6+mP5IRdlymAbdq0shywzPCEDe7ZZ5ue+oalN+22VO+o5oQ0Y1n1LGl5n5/UVc7b4qzVZOuuzC/a8uKqrSo0V5esWJ6x7OqMlaXRV9KaBNmSlbM9tqLQNb71PljvLdJQfgysQqL+Y72vaanHgsSpSktT6l8vAXgzLWlIab3WzCm7dug1u/bWf1rf7KTiZHemszad67ZNj+23jXv3mY1N2MLpEzZ77F2bOfuuZWqLskdrlsukbFWgLo3vsPG9L1rpgUe0fI9YTWYDwGzMCag4YIszWupn5T8JrMsrtiLtyXKfrlest7ZgBdVXL69Yo9Rn1WK/rcicmJFTlxvdfB+s9xQxkgxn55AKqC3BtI5n7vdsEUnb+YkrgVVZM4CtvmjNK0fs8ts/s0tvv2bDWpZz0pb1bMFmuodt69Mv2KYnnzWThmvcuGyzRw/ZqQM/tNzylHU1Vqw73bTVct1SpSHr3rDLhrY/ZKlCny0tV2xhZkZO2LS12NqSE9UoL8ufWjX/RiXfbdlCt3UJ7F1yrvLlBZkMNWv1DFulOGDzVrIb9aylhzff3w249wht6upUoG3qP/Rpsu3D3qZvGSmJjfasgJpXQlYgdh0rrxzvHrMA7x09VhOam/mCtbr7TB6Wn2VNy9nKbd1pXRPbrNXVb2UBv1qrW1EGcEE2afnKaZs+ctCm3n3D5uSolS+ekta+bjml5dk3VVsZmSZZMZHNwltZPteiWFi1XLph3cWcNLUWiXrVVmQeYFiXerrvg/VeI2DHnqhfAS0jrEtKgEw21pu++Z6WJ+5B2tNPNfkbqmVLVVcsx/YSBgNgF1DSJXn0Pb1mXb3WzBTNugetMLrVhnc9btmhzVbL98qBKwh4BSuqzYK0Z2v6sjUmL/g2VHpxWnbrsjWqNZkFTelxcaG8mVLJMgVp+azi6mha8SAQNzOCr8yZZeVfbTSt2Ntv/Rs23gfrPUUoU11Y2tn0b3FWL50RUDmKzd6rAMhBaN82iu0jgCrXq1GxhpZ+ueL+Bik5ON1w0zfX3WWZ7m5rFbusKYeple62fP9GG9vztBU37rZm9warZQRkOUTZbM66c2kryPvPS5MW5Lixt8qB70ojbcvNrFWzXQL8gOUHRqzQ22u5Qk714qi1rC5+V8X7Qq1hS2K1kS9Z3/gmG9664z5Y7yVybarg5wA0smhWHContCfnWNnj9POsysm+FTuvAmdLIK0syEtfFmB9a2nVAZySp1/s6bKstKCQ6CYGOtqkTbNypvq37pWnvscW0v02Xc3bdFk+VKVpjUxeIWermjmrqaw8+y6rdA3L9txifVsfsok9+2zznkdt09ZttmF02Ib6e63YVbJGLm/LrbQAXbRs/5CNPrDbxh/ca4Pbd94H671G8S4gjuUFgNc+JAS00nJoU5NN6KBckrc+M2mVuSlrysHJca61KaBKI2JblrqK0n5ZNyXSOEX8cTagMGj9G/dY3+a9Vu3dYvO5EZvJ9NtCrl/Po5Ye22KlLXusZ+ejNvjIMza27yu24dk/tpFnvm79jz9n3RPbVW/JUrWypSoyE2TPVgTJZRkhKdnHfZu22fhDj1rf9t2WG9kofu7vBnzpFAJv67zPifD0U36cTlB0wALMdAoHBitR4OPtkRyhlhRnS9qvKZuwUS9bfeGG1SZP29yJA1a9csxS01esp1qxijRibXijdb/8Hevf96J1b31ElcrRahZUgbQrHVmYsZtnj9vRgz/3Df1cedYGcw0b6O/TSj9shYExSwu42YEJyw5utMzgoKVy4nV12upn3rOVo7+0pdOHrDxzTatBweqZbltsFW1g20M2LO079Oizltq4S87d/TdYXzoh7OTDk4RY2tZAGyPhSGvHtm/XD9JamXaNfmGJbjtX/h1oSxoLkKarump9rqyYLS1afWrBKtPztjw7b9MzU1aev2mNhevWmD5jBYGoW85OSct3VU5QY2TChr/6HesWaAp8wtKUo9XI65oT8+Je2nl1dtJunj9u01dOW1Ee/ZbRPsvKe8/0DVmqf0zg7JYJ0WOpjLQoB2YWp6x29ZRNvfdzWzx50Oo3TluXqitnunxftZIftG2PPWtjjz5tud2Pm5WGrZXr+4LBetua2RJJ7nBWO8V+x/QbFPl9IHQfS3PySR9ADQ9dXfK1m0x0jqDYuI0khbW+I0Q/iSSr1ONIBbRJaLl9uigNOmd1AXB1Qcu8QFUVOJvTc9aYX7La0ootLySb8JgDGXnxfpZU9dVrsjuLcn4mttmWr37TirufsMzINtUpsLakWdkIo2H2b+VIVQTAlYWb6o+0qmzcVF6OWKFHoVcsc2ZVeTkxszxjq+c/tMVjh2z21LvWmLpgqfKcpfM5W8z2Wq1/3Pq3PWwTj+y3/gcestTwJjUl5y4toH9hYP2EWr25dpOpRMpJp++WfoMiv2sCorzyrLWhB1hzfhU0EYl/Nq2OOWC1zHJpRwFy7FDusRvd7hQgOSCCLYkrZbL9WtKezdqKlvcVB2lt8YZVZi7b4uQFW7l5RcvtpKWWlixdkcfPTkBVYG8ApbRMhpylc0VfjucF1nTfsPVv32U7XnzFClulVfsn1K7AmhJY/UcuxEKaj05kXkiDw6WzD9MyIZoCdKOVkw3MNpl4Eygb187Y3AcHbObDt6w6eVk8SPsrezmdt5Xecctv3m3bn3zBeh/YY4WhjRIDv09QUDuFLwGsndX/JqD8JPocq/qyKAFrU0PLXaJV2aQHqA5WxzDoVFgH1roCyWxLoVGz8tIJKTQon5LwHn/upgBwxVanrtji9DWbl+25PC97tDwtUMhtaaz68bxMrWoZOVgZV/NpazQyVm9kBbe8VndpQ2lUTlEVRzbYkLzwB556xvLjW8y6R9QWYNWaLbCy4yDOdF/T0HJ8ip/Y4GPAnO6kY2XXNsV8F7wuTVnjxhmbF0iXZKuWr5yy5oq0uiZMVfnLpX4beOhJG37kKRve+YhsW5kPJdnHaaYzQU7XlwpW6PMC7H9RsGICoF35SzRrAtRw1hPVJBSsaS7KtTWrlvemgJoRODNtsEp9Wm12xiqT161y9aLVL523xvXLWuanrby6YFVOOqXk3QMqpkqzJisBTqRNpf3qrax8paKUpWxKgSPXL6docFR+VJ8027B1bxiXN77NMj0DZrInraklWaBuSR2i6VNy4PiaCicu6RU6XtNQjHsPNbty0vLNa6ds5cQhu3HkTatNnbO0zIGmJkzZClYrDlpx4wM29sRzNvjQE1bA8y9g5xbVAO/SEvB/+WCFPg/A/hcEK0OZADZBJq4QR0puAZVcEGDVQKuPH9uCci1ak0ZUACTy7psC5cL5szZ/5pStXjxn2SuXrSC7tIgdCpizqj8v7akqqxqLsgDP/mdTy31LgGjmugTEfssPDjtQu0bGrDQ6avmBtpPU0yNPvEuThmmlpdhUxjVdG6zijokAWH2svQ9qzCedHgTI5uw1Wzl12Obf/4VNyk5Nr8xYQeZDXRp6tThsqZHttkEadeiRJ617647k54kEUlYXJKQOfNFgbTPeCUzFRXNur/42oP0tiv6uiJ4n2ie5A6y8W/JHKK6SCxv6iTOWBLqbgIJ397ITGxUtowu2cvq4XfngiN04cdRak1dtbHXJRusV6xagUxktw1mFTNpWVbIibV3N5f1nfzKyRzMDI9Y1OmGF0XHLDI8JlP2WkkZN96LV0iqvVnlxINVfl3PUamYsK6+8KZAl6wIksPrBanHpdrSifJbpmTdj5SUrn3zP5o8esPnjB61687z4L6semR05aekNu6208ynb8uzXLD82YSnOIHCqG82sgN1rGTQ5YP2ifusqBN9JHWB10oCsNX23wP0ieP4SyHvvMkjk0CEBJ5Z8H2vFs3ADVOLwsjO8s28lr0J5h1+TBr15+KBd/uA9m71w1vqaqzbUWtVVdqkcF+zbBuZErmC5nkHLDo4IlBstPbrJ0oPjAuaI4gVcLfEpaVeTndrMCYgCKiBlHUDtp9HQYqolGzQlk8GX+TZYfcIBVsAJWGnUQ91NkcqVczZ55A0rnz1sqckTVqzPe89aeTlpI1ussPsF63r4JevZ86Slu2RmZAXUtHimfoEVve1a1l8Zf9HEwEQQrWnUNjgBrwO4nX6vE70GoP7nS2USQ/DXowqJFZgANcDK3qxvfKHBCHWZANKiK+yTyrHizVMxL71TashZqdhSV8UWC2VbLlRspShwD+attHHI+nZttZ6Hdgkge6z04G7LbttiqfENZoOD1urttWahZHV55nUtvf5BtLx5tqpSqaIwxMfRwJOgaIWEog/AiT7pIsBW5+ds7uxpu3nmpK3I889XF6w3XbNSWi6YtHbfyKgNatnv27LLrGtIk6QkGag97FS0N84Vv1SIXLx22vgCKcDoHWuDFMBGgBqNxIq75ylG2AeTQb0lfI9qh06QJtSWn8hlxsRmB0DLfV0atlkrS7tJ6+YEEDlTWnitkpUrVxSsutKWLaUtU0hZmo/wCUWBiiufl/qPtRE0FaRF69KodZkP/DIgJ6xavnWkwAEWLclo1KDgHt5udUU37EWJVpaW7PrlSzY/PanJtOxnVotSkjiGGdnSPWNjVhifsJYcOg4O1pss+4mdyl4J903XrolJ9AVq1nVLfoAWT9Rtm3aahJ+RcNb6+gdBPrztcCfEtjpfk+pfbDcAm8lauliyfnnsfdKKuVLJVqpVP3+aSmclUwWBJqW46uyszcoJm/zgXZt663VbfPNVK7/9mtXeO2DNG2fMlq4LWVNy3HgrL5tYMAlgYI7UNLH4mrXRXgWSP4elB/rhf2sR+odlu1CwfH+/TI1e3QN8gJdMQrCQ4tNr/7SW+mhRYFUl/PrKmgmkvgIVJJX5a5GuXxwhWG9Qs1bMVRGeQqVSkf3NVgrMik3lCU17R3QXWX//SKKH/+iDy+gWdH0wk9s1Ytcg/GN3XuTV86O7mWpZCnbFqtJcFV6n8qJAdfGZdEYgy9SUv1Kz1qocsuUVay0uKSxYbX7WygqVWsXKqytWLvP7q2IjLZAJ6ClsXbXJ69tbJEi1x4h/E2MguNV1jWnAJ6VUkd1cWbbVuUlLl2f9awS+pK1rzBuaUOmeYbOBTWZ9sqMLslf5RW1+YNjbYDek3ZYu3H2BYE3AF4GlfmVlxRYWFmxubs7m5+cloLIDlqmTyaINENAdUtKP/5rEXpUH7ttB/zDWa+MtWktWpINPVw5LuwmgyJQ0lZ8Flf1aFeAWlxZ1rzRpK2HCcvLei4J4t7zpLgGBj6Iz9YZVV1ZtUfKfmblpk9ev283JGzanZ2CXyeWlpbtUN8s+U0MAldIDML4xsMYXKcEx+hebmifFMua6wy4t5nM2y5uz+RtWX7ppWZkc5KxqEizXBcy8HL/uEcsPjXvbadmo7OHS4Fr/I0jj0cYdE6ADfGn1IO4JaEuuAI7AZnB5ddVuTE7axQsX7NKlS3blylUBdtlBSv6Clomuri7r6emxzZs3244dO2zHzp1WKhYtl88n4IU91btGenaGFUV7vyl1druzHl+e7rLeWB0o9+llk+G8FSDyJ0PvTrTfJ6lUFbkwK4EOVp3UlRIU+CK1umhVgWHl2gVbvHjOf3eqfP2K5cqLlimvWqFes27VU1LAY69pdUt1dcumzdm8ADMtp2mx2GP1gVGbeOwZG39onw1t2W2rTcGcswGl7oQBMcLLCz6HaWgy8HKCfdyMAOmHU6TR64rDgEjJvkX7ZzjltbJoF371M5s98gurnj1kffV5/+wbOZWzfVZ84Gnre+yPbOTZr1ump/1L2mh1BWTCKTJEhCzuSrMykBFigCCeA7jQ8vKyXb1yxU4cP2HvHDpkBw8etEO6Hjt21M6dO2cXBF6uV5SHcPnyZQ8zMzNWE4hzuZwDOS/ANlWvGvDl6WPkHUjau1sK/rlC6+u523o76/m0sj7NyIuq5H6NkglISQJeb2LBtTUZRSRudg/4wx70nGRmRdLkzmvCl2QbZjTY+WzRurSscs9Rvhrv+Rn8trNi2bzV9FzGPswVLNPdZ12DI9Y7slG2Ys6m55ft+uSMKs9ImfRKG7JtpHKaTU3VRR/Qst5VGGMCSZWz1YXW5F0Wr2JT4i0tbcnORb28YOWFad2y4yudrTqrMk45h5DOd1nf8KjbtWyzMdYuS+8gDek/hTsGKwNCQKMy0MxQQEWlxIdGRWOiRQ+8ccB+/B//YT/72c/s3XfftfPnz7sZAJAJ3K9K83KPSXDixAk7e/asXbt2zQYGBmxATkN/X5/XB6e060CgE+3QSZ8EvCDSg9cIQZ31fVL5T6Mo/1llW7wuVUD4wDP5a7ergD24FniGRbDBfEWR6dltxvYy6UGmgGmpTcnByvb0WXf/kA0Mb7B+hWJPvzW0/M8ulx2cNX77X0BdVu2ESq5opbEJG9/1oG1/+AkrDozZhevT9vbhD6RQrkpZdNnoyLgVpDSyoFNqrrJU9XHO5QXErMDfrElR8UNsNTcX6N9KvSK7V/LQks6vAxYLwozs6dV5Tn/N+guEEi8rAL9QndIkGujusUzvgKV4MSF7NuTpk6ItozsGawwE1xhsX6ZFcY89CuBee+01O3DggB07etTjKFPU7GfJD5CgOQF7gLzEZxOiWXmuU1NTrqmHhoasVxqDmYZzlla+4KPNv9N64K2n4Je0SAf8MQEIpDMJaTfS75Qo16mp49rJS/AAYKuyORlUz6UstETOZFAUcGpCYSkT1cAOV3JQzgNZNZrYeK2UBpg3P8ixt0+Oy4ClhwfNBoesrud6/4AtFUs2qUJz2ZLVB0etd+eDtmH/C5Yb32ZTqw07dExj9+a79va7H1o2V7Kdux+03XsedM3K//UFJZrJiRFkJVMgLcDBV1o2SjpVF39a+pUpB08yA+qNmkwDlJpwIrA2FudsZW7G0tK07OJm2bkgqL4UuxdDo5YdlNNFPyRP/5CRXQWXo0zMOwVrEIMCdQ48VzTt6dOn7a233nKgnjt31hbmF9YAEVSXA0Ac4I0BhAAudYcTRr6slpHhkRHPC6ApFwMe1Fk3xHPUGdTZzu2osw7yref5syjqjjK3K0ueiBc3Dsy0BpUfPuOeFE91FHKjpzbLFFtLh9oPDlLxip3Y1D0/SNGQHOtSBIS0NG2mf9AyAkB2aERe96BVSz2W1XLfs+kBG9i+xyqlATt/c9EOf6Sxe++4HTl22q5Pzdq2bTts76OP2QM7+NkeGoMP8Ysm1z19YPeAwyjG5y/SrK1GWXk1bugwXgknRoflZOgC0DRv3eZnrCU7lg8T/YyD6mGyskOQlynCj7+lirKTfYyRWSIfZuZdmwGAEgJcACoGgKUckP6Hlv6j0qjlcmXN7kRbUc6XdBEgJI1n6ugkgEL80tKSLQq027ZuteHhYSmLPt+fpS4MfJeCiPY7Q/AZIeJikkGRtp7IG0Al3A2tL0vobCeJQ0skGh2bbT1QvUUGyYu0YzxyHTG6aC8FgAokgAb3yemBlFXUXrbQY/neIesaG7eekQ1WkmlQGByz4a27rH/TNkv3Dtv7J87bLw++Z68deMeOnrxgUzMLWuJL9sSTT9rDe/faxMRm13JJm8iOMaIt4a2scVpekJ+xYqW8sLE85wexhUzLCsD8PkEeU0ArCc95ad3U4rzV56atPDNl6ZowInMBE2OpUhGvg1aUGZMZkHYV/wklDSOSuzYDwpFC08U9e6bvvfeevf76637FFk1Ut7nnT148/rGxMevv73dNSVnKMXCYB7GMdtaLabBnz561csRhCmQ0u7nvDEFxvz6ddtaDKUIAKsAV8XdKn1Yu4jwQoXw+b6Qpkr9kXJJSSvAI7olUQH3hEt/K5CarKztCEiWiLvVRuiorkyDHd/zpvOJ4G8S7dZlchW4ryevvUrgxu2w/F0B/9NPX7Z33j0ubzql1LcWyY/ukjZ/Y96TtfvBBGxsfE7/8qDqTSL6KlBATZVVjd+HSZXv7Vwdt8tpF27N13K6cPmqTZ4/byuVzlpZ9ml1Zsgw/ZVkWgDlYI74Lek4L1K1FmQONikwGOG/ZgjBTk43Mj2Z0a3LhnK11lCs9u1OwQjEQnQMA4HCKfvKTn9j7779v169f9zwZZpTAAQi3bNlijz76qD3zzDN+3b17t23cuNHBiGZlFwCAkh+N3SctSh7yP/HEEzYiUyDsW0jjLf6T9tdTJ29QAHF93vX5oM64zvjPovVA7bxGQA70kS09xfhk9jTPSfnk6qF975wLIL55QAb12dM8XUmK94mSPCoZsAJX/eH9C+juwMg84NQSuwA5adt0tmDnLl6xn/7sdfvw6CmbmV2U7CVfBV4GdHV32/6nn7Idu3bKDBt0JwpvD5nT2MrKqp2/eMleP/CWlNNhq60u2v6Hd9qNc8dtRmHu7DFrzk5afeamVaZvWkNXE3CzVSkumQCtBZkCsl9bdXYGGrLf61auN6zMIRnx188psHwhscEBqniCr7sCK4K5BZjknuX/5MmT9q//+q928eJFj0+0WKJ9AeTTTz9tX/va1+yVV15xAD722GO2a9cuT8M+pTyEaYAGRZt+9atfte985zu2c+dOKwJqmRFZARZTgIHHdgpQ0GZQZxwhNPan5YW479S8d0vry3Q+0yZAbdTFi7RkVs4E8sEWhB1XHO3trAR6aFj4dhXsgRcAqlSBvBGd9NHT9S/VuP8NaNmmkrlEMq9ek5roH18FNO3kqTP26quv243Jmyqbtr6eXuaF19ctsD73wnO2fcc2mbm9Mi200mnYHay6YbfnV4cO2w/+46d28fw56y3l7IXHH7ala+ds4dJpmzl1xMFambpmK9evWnNaS/7CvDTtsrVkNvDDbC0BvCGnq8WZ3JacMU2olVbW6gLsQJ9sbHYH5BBqZnmbHG6hf3dEa5qhLSA0IlfAxr4p2pUlH8Ax6AgTe/WBBx6wZ5991sPGiQnr6e3VMtNvW2SLPvfcc/ZHf/RH9vzzz7v23LBhg+f7i7/4C/vmH/+x7KUJrwv7DmD7lg7PmgS0T4CvAJi326Z4Ji+B+4iL/EH0I/oX4L4bciC2y0b5uI9n7PR8ISd7UNrLl3YVVDOuYdsIBFDK7eAgtPh/9GTUPykYrZnK0i6k/1g66W1O5T3oPqOJkJbmjqw5DXJOg+0gFoB5C0Yrq9Jy5dVlta3VTGBJ4fy0D8YUs2n/wYmBgV4p4oxVlF6Tt89vu1Yk7wVpxINa+n/805/a8dNnbFFaFrC3anUblam3baDPNgu8g5VFK85cs7QAXL1w0uZOHLHr779jNz46YrOXLtqynG/3WXjBIL4KMg3TaqOs+q9fPGurs9LGNf5HGuoILyB4yXC3ZkAMclyZZR988IE7VTQOMCA28wHu1jYoH5T9g2YELAwQAMR2ZRCpa3Bw0DXuVwXevY884uAF7BBbV9TbCSLuOoHHREHLY4YwedhCO3XqlJ05c8bveQlBGltj5KWuALLX1wEw6qPuuyXKBh83btzwlYZ22SWBj/PnztulCxft6iXxMTNrq8ur6ofAJa3JnqVGXUTPbvUz+ueJiciTq/j1LR9PVy2Sd0X1Lcwt2NzMnC0tLivgpM7b7PysxoaBb0mmOSmYeTtz8pQdPvSOf90q1SZtn5ZJJ2VTzEupjNuzLz5v4xs3+KqmAbOagDo5OWlvvXFAvskbdvTYCQcqTtT4QI89vG2j9WmWZFbUtmzWokyHPPXSFS3xjYpAv7piDc4gcIZBE4SzDcmOgaaQNKfcLaumilZpZdwU6BkcSbbimKOaEL/xlwIUQ5v86le/sn//93+3//zP//RBYvARIG+iuru6ZXM+bn/xl39pL730kuWyCVgRGhvCgHB+fs4uagAXFxdtVI7UQw896BrTh0fagKXQty8kMOw9Z5dxU1nAUatV3YaanLxhV69es8uXL7lQZwQG6mQCkQ++MDFw1jZtmrBt27bLbh634eERX/bgOTRkFhC3J1GIJwFM0m9CApIkLkBKe9M3p+36jevi5aq/xZuWPc7ORl2ah5U+J7uwu9RrYyNjDorNWzfZpq0bbXjDsJW6NTDKxOtLqnYgq7PiRg+0hewSOSTrurSwt73qoJy+MW03p2bEx7LKs62lMZI9WJHG3DAxJsWx2XZopbty+bL99Mc/sf/37/8fW1HeZl3tKP+qwDQ4NGSPPv6Y/Y//+3/a7of2WHdvDzpeDth1OyLn+Z//v3+yM6fOqV9azqW5+eDkid1b7P/4b9+wx7cMmk1JSfziB9bTqlpJ5bKql75LrMqJkkIGxCuC164KUhH+267zuSFbLIxYuSQH7yvfsC1P7Dcb3cDOmPriX7fS80Tod0sM7DvvvONg/dGPfuRgRVMCjEa9pmvawfD97/+ZfeMb33CTgB/ucntNYKtVaxpoRIEjIJCwVPJbR8vLXgeaN9kqkzCVH9srAQ8Dir08J8Ffca3OLsSpUyftGg6eA4qLhCAv08Gv0ad+6mQbbOeOHXLi9tjevY/YczJDcOq8boXE1tPSmst6H4mmbNJnDb48YrQ+gIbYG2ZfGQfz5ImTduFiYhahxSkPEECfnzJT3Tg/vbIR+/r71G6PPbH/Cdv/1JO2b/8+NxOQQaGQl2OTaB2cVSfxBF8NySSZyC2blgPz0Ucf2RG1zVvAeWnWVfGHskAjAviaPPGnnn7S/YBvfetbdl4rzY9++O/2v/7+7yV31Yut6oqg6QoDsP6f/+P/sp27d8nZ6lJyy34mZfSD//8H9sbP33C7mL95mYD8b9eefHiX/c+//O/20I4Jq01ftqOv/chaS7NWULucYfX/24rsUj6GyWky5jSB+KVCviHjHC7zkB+4mM4O25zAWukdtUeff8k2P/6EpSY2CgNSIjJnZAb8lcyAzwYr2oNBBzQIiXsAcPPmTX+Vevz4cddisXRDABCwBFDYAWAQuPd3/sQLlAxQmAaAGG7cmHdQ6llpEYijznMy7N8+eNBee+1Vf2N24sRxX3pX2q9y0TbwExS8owHnBKI4+YU2JD81d8vmgjfX5Hp27e+lZT45QICOYuBVfC9LY17QUn9Iq8sbv3zDDr510I4dO+ZaFVuenRLapSwhNDIOxdLyott/lWpFWmpaq8GU89NV6taK1CUtgikinepATVlVyyiThgkLoa0xd177+c/twJsHfKKclUxuqq45TWKW/qUl2lj0SY2i2KPJuXPHTk2k6+LzuL2nMnUmo+rjbRQHUXr6euVPbLHnX3jBhoaHXDZvH3zbXnv1NXv38Lu2ML/oE47fTm3WKrZj2xZ7+snH7YXnn7H+gQHZ5UUrdPVYV9+gHKRuB1mLDxQlU348OPlCl6DJwURhTGWU1wXWhWbRVjM9VhjcYGPbd1ivfBjr4QcuhDlWu7sBq2sJCqpR7hkwBgUtwuwGHGwxxaAgXYBFh8k/OjrqSy7GNAQwACj5XIMpjmdsW4g48rC3Gs8Mkp89OHDAfvGLX/iVttHGULwJI0BMHuqAsKEhgOMvHTSQaD9ATl+GZDfDH9ofIXa+4kVTwRv9p74V9QuwANRXX33VzSFsU7bhwnanbfIHP/BWLBb8lWVNg12XlubDOWxpDvRM3ph0U6W3t0+8FpWfk2fiXYKpaBWCqBeAXZT2fvtXb9sPf/hD+/DDD31FCTn7+LBiuVwTR3T//v2+bbhp0ybnm0l19Ogx5wuFwCpREd+cyeDkG44ucjgnLfwv//IvvoJev35DjnnOqjK9UET9csSef/5Ze+nlF+zhx/b6uBakifvHNlg3X8tq8vOtVVYTMM0PEov3ptri/8PKt1V1rTAN2aq1dF6atWQr2V6Bc8QGN2+3YU2ukrS8BCagaAzU7h2D1bWKAsInIDSIgWHgAQxXOp8MaJIPgaFhAAZamOV2aHjYdwRIBxS07qDQNTQg5dimoh20Lt81AkjaARz/9m//5hod4LFTABABEeUoH3UwgLQPX/BKnt5eCUVEfJxFoF3AND4+LvmUVB5TJuGFMkygmIAQg81E+am8Yu4BKenUQYBoP4BK/YQa9pscCyYFL0rgnwkdNi/aFeK4ZJga1Ev7DlTVcXN6Wlr8LTe/ACpyJ4124dVl1u4/4KXMC9KUgJW3gayCyJHJhdzITz54of+PyMF96KGHHNQcRPrxj38sc2NagFE+rXg18d872Gf7n33avvGtb9q+p/db38iQpbsELDloKU3A7EC/dQlsA5ocg+MbrHdoxEp9A5bu7rFmvmTVbN5WpHWXpVWXUnlbSpcsP7rFRh940Lbsfth6pN0z0tQChjAi51rhrsEayxnCQAgQ92gnBoxA5/3TFakEBIggAEYMRF4C2iihkI86MQmY3cCA+9BmBOpx0GlAEfDPtez98pe/9KWWeqMO7l1L6J4BY6ABMZODN2Tkg1/yQNiu3na7fsACsNmVAETdEmpo9OivbhxQDDIT5s033/Q9YiYB6VEf7QRv8MDkAJyuaWXHYxuSjzzU7ZNBgTiAR3nywwtne70upSMfzJyPBFAmyuHDh3086Augg4+oM2TClXbZHmRHhjqx8QEsuxXwHTxD27dvlx2/18eN+pE1Dqv/z4gF1FW1NzQ6Yo/Kcf7Wd79tD8vmHxYosxwFREYi6ksx4RUyyJ4zCgNDlhses8LoRusmjGywrqHkFXBxaKOVRidsZKfq2vWIdW/ZJrAPWkrmoe+ry4Tgf+F+x2ANolMIg4FAGAgZQTHYaE5MAphNvPhbyzKCRIO4llM5B5EGpKiy1EfQPy7cWG5j8BnAy1r6eZ37xhtvuCMBOYBEMeAMMN4+b8y2bdvm2gnhoy1oDz7hGQ3NAEd52iEOIBKPubJBSxkHwIM3+ltRHztNEAYc3uhjDHrwgQZjyaV97EX4gY/BoUFvg2UUWcAPYKIcsg0ZEbaqH/0CF20DVuSGrQ2AWJYBG30i0D7AZWLSVwKTLnZAWNaRB/E4o8gQ04O+B9FPeCaQRhsAGwKsHK3OlYq297HH7KWvvGwvv/wVG+EHMTiHisOnupRNk0qKhjdQ0p4tBQ6mpHv6BcAR/7WXkkLX0JgDtTS6yUobtlj3+FYb2LbbejZttfTQsKXUJ42wKtOklnblVNldgZWO0SEE4wJUQMgMFkJAcwJWrsgggBpgQssACkDNoDMYCJI0wAwxcGjZpNdqS22wTwo4WI7iLRnaioGmHM/U8/DDD0uAL/ubr+9+97u+A/Hkk0/6kgZoADFlWN5i0tF2AI3BBrCbN23x/IDK+VBnyIOGYaAxQdCuaGIAAcEHgf1hlls8769//ev+1o5tO/aan3rqKV9ixzaMenvY+5ghARh4Amzwwf4stuOmCWkcAQJTCADDA6+2SSdflKNfgJa3f+xXc+UtIVfkwmtrXsqQB/saEDJWMX7IHf5Jp763337b5c7kIc7tYclit2T5bcn2la++okk9ZnmBEaCyFVpXOp9OZ7L8tCUrAaslSgdTBs0rAPKTQIVuS3X3W6Z/1HJjm624cZvCVssKxGhkAUt5FXTFVm3qnhNldwxWBhYBI9gAbVwJoamIYwDYs2OTGUFEGe4ROAJgoAA7cby54j5AwxX175pGQkK47OMyQMRFnQiXdlneAAavdPcJnLyI4Cws3n1Jgw+wQ9OhaRgYQMkAUF+0TZ3wNoF2mVBeTcCwGbFfASqaHX5YSSgXg0wbgIPJ8pWvfMWeFTjRpkwinJY+pSe89Nj4xEbnDydqamrSgQYf8EDgGSACfLaS0MwQEx2Nx+4HThn5kD1lARSTEhnwVvARLeXIJUBLn/zAkMrQB1YFlAbtQdQDcKFwmukXcbSDjwHov/2d79pTctY2T2y2gpb+GH+24yDfSRE4Hahua2opbwd/FcfhGoU14OpKmow3gTPZiVGDCWBxLl2rKrDbfDeaFSAxQHHfSQwampNAZ+e1XC0uJudZAwgINTrHYIdDBlh5DYsti2DcVmyDkcFh2WPpBUjUE0BFmzMQaC8AgkahLngA0PAagGKg+AIh8bZ73aliBQAADAh1whcAHhvd4NtsvO7FFGBXgAmIducTHTQz9UY56gdQ2IVo0ccef9yB6naq+gQv1MM2XVHL6PDwUDJpFE+9yAs+qDPkQ6AfG2Q6AEJkyDYUbSML+CcP7SMzNDxnMJADqwn8M1EwaYY1MXgTBVBpB3nydi8cM+phHJj4yBWeGB/ahHfSASpyfuWVr9rm8QnrkgbMov0w94CaAJXIUIHXybrHMQK4aF53kgS45DmuyT3AFiqVLalDlSRAJags9ipnd5NpdQdEJXSMK4GOAL4AMPdoi8c1UCyBzGg6jyYNQggMMAPFQOKcoCXwON3b7GiD+qkbDUA+HDe0B2kIHM3IIZc//dM/tT//8z+3vVp6YwmlHAKGXEMrjo8X4YUllZcATz/zjH+k6HmUN7QZBBAwU6gHwQFgdh5YOgFLTATSGVxADVC++c1v2hP79jlIqJN22fIi8EwZ3uLRB2TAyTJWBIAVPHibIvpPn6e07C+pr2xXVcU/wA65c0WeBGTDysGEjK0/J9VL3ciB/jMGyI62GB/KxVjCF/0BxMRTL2WRKweQ/kRadde2B6yLbahK1TJNrahangmClcl9NH5Gs6Y0/6pAIG7DUHy0g5MATQqgZUsqJx74fwtk0bbSutjAvn0IkKk5qemOwRoUAqWDCJ8A8UxnASG22be/820fCABMGYTBPZ2P5ReNhPCwwXhDckqgRKuSBrhwJtgWCqcNMFEeLYKzwMRgxrvdqPiG8gSQxIyDhStCR7PQHs4bGu0xgZsJhXaG4J2ytIMGh0f6BMEjHzxiL6NxGEjaoF76i/OCVt3WtnMxGeCfvrhGVT54QQ4BHOIwD1iqsaUBGe0RHzKFD4LLXIF7VgMABb/0B1lRDj6Qr7/LVxv0g7ZwjMjD1CVQFtCGLKmb8mhx8sUYwgfpxFFXebVsq8srAoBkLI1HaFVVR12aFbNeoVaRoqg3rMRhHT3zGld+pAfekjlU24xwr+pRzKq/fe9Jkjk2akvjp8lQ836Q/w7BCtMQHem8D4AGkUYn0RQAFg2Ls4EWocOdAiAADoTHIQ/A4NtAEiQCRHuyHYZGAyy0E4PNTGeQASr2aeyBwgkA8U4jAeLgsw0s3/5p888yTVnAGnGAhD7B06pASXkGFa3Pthmajn6QB14AC9qMSbNH/NBP76PXlkxgr7MNPtqJNzg4TPQjzA22lKgziDw8I6cAFmDFzuTZ+6tAPtqgLvrCx323o5AfWpMJF3VSHoLXiHNZqU7K8AwPV65cttMan1WNiyoScCTtRNBi1m/ooAMqR5/hT/cOZK7rwseoLTB2EXxHQRpVvVLAQUtK8Oe/+A1DhNtRpN0uT2dc3NN5rps3b3Ftg0eOZ40wACCEIBCAA0nxEIDFjkKbAjSEiibD+w37CaJutABeNWYALxjIH8CAqBsti9BpIygGl3TAgQOD/QrFoDGBGFS2qWgLDYtZEFo1BhXtBECwJ7GbqSsI2xRbNdrm3+ANDemyasehxTAb0IrUS9vwwjXAwuQh/7J4YQKTBoUM4RmNDj9uAigu5OXpAjDgQREw8WNlg6g/2nO5tfkLeXIl/qMPP7LXX/+FzU1rssh5ltqUryT5UgmqU2VyWRzmpJ+ZtFY0PlnRI4HuKyrJD6lD3IsttZFcyYBt2hBQOcd660B40hf9m4AtBLueiCfQoVh+QhDREWZ8Z+d84MU8muZFORx4p2ydAB7SyNMJEsqhtQAEHj+gQKAMDMseAvQlXPlYgqkXexOnzPvYbpMQSywBQvBhs5LOYLqzQV6lrQe091FCoz3iAUgsvZShLdIIaDL4oI4A0HoKMAQ40O5xIAfg0icmHyHkDFE/IIy2aJc24IMr+YJv2g+w5ui36oZI7+wbPKAEmGjRF8rCC3Wy0rBiseowcXySKI0r48PK96Mf/4edv3QxMT+dV008qU/21ZOvCXgW6DlNxXEpP4PbDtz7s2ShPLdCxCeTmFqTmm+Rj7PfdHTodhSdJsA8ISji1xOajYFhicMkQMtimwE2hBbCCoAD0HBseEcNWNGqXMkbQuWKNsLL7dIAQ37YRQHyQSROAdvReW3zGM+0CQ+hyWifdMqSDkjgUw/u3ABW+CMv+YJn+KB/ATSIyUIdPHdKJdrwv3ZeiHjaI3BP2ShPXwEqQEQz+qQTHwF8KPiFF2x37n+N2nUCOlYuwMpz8ARxxaTBbGNXhfqcXwXyVWpVu3r9uv38jdftg2Mf2eTsTX9JwI9ZNAVWfoGQK4E/pejec+hJ2joA60CN+3YAsJ6Pv4+DFIJDApr5jiiEyoARIAaXgUOY8exgUQcBhh9TE+HIsP+IR8l+JyBhhlMnoOBKOeLYPySdQWE2I1jI62yDhfbQzAxkpMEHgHUeNBDkDc3gg84kURwDDqCon/ZYFUiHaJd6SsVE0wVPLJ3k4xmiPQJ52AflTRxLP20xSRE24PK8+nObWbLzV8rSQP52jzQ9h40ddVMH9wGmACtEf2IJJx0euDIuAPW2YFU6eaDQkPSdNigfRL95wwZYUSwAN9rliuKZX160d468awffO2THz5yyaksaVJq0qVW7ydnZlFYQ9ca1YhvEDloBMgCrdc7DxzRrgFYp64EKuawU1MSvU3RuPdE5hBFaLgLxCBaKZwaHfA4AXfmM5Xvf+54LA8+XfAiPdIi8CDA0aVXx3K9vj7oJ8eyBgdYVgJAXXggOYMVBXFkiSWew0drsMuA8RT0xCVne2QslL3ExeSDqpDzxHrhnYioPk5N2aBsJMjk4HO4TpM2fMqyBLWSG9mY7KcpyJQ99BygAFllh8yOT4BOiHtLRhExId+Zop03wEROB0/5oVuqKCQHRHv3CjACw2OHscHBPv112MZ5q+70Pjthr0rAXr122ZYCvOup8R+WwBLBM2ARiCVzFQ/vOgewh+ffXQ0JJ6Y6gpERaHRQdWE8IKAYM4pk9PzbteS0XnSLErHWwKC+hR8KMtykIgXQGhEGOMhCDhS2Hg8PAkAaRN65oOdrGXIDbqAdwuEmgMgQHg/pDOjarxyuOvLwuxeSIyQGRjqYfHRuVlz7hgxOADz6dv/ZA0+c175x2CV5TW8Dt9rhClCFEPPcAB6DGShPtkQZQCcTT51gJ1upo5wuwRtlPIiYNcoNfyhGCaIM68Ad4scIqiP3KCubyUV7kgbPGeVje5vEm79r1a65YxI3+6JPakcPFBgGA1ZT8WEggdys+eU7iCMm/SYhYZXTieY06mV9PARI6yiAxQ9kg57ADb0QYNACMwGIwERzPcY9DBFDxfiNfaAnqRWAIh/y0AZC4Jx/tUwdmAcsyp64YPLQqdVCePN4Hgoj6eEbj+TKue/LAO0frcOh49sEQMRhoVZbATThO0iZoK8BAPdQXdRJo33/DS3UTH0uw26260kcHvALkctEoZtovBlym6iMAgj/yUw9pBDQdziB1oVUDrFDkgw8mGK+WiVtPPuhtnpkY1EG7EPw4T+2+YUZg2tAuditOMTs5Lv/22HaVuqy8UrZzp8/aqz/7mSb9Sa+T1638cWjcf4TEh6ATkNL47SDY69oZiEOxJWCNEh8DrIj7XyOE0EmAIToDgNhi4l39P/7jP9o//MM/2D/90z/5+2YABNEpScA7ybKUeMAwmvxyC2BDQAwuIQDDzI63SrHkhWBpn7zkw+5iZqPVWdqY7b5cKh2g+AC0y9AXwManLPSKn9/kmCEn6zEB3JES0Q55GZzt2x+wMQ6PqDynwuCL+iFkEROMvvDS4rrMCY7uBTFxfHKID4i+Rj8yHCQWI6wcfGlAP5mAkc6V+uHFNavapzyAQAN32vAE5Ap/nD0IO3k9xWoCT7QXfEHRFiBlfF2TU6fuHxdY2ckh3uVaV95Gy3o5TK3r+4cO26E3D9rZEyfbMJQZxhutLNt2gpYGga18/tC64rad61bguV1SgZwJOCP4QLavtwVrJ9ExOgrAOFYGSDmdzqFjfteKOGw/Bg1Ni1ARbufyx78ICi3ET1sCEoQeyyz1M5vRuGg1nhkYysSsD2BThrJ+gFjakZPsaCe0Jm0Gedvt9ukDe4xsi7F08Y4fPqiHukmnXpw/znJuxrnQ4FEHzhN7qCyNMbHgCWIyoZ0B/omTJ5NtNtVFn3C4KA8Y/HWr4uGHn1XCBKEccmAFgQ/6DMELgbKu6SQXytIWgXykEUI2DlZNRu47yTV8m9ey2mBsACs8kZdAOn2nLUJMXiXYxMaNfs4A822gX34GGrPWsJIAyavVxZtzduLIUfvgnffs+qWrtsqHinUpIQEv05RJIy9La0Xyp3t+LbAzJF5YO7QSrRrBKYAKKXKtdzAdISieGSC0JhqJTxx+8IMf+KD7EigBkgdt2wlYhIpQGAiABzjePHDAN/9ZhmNwIOoHKGxt8UaH5YqlkYGkbh98CRThhnalHQ4HwwcDz8EZ2nIwqU4HKMu/6mCiwSuTizOx/ARnTKpon4HiMApL34aN42sDz68YAlT2INE69AmKSYajxuEWTu4zcegbSybaCR4AKnzBC7/dBa8HtApxzoCypAVggx+I9jGJ+B6Lepi4BHiFACuEXNbAqjZVSRJETGDKQtjsAVbiAqzU4yuP2kIG3EP0gThevHC8keOcfKnK/wIerZprqpzAdunMeXv/V4ftw/eO2OzUtDX5ildNZlrSk0pP+/XjwX83YX2AZQXdOShxqD5OwsFf/dVf/XV0PCieEV4MOq8b//mf/9m1AuAL4BDIh3ZFsyBQOuxOUqW89qoSoPOrLYC+LoEz2FwJ1MEuAcfquLKsYlMyoNQdWoQBhWg77GYGnEEIEJGP5RBNOiU7mkPbgJOzsJgqOIPUQ5vUG5MK7cGJpa+88oo06ajFF6Xko//0j201JhEAIUR5zBImBP0nr5jwcgw4Tg3t8YKDifXTn/7EXn3tVeeTXREAwSRiEkP0LSYnHjmeOW/bWBVYTchHeowR+VgNeOXLCuDftIlI97dluif/jMaBTX3OqcIj6YwTfccEYEJyYmxcyoJ4+KAsssQ0m5mZtkuaaJwP4Peu+GgQrc8vmfPipLxa8bMRo5IdOhIzgDp+jX4NhG2iOwHDj8NRRCEH6187WKPznfdBPLNhT2fxoAEKHWRAQntCCIGBY1AvnL9gp0+dtvePHJF9+b4AK62rOPLzK8x8nsxg5rJ5Gxke8XOYvDwAKAzMRx8e1cRoD4zmmsbWCRDBjyDsQFmW8PiNAH4O/pK098WLlxyQR/l689337NChd9y+ZZm+LBuXAxl8CEcdfA+lG39j88KLL9qLL77k95wz1ZqiZTRZZtkXxWlABgwav7/vrzDTWubl+dInZAJgmTzY0pcuXfTV5uixo/4V6aF3DjkvPPNxH7sicU71nXcO2wXxnZgQyQeS/MTQ8y+86F+kYm8fO3rMjgms57WihLnDFfk8/sQ+e3Lfk/51Kf1xkCkNzRp048aknTh+0s9g+P8t0GMBtHwFadSJiU2uQdk3XnvDhjMoeaNxUUL8HgGTFpOCLaqsTIaa+s9uwJwmcd9Av597HRXwQ6P7T2SuB+LtArT+/mMkC7fzF1nWA5V7Os3sBZBoVIDEUgJQiUczAlKWIq4MFksdyy5gO/rRUQfpzHRyCCT5lDix5fgoj3fiHJX79re+bQ8+mJzbPC6goVWpg/zBE/khgMpAMRaVSlXae0YAuer5z50778Dky80PP/xIk+SoA3hhIXFOqAMvvy5nIdp/6WU+0XjZNRQ2W8gBfl0GAkR3T7eDkV0PVgf/fFw8hIwYsBmlM5iYKKxATO4Ptaoc0YT9APv6/DlfDdA6z0hr7tq12yfa++8f6XBOseOlucXjSy+9bDsFahTDYa0OfD5NvkSzormSMwj79z8l23K/2/1BpCVYTWR3+fIVB/u7msAQfJMOIPtlj+JUPv108tKG/rhHL3JeNLm5kveMFMHS6rJVkV8umVicjJqen0MNu5y2MwnbcoFXZyFgFfefFDpp7TlJvI2evj3RCT7nZVli6UKDxpLPgNN5AMiMhEEcCQaXwQEkxAFoOhDAZ8ZSH+dA0TLMcMovaTIwIQA/2jNAw5XJgXlBHeRlwgAw7qkTzQ9Q0K5oQvJH2bDJ4BtNyNKHt/tnf/Zntm/fPh9s0miTMi5oEWWwpXE20P7Y1qRTN0CiTwTywQemAjY6PHDttNHhF/uSpR0bGDliPpDunni7LuqN1Yt2qBOZRJ8jMBaETj7gDeKePhDoV/gSpFMvgTy0yxjSf+qEov8E8viv5TzysH8oODK2wVLZjL+P4pRKrsDB+6ID+U2ZNG8dfEumwZJlBGb/hW/x7Ko8APlJ4XbUkX7HYA0HhEPGAIyOASZAAxAIdIwB4z6AS+eJJw5hExAEg4+dxas9NqARFoQw2dKhbsqSl3ooHwLkADNEG53t0DaBPJFOOdIROIMOMbg4UkwSAttV9Id8lKcdykLEQcSzArwocwGAc56WQQZEnUCMFQcK/oJHKPpAffAEUGPi8cwkoj74gU/aoA8ALZxZ6iMPAZAGyEkjLyH4pz0CZakDGUQ697RHWSZQ8E06cZSjTgIKgT1y+v/I3kf8Z4aokzpY5VgJUBaYPvgnrMB8KUI71IdZ9dvSHYMVZjk8AlgJABdBwUhoQDrIYCUMJsIiDqJTDAr1YLBjH7H0UhfLRmzRUA9CXQ9WrmhmQI5nzvdRDDhplKFN8hAHD52AJZ524ZftMZZ7ji5yOBxtyUCRByIfZaPNGCz6SVk2yynLBIuPCqOP5IN4hvfgIeoI/nhLBC8QAx7ggOgLRB7ASl+QG5M8ZExd9IsrSiS0aidRZ2egnQAmRHnqIw1emRykRf6QR/BOGg4h8kLJMIbkCz7IzxiHI8mP9WGykE4+8qynqPtO6WM266cRzCB8NCADBBN0HkGyxAAuOkTg3jeRFRAInYAQCEBBM33/+9/3jvMhm3uwqp/8bK6zFcQSyvIZggBEOD8sw3sf3es2IjzQPtqNK22Rn/gQEkRZBI1TwyRBm3IwHLCRBs/RTvSBAEVd9IE4Jkwclo69TfofYIAP2o06qJeyXAEe5hQmB7seyBEPH4eM8siXssiY3Ql2AwAsDisA4EpdgIu6kSfanrqQTUxuiPTgm8CODDsJmEYxGUkH6Ex+VkvqiElEnuhDyIX6mRyMLwolPv2JQBnaYrUgPzJi66uzjk+i4PvT6I5/RZBsBCplOwo1T+dxJrDLmEWxLAAavEhOrTMgaGSWEAL2HkIBKAiG5UMVO1gpd1PC/Lu/+zv/AQkGBwFADBqD9zVpQ95ZX7121dslILQAbAAFDQawKMeWDgAjBB8IEqJN8nYOYAwUz9TXSSF0BgRnC4cKOcAHziU2KKANPhhgZEB78MHKwABiRpDOthoyZAmNVQlAICdWHcqRxrdqoangATnDJ3WhAJBptBmB5xhedkSYGPBJeUL0jbZYMVgtmQAQ5aHOcQ95AHiUCbzHykA/ucIfARlzQJ6JGStdjGVQ8AZR/2dRquWvftpPn0LBaDCPsNB8qH00AzsAOFRoGYhXn8VCchCDt1IsG3y3Hp8k+yHhNoP+r+4ZZPZY/+Zv/sY1CfUBJNoFdGjE//a97/kgOrCnbzqgAQy8hFOGoGmXpZQQb6Cog/gAI+AmP9oVYUM+0TrAGgNLYBAiLgaTOGQAULkykDFpyROTBh78S1NpVniiTdqiHHxQT/DAlYnMagC/tMlOB/kYeAi+kQtamPrIF7xHiLGCX/higiHj6B/x8Al/8AVQSYOoO4g6gshPOcaZOmNixkSLvORh5aHPnTx1Ume95P8sumuwwhwdRZgRF/EEOsMA8U05+RAwwieOvclgKl4FYpzHwHNUjkH527/9W3+FiUAQIANDe3/yJ3/i4cn9+9f2N2mbekL4wRPPCIe4CPBGOoRwyeM8tHkKino7y0NRN6CgT5FOvcQToPVlIJ4766MO2oGoC16C786ykR8ZcCVv8EB55NKZP3ggXzyTHvHrARMU7UCd5eAniPjgiSs8RDz5uVL/euDGWHTWBUVdd0ofL/0pFIxHgLlOgYcmYKazjAFMBMZJKwCXbKLfWlqDUWe13SmO/DH7AWkAi0A56meWogUoF0LxiSEtxTXuyct98BmCoww8xYAT1gsr+KKs86dAPsASvNAudRHPZISok7aDF/IQFzxyjTohrtRBGvkg+gyvnbzRJvHBN9TZd+qEOvmOuHju7HukE4IX0mmXPnIlPkKkw0+00RkffaDfaHfuiVsfokwn3S7u0+iOwQpReXQ4CIYhGCLt1sAknfL8bWY9bzs/zxGcFI+wsD1DaOSPK3WyVPmugZ4JlKXdTsFDUW/kC4r4CEGdeSDS1tcZRNx64XPfGaCoc318EPV/0iBSFnAEBXDjHorynUSe4DvkFuU6yxO/PkCd9+SPMhEHEUcdBNqKMp3jwDPXzj5GXb8N3RVYIcAXgI0ZBZCgYJw04gjBPO+pCfGKMADsRB5dOPQRe4EQ5dBcPFMnNhBOGwNBXAxcpzBiMHjunDy0SRplQ9AE561dBoq6oj4o+soVirzUSf9jQIK4j/ojnjIRiHMZKL2Tn1gRSAuKuriSj35TB3Hr83VeWfXI30mUIz54oI647xxXKOohnQBFGjwT4JXrenOAEPVzjbp+W7prsH5S4xF/K03X9j1xgPNjAIW478gTmhUHhY6zrBCPUHCOGEzMCQapU7BB3k5bQEHcxzPlIkTc7cp8Ft1N3qBop5Nn4uDldjzTP66d9+QNBRDEfZSPeK4Beu7jSlhfPtqH1vMB8bw+PviAaCfuI+/t6vk86K7B+mkEg7djMuI/rQOA83Y2K1eEg92LFuOcKPRJAvm0Nkj7pAH5XdEn8RPxESI+gLeeOuPW5+u8rm+P+870zrSg9fHUQYh72oIi3+3q+DzocwXrb0PsDnCsj+2nWL5iuUGz4FgBVoQTy9J9+sOiO966umu6SzwBQDaa33rzTX9VB2hZYrCH4u0T+6zsV/IiwY+e3ac/KPq9ASs0OzPjb6PYKGf5B5Q4ZdiqbIn5GQLsWJay9Bez1Nyn31/6jf+nbZ9Jv0mtbVZY+iG3hTrsH1hds4fuY/UPjn5v1lL/sQhsVYExdg0AbcwlruwWoHHv0x8m/d6ANTQmjlanR+n7s22Ha70ne5/+kMjsfwP+DZHSmbPgTQAAAABJRU5ErkJggg==;" vertex="1" parent="1">
          <mxGeometry x="796.5" y="236.46" width="101" height="57.29" as="geometry" />
        </mxCell>
        <mxCell id="jy-rrXg_5H6nWXyfPQef-37" value="" style="shape=process;whiteSpace=wrap;html=1;backgroundOutline=1;fillColor=none;" vertex="1" parent="1">
          <mxGeometry x="520" y="245.10000000000002" width="189.8" height="40" as="geometry" />
        </mxCell>
        <mxCell id="jy-rrXg_5H6nWXyfPQef-38" value="" style="endArrow=classic;startArrow=classic;html=1;rounded=0;" edge="1" parent="1">
          <mxGeometry width="50" height="50" relative="1" as="geometry">
            <mxPoint x="720" y="267" as="sourcePoint" />
            <mxPoint x="790" y="267" as="targetPoint" />
          </mxGeometry>
        </mxCell>
        <mxCell id="jy-rrXg_5H6nWXyfPQef-39" value="" style="shape=process;whiteSpace=wrap;html=1;backgroundOutline=1;fillColor=none;" vertex="1" parent="1">
          <mxGeometry x="520" y="289.90000000000003" width="189.8" height="40" as="geometry" />
        </mxCell>
        <mxCell id="jy-rrXg_5H6nWXyfPQef-40" value="" style="shape=process;whiteSpace=wrap;html=1;backgroundOutline=1;fillColor=none;" vertex="1" parent="1">
          <mxGeometry x="520" y="202.50000000000003" width="189.8" height="40" as="geometry" />
        </mxCell>
        <mxCell id="jy-rrXg_5H6nWXyfPQef-42" value="" style="endArrow=classic;html=1;rounded=0;" edge="1" parent="1">
          <mxGeometry width="50" height="50" relative="1" as="geometry">
            <mxPoint x="482.12" y="267" as="sourcePoint" />
            <mxPoint x="532.12" y="267" as="targetPoint" />
          </mxGeometry>
        </mxCell>
        <mxCell id="jy-rrXg_5H6nWXyfPQef-47" value="Topics" style="text;html=1;align=center;verticalAlign=middle;whiteSpace=wrap;rounded=0;" vertex="1" parent="1">
          <mxGeometry x="584.9" y="329.9" width="60" height="30" as="geometry" />
        </mxCell>
        <mxCell id="jy-rrXg_5H6nWXyfPQef-50" value="" style="endArrow=classic;html=1;rounded=0;" edge="1" parent="1">
          <mxGeometry width="50" height="50" relative="1" as="geometry">
            <mxPoint x="846.5" y="340" as="sourcePoint" />
            <mxPoint x="846.5" y="390" as="targetPoint" />
          </mxGeometry>
        </mxCell>
        <mxCell id="jy-rrXg_5H6nWXyfPQef-51" value="Storage" style="text;html=1;align=center;verticalAlign=middle;whiteSpace=wrap;rounded=0;" vertex="1" parent="1">
          <mxGeometry x="820" y="460" width="60" height="30" as="geometry" />
        </mxCell>
      </root>
    </mxGraphModel>
  </diagram>
</mxfile>
